<svg xmlns="http://www.w3.org/2000/svg" viewBox="0 0 158.11 158.2"><title>Asset 19</title><g id="Layer_2" data-name="Layer 2"><g id="about-button"><path d="M58.5,80a.5.5,0,0,0,.55.54,2.93,2.93,0,0,0,1.06-.34V79C58.77,79.42,58.5,79.63,58.5,80Zm10.71-3.61a1,1,0,0,0-.72.25v3a1,1,0,0,0,.72.28c.39,0,1.1-.27,1.1-1.71S69.58,76.41,69.21,76.41Zm0,0a1,1,0,0,0-.72.25v3a1,1,0,0,0,.72.28c.39,0,1.1-.27,1.1-1.71S69.58,76.41,69.21,76.41ZM58.5,80a.5.5,0,0,0,.55.54,2.93,2.93,0,0,0,1.06-.34V79C58.77,79.42,58.5,79.63,58.5,80Zm0,0a.5.5,0,0,0,.55.54,2.93,2.93,0,0,0,1.06-.34V79C58.77,79.42,58.5,79.63,58.5,80Zm10.71-3.61a1,1,0,0,0-.72.25v3a1,1,0,0,0,.72.28c.39,0,1.1-.27,1.1-1.71S69.58,76.41,69.21,76.41Zm9.65,0c-.38,0-1.07.28-1.07,1.78S78.47,80,78.86,80,80,79.74,80,78.18,79.27,76.4,78.86,76.4Zm0,0c-.38,0-1.07.28-1.07,1.78S78.47,80,78.86,80,80,79.74,80,78.18,79.27,76.4,78.86,76.4Zm-9.65,0a1,1,0,0,0-.72.25v3a1,1,0,0,0,.72.28c.39,0,1.1-.27,1.1-1.71S69.58,76.41,69.21,76.41ZM58.5,80a.5.5,0,0,0,.55.54,2.93,2.93,0,0,0,1.06-.34V79C58.77,79.42,58.5,79.63,58.5,80Zm0,0a.5.5,0,0,0,.55.54,2.93,2.93,0,0,0,1.06-.34V79C58.77,79.42,58.5,79.63,58.5,80Zm10.71-3.61a1,1,0,0,0-.72.25v3a1,1,0,0,0,.72.28c.39,0,1.1-.27,1.1-1.71S69.58,76.41,69.21,76.41Zm9.65,0c-.38,0-1.07.28-1.07,1.78S78.47,80,78.86,80,80,79.74,80,78.18,79.27,76.4,78.86,76.4Zm0,0c-.38,0-1.07.28-1.07,1.78S78.47,80,78.86,80,80,79.74,80,78.18,79.27,76.4,78.86,76.4Zm-9.65,0a1,1,0,0,0-.72.25v3a1,1,0,0,0,.72.28c.39,0,1.1-.27,1.1-1.71S69.58,76.41,69.21,76.41ZM58.5,80a.5.5,0,0,0,.55.54,2.93,2.93,0,0,0,1.06-.34V79C58.77,79.42,58.5,79.63,58.5,80Zm96.85-10.31A17,17,0,0,0,138.07,62c-5,.92-10,2.06-15,3.13l-20.14,4.29a2.42,2.42,0,0,1,.93-1q14-9.12,28.08-18.22A17.34,17.34,0,1,0,108,26.32c-5.42,8.39-10.81,16.77-16.25,25.14-.79,1.21-1.63,2.41-2.45,3.61a3.2,3.2,0,0,1,0-1.88Q92.61,37.39,96,21.6q2.39-11.24-6.65-18.3c-5.16-4-12.92-4.38-19-.95-5.63,3.2-9.4,10.1-8.36,16.39,1.16,7.12,2.8,14.16,4.27,21.22,1.07,5.13,2.2,10.23,3.41,15.91a10.92,10.92,0,0,1-1-1.12c-5.84-9-11.62-18.13-17.57-27.09a24.66,24.66,0,0,0-5.85-6.54A17.09,17.09,0,0,0,21,26C15.72,33.88,18,44.52,26.3,50,35,55.69,43.8,61.34,52.56,67l3.22,2.09a1.63,1.63,0,0,1-1.29.16C43.07,66.83,31.67,64.33,20.21,62,10.27,60,.22,68.08,0,78.24c-.27,11.72,9.6,20,21.14,17.68,9.84-2,19.63-4.22,29.46-6.33,1.56-.34,3.15-.61,4.72-.9a35.83,35.83,0,0,1-5.36,4C41.68,98.08,33.24,103.32,25.1,109A16.8,16.8,0,0,0,19.69,130c3,6.07,7.88,9.6,14.69,10,7.08.43,12.37-2.85,16.15-8.67C55.78,123.27,61,115.15,66.22,107c1-1.49,2-3,3-4.42a2.21,2.21,0,0,1,.09,1.48c-2.38,11.18-4.88,22.33-7.1,33.52a16.53,16.53,0,0,0,8.08,18c6.29,3.65,12.71,3.42,18.79-.69,5.91-4,8.51-10.94,7-18.17-1.5-7.06-3-14.1-4.54-21.16-.91-4.2-1.75-8.42-2.63-12.64l.43-.09a8.5,8.5,0,0,1,.57.77Q99,117.77,108.18,131.9a17.07,17.07,0,0,0,8,6.76c8.42,3.45,17.57.11,22.06-8,4-7.29,1.72-17-5.42-22.06-3.68-2.62-7.56-5-11.37-7.45-6.13-4-12.28-8-18.82-12.19a11.38,11.38,0,0,1,1.59,0c11,2.34,22,4.64,32.91,7a17.31,17.31,0,0,0,18.23-26.26ZM64,83.15h-4l.07-.93a4,4,0,0,1-2.64,1.13,2.72,2.72,0,0,1-2.92-3c0-2.52,3.33-3.18,5.53-3.63,0-.53-.27-.78-.88-.78a3.33,3.33,0,0,0-2.32,1l-2.17-2a6.23,6.23,0,0,1,4.72-2C62.22,73,64,74.52,64,76.81Zm33.93.2a3.62,3.62,0,0,1-3.86-3.84V76.34h-1v6.81h-4l.07-.66a3.59,3.59,0,0,1-2.1.86c-2.58,0-3.22-1.9-3.29-4a5,5,0,0,1-9.66.66c-.39,2.11-1.57,3.38-3.61,3.38a2.52,2.52,0,0,1-2.07-1l0,.84H64.56V69.78h3.93v4a3.32,3.32,0,0,1,2-.74c2,0,3.22,1.31,3.61,3.42a5,5,0,0,1,9.66.55V73.21h4v5.63c0,.68.14,1,.64,1a1.14,1.14,0,0,0,.73-.25V73.21h5V71.48l4-1.68v3.41h2.22v3.13H98.06v3.22c0,.46.23.66.5.66a.84.84,0,0,0,.64-.34l2.15,1.86A4.28,4.28,0,0,1,98,83.35ZM78.86,76.4c-.38,0-1.07.28-1.07,1.78S78.47,80,78.86,80,80,79.74,80,78.18,79.27,76.4,78.86,76.4Zm-9.65,0a1,1,0,0,0-.72.25v3a1,1,0,0,0,.72.28c.39,0,1.1-.27,1.1-1.71S69.58,76.41,69.21,76.41ZM58.5,80a.5.5,0,0,0,.55.54,2.93,2.93,0,0,0,1.06-.34V79C58.77,79.42,58.5,79.63,58.5,80Zm0,0a.5.5,0,0,0,.55.54,2.93,2.93,0,0,0,1.06-.34V79C58.77,79.42,58.5,79.63,58.5,80Zm10.71-3.61a1,1,0,0,0-.72.25v3a1,1,0,0,0,.72.28c.39,0,1.1-.27,1.1-1.71S69.58,76.41,69.21,76.41Zm9.65,0c-.38,0-1.07.28-1.07,1.78S78.47,80,78.86,80,80,79.74,80,78.18,79.27,76.4,78.86,76.4Zm0,0c-.38,0-1.07.28-1.07,1.78S78.47,80,78.86,80,80,79.74,80,78.18,79.27,76.4,78.86,76.4Zm-9.65,0a1,1,0,0,0-.72.25v3a1,1,0,0,0,.72.28c.39,0,1.1-.27,1.1-1.71S69.58,76.41,69.21,76.41ZM58.5,80a.5.5,0,0,0,.55.54,2.93,2.93,0,0,0,1.06-.34V79C58.77,79.42,58.5,79.63,58.5,80Zm0,0a.5.5,0,0,0,.55.54,2.93,2.93,0,0,0,1.06-.34V79C58.77,79.42,58.5,79.63,58.5,80Zm10.71-3.61a1,1,0,0,0-.72.25v3a1,1,0,0,0,.72.28c.39,0,1.1-.27,1.1-1.71S69.58,76.41,69.21,76.41Zm9.65,0c-.38,0-1.07.28-1.07,1.78S78.47,80,78.86,80,80,79.74,80,78.18,79.27,76.4,78.86,76.4Zm0,0c-.38,0-1.07.28-1.07,1.78S78.47,80,78.86,80,80,79.74,80,78.18,79.27,76.4,78.86,76.4Zm-9.65,0a1,1,0,0,0-.72.25v3a1,1,0,0,0,.72.28c.39,0,1.1-.27,1.1-1.71S69.58,76.41,69.21,76.41ZM58.5,80a.5.5,0,0,0,.55.54,2.93,2.93,0,0,0,1.06-.34V79C58.77,79.42,58.5,79.63,58.5,80Zm0,0a.5.5,0,0,0,.55.54,2.93,2.93,0,0,0,1.06-.34V79C58.77,79.42,58.5,79.63,58.5,80Zm0,0a.5.5,0,0,0,.55.54,2.93,2.93,0,0,0,1.06-.34V79C58.77,79.42,58.5,79.63,58.5,80Z"/></g></g></svg>