<svg xmlns="http://www.w3.org/2000/svg" viewBox="0 0 1453.53 1120"><defs><style>.cls-1{fill:#bdd2ed;}.cls-2{font-size:43.24px;font-family:NimbusSanL-BoldCond, Nimbus Sans L;}.cls-19,.cls-2{font-weight:700;}.cls-3{letter-spacing:-0.03em;}.cls-4{letter-spacing:0em;}.cls-5{letter-spacing:-0.06em;}.cls-6{letter-spacing:-0.01em;}.cls-7{letter-spacing:0em;}.cls-8{letter-spacing:-0.05em;}.cls-9{letter-spacing:0.02em;}.cls-10{letter-spacing:-0.02em;}.cls-11{letter-spacing:0.01em;}.cls-12{letter-spacing:0.02em;}.cls-13{letter-spacing:-0.04em;}.cls-14{letter-spacing:-0.03em;}.cls-15{letter-spacing:-0.06em;}.cls-16{letter-spacing:-0.03em;}.cls-17{letter-spacing:-0.08em;}.cls-18{letter-spacing:0.02em;}.cls-19{font-size:38.43px;font-family:NimbusSanL-BoldCondItal, Nimbus Sans L;font-style:italic;}.cls-20,.cls-21,.cls-22{text-decoration:underline;}.cls-21{letter-spacing:-0.03em;}.cls-22{letter-spacing:-0.02em;}.cls-23{letter-spacing:-0.01em;}.cls-24{letter-spacing:-0.01em;}.cls-25{letter-spacing:-0.03em;}</style></defs><title>Asset 36</title><g id="Layer_2" data-name="Layer 2"><g id="Layer_3" data-name="Layer 3"><rect class="cls-1" width="1453.53" height="1120"/><path d="M1300.45,244.08v-40h107.76v40c0,36-27.1,51.88-54.5,51.88S1300.45,279.18,1300.45,244.08Zm77.89,0v-6.32h-48v6.32c0,11.85,9.24,18.47,23.4,18.47C1368.49,262.55,1378.34,256.08,1378.34,244.08Z"/><path d="M1300.45,367.7l36.94-12.47V348h-36.94V314.44h107.76V358c0,22.32-12.16,39.56-36.33,39.56-12.78,0-21.25-4.61-26.48-13.24l-45,20.48Zm78.2-13.08V348h-14.93v6.62c0,7.54,2.92,9.39,7.39,9.39C1375.11,364,1378.65,362.62,1378.65,354.62Z"/><path d="M1300.45,414.2h107.76v33.56H1300.45Z"/><path d="M1300.45,534.74l51.88-31.4h-51.88V469.93h107.76v29.86l-52,31.25h52V564.6H1300.45Z"/><path d="M1300.45,647.12l39.1-19.7-8.78-6.93-30.32-.15V586.78h107.76v33.56h-35.1s2.3,1.08,8.62,4.77l26.48,15.55v41.26l-43.42-30.64-64.34,36.64Z"/><text class="cls-2" transform="translate(79.67 219.58)">ESPRESSO.............................................3<tspan x="0" y="76.87">M</tspan><tspan class="cls-3" x="29.53" y="76.87">A</tspan><tspan x="54" y="76.87">C</tspan><tspan class="cls-4" x="79.6" y="76.87">C</tspan><tspan x="105.24" y="76.87">HI</tspan><tspan class="cls-5" x="140.69" y="76.87">A</tspan><tspan x="163.61" y="76.87">T</tspan><tspan class="cls-6" x="185.27" y="76.87">T</tspan><tspan x="206.54" y="76.87">O.........................................3</tspan><tspan class="cls-7" x="0" y="153.73">C</tspan><tspan x="25.51" y="153.73">ON </tspan><tspan class="cls-8" x="88.55" y="153.73">P</tspan><tspan x="109.99" y="153.73">ANN</tspan><tspan class="cls-9" x="186.78" y="153.73">A</tspan><tspan x="213.11" y="153.73">...........................................4</tspan><tspan class="cls-10" x="0" y="230.6">C</tspan><tspan x="24.77" y="230.6">APPUCCI</tspan><tspan class="cls-11" x="184.32" y="230.6">N</tspan><tspan x="210.17" y="230.6">O.........................................5</tspan><tspan class="cls-12" x="0" y="307.46">L</tspan><tspan class="cls-5" x="22.35" y="307.46">A</tspan><tspan x="45.27" y="307.46">TTE......................................................3</tspan><tspan x="0" y="384.33">MO</tspan><tspan class="cls-4" x="57.12" y="384.33">C</tspan><tspan x="82.75" y="384.33">H</tspan><tspan class="cls-9" x="108.35" y="384.33">A</tspan><tspan x="134.68" y="384.33">....................................................4</tspan><tspan x="0" y="461.19">HOUSE BRE</tspan><tspan class="cls-13" x="210.78" y="461.19">W</tspan><tspan x="242.68" y="461.19">.........................................2</tspan><tspan class="cls-6" x="0" y="538.06">T</tspan><tspan x="21.27" y="538.06">OD</tspan><tspan class="cls-14" x="74.45" y="538.06">D</tspan><tspan class="cls-15" x="98.71" y="538.06">Y</tspan><tspan x="119.55" y="538.06">......................................................4</tspan><tspan x="0" y="614.92">DR</tspan><tspan class="cls-16" x="51.19" y="614.92">A</tspan><tspan x="75.62" y="614.92">GONF</tspan><tspan class="cls-17" x="178.05" y="614.92">L</tspan><tspan x="196.12" y="614.92">Y </tspan><tspan class="cls-4" x="229.63" y="614.92">C</tspan><tspan x="255.27" y="614.92">HAI..................................2</tspan><tspan x="0" y="691.79">MIGH</tspan><tspan class="cls-18" x="92.57" y="691.79">T</tspan><tspan x="115.22" y="691.79">Y LEAF TE</tspan><tspan class="cls-9" x="296.47" y="691.79">A</tspan><tspan x="322.8" y="691.79">.................................3</tspan><tspan x="0" y="768.65">H</tspan><tspan class="cls-6" x="25.6" y="768.65">O</tspan><tspan x="52.79" y="768.65">T </tspan><tspan class="cls-4" x="84.31" y="768.65">C</tspan><tspan x="109.95" y="768.65">HO</tspan><tspan class="cls-7" x="163.13" y="768.65">C</tspan><tspan x="188.64" y="768.65">O</tspan><tspan class="cls-12" x="216.22" y="768.65">L</tspan><tspan class="cls-5" x="238.58" y="768.65">A</tspan><tspan x="261.49" y="768.65">TE/STEAMER................5</tspan></text><text class="cls-19" transform="translate(895.84 230.43)">WE USE <tspan class="cls-20" x="133.09" y="0">EXTR</tspan><tspan class="cls-21" x="217.14" y="0">A</tspan><tspan class="cls-20" x="238.74" y="0">C</tspan><tspan class="cls-22" x="261.49" y="0">T</tspan><tspan class="cls-20" x="280.06" y="0" xml:space="preserve">O </tspan><tspan class="cls-23" x="-58.69" y="46.12">C</tspan><tspan x="-36.4" y="46.12">OFFEE </tspan><tspan class="cls-24" x="77.44" y="46.12">R</tspan><tspan class="cls-25" x="99.77" y="46.12">O</tspan><tspan x="122.95" y="46.12">A</tspan><tspan class="cls-23" x="145.7" y="46.12">S</tspan><tspan x="166.26" y="46.12">TERS BC </tspan><tspan x="-18.91" y="92.24">THEY ARE THE BE</tspan><tspan class="cls-23" x="264.76" y="92.24">S</tspan><tspan x="285.32" y="92.24">T</tspan></text></g></g></svg>