<svg xmlns="http://www.w3.org/2000/svg" viewBox="0 0 1451.14 1223"><defs><style>.cls-1{fill:#ccc7e6;}.cls-19,.cls-2{font-size:37.35px;fill:#231f20;font-family:NimbusSanConL-Bol, Nimbus Sans Cond L;}.cls-3{letter-spacing:0em;}.cls-4{letter-spacing:-0.01em;}.cls-5{letter-spacing:0em;}.cls-6{letter-spacing:-0.01em;}.cls-7{letter-spacing:0em;}.cls-8{letter-spacing:0em;}.cls-9{letter-spacing:-0.03em;}.cls-10{letter-spacing:0.01em;}.cls-11{letter-spacing:-0.06em;}.cls-12{letter-spacing:0.02em;}.cls-13{letter-spacing:-0.01em;}.cls-14{letter-spacing:-0.05em;}.cls-15{letter-spacing:-0.02em;}.cls-16{letter-spacing:-0.01em;}.cls-17{letter-spacing:0em;}.cls-18{letter-spacing:0em;}.cls-19{letter-spacing:0.02em;}.cls-20{letter-spacing:-0.06em;}.cls-21{letter-spacing:0.02em;}.cls-22{letter-spacing:0em;}.cls-23{letter-spacing:-0.01em;}.cls-24{letter-spacing:-0.03em;}.cls-25{letter-spacing:-0.03em;}.cls-26{letter-spacing:-0.08em;}.cls-27{letter-spacing:0.01em;}.cls-28{letter-spacing:0.01em;}.cls-29{letter-spacing:0.02em;}.cls-30{letter-spacing:-0.06em;}.cls-31{font-size:38.37px;font-family:NimbusSanL-BoldCondItal, Nimbus Sans L;font-weight:700;font-style:italic;}.cls-32,.cls-33,.cls-34{text-decoration:underline;}.cls-33{letter-spacing:-0.03em;}.cls-34{letter-spacing:-0.02em;}.cls-35{letter-spacing:-0.01em;}.cls-36{letter-spacing:-0.01em;}.cls-37{letter-spacing:-0.03em;}</style></defs><title>Asset 16</title><g id="Layer_2" data-name="Layer 2"><g id="Layer_3" data-name="Layer 3"><rect class="cls-1" width="1451.14" height="1223"/><path d="M1338.49,120V94.9H1406V120c0,22.57-17,32.5-34.15,32.5S1338.49,142,1338.49,120Zm48.8,0v-4H1357.2v4c0,7.42,5.79,11.57,14.66,11.57C1381.12,131.55,1387.29,127.5,1387.29,120Z"/><path d="M1338.49,197.43l23.15-7.81v-4.53h-23.15v-21H1406v27.29c0,14-7.62,24.79-22.77,24.79-8,0-13.31-2.89-16.59-8.29l-28.16,12.82Zm49-8.2v-4.14h-9.36v4.14c0,4.73,1.83,5.89,4.63,5.89C1385.27,195.12,1387.49,194.25,1387.49,189.23Z"/><path d="M1338.49,226.57H1406v21h-67.52Z"/><path d="M1338.49,302.09l32.5-19.68h-32.5V261.48H1406v18.71l-32.61,19.58H1406v21h-67.52Z"/><path d="M1338.49,372.5l24.5-12.34-5.5-4.34-19-.1v-21H1406v21h-22s1.45.68,5.41,3l16.59,9.74V394.3l-27.21-19.19-40.31,22.95Z"/><text class="cls-2" transform="translate(78.95 99.42)"><tspan class="cls-3">E</tspan><tspan x="20.24" y="0">S</tspan><tspan class="cls-4" x="40.67" y="0">P</tspan><tspan class="cls-5" x="60.69" y="0">R</tspan><tspan class="cls-6" x="82.8" y="0">E</tspan><tspan class="cls-7" x="103.04" y="0">S</tspan><tspan class="cls-8" x="123.62" y="0">S</tspan><tspan x="143.98" y="0">O</tspan></text><text class="cls-2" transform="translate(246.64 99.42)"> </text><text class="cls-2" transform="translate(249.26 99.42)">.................................................</text><text class="cls-2" transform="translate(668.82 99.42)">4</text><text class="cls-2" transform="translate(78.95 164.78)">M<tspan class="cls-9" x="25.51" y="0">A</tspan><tspan class="cls-8" x="46.65" y="0">C</tspan><tspan x="68.68" y="0">C</tspan><tspan class="cls-10" x="90.79" y="0">H</tspan><tspan x="113.24" y="0">I</tspan><tspan class="cls-11" x="121.75" y="0">A</tspan><tspan class="cls-12" x="141.51" y="0">T</tspan><tspan class="cls-13" x="161.12" y="0">T</tspan><tspan x="179.46" y="0">O</tspan></text><text class="cls-2" transform="translate(282.23 164.78)"> </text><text class="cls-2" transform="translate(283.32 164.78)">.............................................</text><text class="cls-2" transform="translate(668.82 164.78)">3</text><text class="cls-2" transform="translate(78.95 230.14)"><tspan class="cls-8">C</tspan><tspan x="22.04" y="0">ON </tspan><tspan class="cls-14" x="76.49" y="0">P</tspan><tspan x="94.98" y="0">ANNA</tspan></text><text class="cls-2" transform="translate(262.37 230.14)"> </text><text class="cls-2" transform="translate(266.29 230.14)">...............................................</text><text class="cls-2" transform="translate(668.82 230.14)">4</text><text class="cls-2" transform="translate(78.95 295.5)"><tspan class="cls-15">C</tspan><tspan x="21.4" y="0">A</tspan><tspan class="cls-16" x="43.51" y="0">P</tspan><tspan class="cls-13" x="63.49" y="0">P</tspan><tspan x="83.55" y="0">U</tspan><tspan class="cls-17" x="105.66" y="0">C</tspan><tspan x="127.73" y="0">CI</tspan><tspan class="cls-18" x="158.36" y="0">N</tspan><tspan x="180.61" y="0">O</tspan></text><text class="cls-2" transform="translate(283.32 295.5)">.............................................</text><text class="cls-2" transform="translate(668.82 295.5)">3</text><text class="cls-19" transform="translate(78.95 360.85)">L<tspan class="cls-20" x="19.31" y="0">A</tspan><tspan class="cls-21" x="39.07" y="0">T</tspan><tspan class="cls-5" x="58.64" y="0">TE</tspan></text><text class="cls-2" transform="translate(176.69 360.85)"> </text><text class="cls-2" transform="translate(181.14 360.85)">.........................................................</text><text class="cls-2" transform="translate(668.82 360.85)">5</text><text class="cls-2" transform="translate(78.95 426.22)">MOC<tspan class="cls-17" x="71.45" y="0">H</tspan><tspan x="93.52" y="0">A</tspan></text><text class="cls-2" transform="translate(194.58 426.22)"> </text><text class="cls-2" transform="translate(198.17 426.22)">.......................................................</text><text class="cls-2" transform="translate(668.82 426.22)">4</text><text class="cls-2" transform="translate(78.95 491.58)">HOUSE BR<tspan class="cls-22" x="161.64" y="0">E</tspan><tspan x="182.11" y="0">W</tspan></text><text class="cls-2" transform="translate(290.04 491.58)"> </text><text class="cls-2" transform="translate(291.83 491.58)">............................................</text><text class="cls-2" transform="translate(668.82 491.58)">5</text><text class="cls-2" transform="translate(78.95 556.93)"><tspan class="cls-23">T</tspan><tspan x="18.38" y="0">OD</tspan><tspan class="cls-24" x="64.31" y="0">D</tspan><tspan x="85.23" y="0">Y</tspan></text><text class="cls-2" transform="translate(184.57 556.93)"> </text><text class="cls-2" transform="translate(189.65 556.93)">........................................................</text><text class="cls-2" transform="translate(668.82 556.93)">3</text><text class="cls-2" transform="translate(78.95 622.29)">D<tspan class="cls-10" x="22.11" y="0">R</tspan><tspan class="cls-25" x="44.56" y="0">A</tspan><tspan x="65.66" y="0">GONF</tspan><tspan class="cls-26" x="154.13" y="0">L</tspan><tspan x="169.75" y="0">Y CHAI</tspan></text><text class="cls-2" transform="translate(352.45 622.29)"> </text><text class="cls-2" transform="translate(359.95 622.29)">....................................</text><text class="cls-2" transform="translate(668.82 622.29)">4</text><text class="cls-2" transform="translate(78.95 687.66)">MI<tspan class="cls-18" x="34.02" y="0">G</tspan><tspan class="cls-5" x="58" y="0">H</tspan><tspan class="cls-21" x="80.11" y="0">T</tspan><tspan class="cls-5" x="99.68" y="0">Y L</tspan><tspan class="cls-27" x="147.34" y="0">E</tspan><tspan x="168.03" y="0">AF T</tspan><tspan class="cls-28" x="236.08" y="0">E</tspan><tspan x="256.8" y="0">A</tspan></text><text class="cls-2" transform="translate(357.9 687.66)"> </text><text class="cls-2" transform="translate(359.95 687.66)">....................................</text><text class="cls-2" transform="translate(668.82 687.66)">5</text><text class="cls-2" transform="translate(78.95 753.01)">H<tspan class="cls-23" x="22.11" y="0">O</tspan><tspan x="45.6" y="0">T CHO</tspan><tspan class="cls-8" x="140.88" y="0">C</tspan><tspan x="162.91" y="0">O</tspan><tspan class="cls-29" x="186.74" y="0">L</tspan><tspan class="cls-30" x="206.05" y="0">A</tspan><tspan x="225.77" y="0">TE/</tspan><tspan class="cls-17" x="273.42" y="0">S</tspan><tspan x="293.81" y="0">T</tspan><tspan class="cls-28" x="312.53" y="0">E</tspan><tspan class="cls-5" x="333.25" y="0">AMER</tspan></text><text class="cls-2" transform="translate(502.22 753.01)"> </text><text class="cls-2" transform="translate(504.71 753.01)">...................</text><text class="cls-2" transform="translate(668.82 753.01)">3</text><text class="cls-31" transform="translate(894.48 121.23)">WE USE <tspan class="cls-32" x="132.87" y="0">EXTR</tspan><tspan class="cls-33" x="216.79" y="0">A</tspan><tspan class="cls-32" x="238.35" y="0">C</tspan><tspan class="cls-34" x="261.07" y="0">T</tspan><tspan class="cls-32" x="279.6" y="0" xml:space="preserve">O </tspan><tspan class="cls-35" x="-58.59" y="46.04">C</tspan><tspan x="-36.33" y="46.04">OFFEE </tspan><tspan class="cls-36" x="77.31" y="46.04">R</tspan><tspan class="cls-37" x="99.61" y="46.04">O</tspan><tspan x="122.74" y="46.04">A</tspan><tspan class="cls-35" x="145.46" y="46.04">S</tspan><tspan x="165.99" y="46.04">TERS BC </tspan><tspan x="-18.88" y="92.09">THEY ARE THE BE</tspan><tspan class="cls-35" x="264.33" y="92.09">S</tspan><tspan x="284.86" y="92.09">T</tspan></text></g></g></svg>