<svg xmlns="http://www.w3.org/2000/svg" viewBox="0 0 245.99 189.55"><defs><style>.cls-1{fill:#bdd2ed;}</style></defs><title>Asset 41</title><g id="Layer_2" data-name="Layer 2"><g id="Layer_3" data-name="Layer 3"><rect class="cls-1" width="245.99" height="189.55"/><path d="M220.08,41.31V34.53h18.24v6.78c0,6.09-4.58,8.78-9.22,8.78S220.08,47.25,220.08,41.31Zm13.19,0V40.24h-8.13v1.07c0,2,1.56,3.12,4,3.12S233.27,43.34,233.27,41.31Z"/><path d="M220.08,62.23l6.26-2.11V58.89h-6.26V53.21h18.24v7.38c0,3.77-2.06,6.69-6.15,6.69A4.79,4.79,0,0,1,227.69,65l-7.61,3.47ZM233.32,60V58.89h-2.53V60c0,1.28.5,1.59,1.25,1.59S233.32,61.37,233.32,60Z"/><path d="M220.08,70.1h18.24v5.68H220.08Z"/><path d="M220.08,90.5l8.78-5.32h-8.78V79.53h18.24v5l-8.81,5.29h8.81v5.68H220.08Z"/><path d="M220.08,109.52l6.62-3.34L225.22,105l-5.14,0V99.31h18.24V105h-5.94s.39.19,1.46.81l4.48,2.63v7L231,110.22l-10.89,6.2Z"/><path d="M17.11,31.91v.93H14.82v1.1h2.1v.93h-2.1v1.36h2.39v.93H13.94V31.91Z"/><path d="M17.72,35.54h.87a.81.81,0,0,0,.93.86,1.09,1.09,0,0,0,.65-.17.61.61,0,0,0,.23-.5.54.54,0,0,0-.16-.4,2,2,0,0,0-.62-.27l-.46-.13a2.36,2.36,0,0,1-1-.47,1.38,1.38,0,0,1-.36-1,1.71,1.71,0,0,1,2.85-1.22,1.9,1.9,0,0,1,.48,1.27h-.86a.94.94,0,0,0-.26-.61.82.82,0,0,0-.6-.19.9.9,0,0,0-.57.17.6.6,0,0,0-.2.47.49.49,0,0,0,.1.34.77.77,0,0,0,.35.2l1.06.32a1.7,1.7,0,0,1,.86.51,1.48,1.48,0,0,1,.26.92,1.62,1.62,0,0,1-.47,1.24,1.72,1.72,0,0,1-1.28.46,1.62,1.62,0,0,1-1.59-.85A2.31,2.31,0,0,1,17.72,35.54Z"/><path d="M22.84,35.26v1.9h-.9V31.91h2a1.23,1.23,0,0,1,1,.44,1.86,1.86,0,0,1,.36,1.19,1.89,1.89,0,0,1-.38,1.25,1.21,1.21,0,0,1-1,.47Zm0-.9h.84c.45,0,.67-.27.67-.8a.79.79,0,0,0-.18-.58.91.91,0,0,0-.61-.17h-.72Z"/><path d="M26,37.16V31.91h2.17a1.27,1.27,0,0,1,1,.4,1.55,1.55,0,0,1,.37,1.09,1.47,1.47,0,0,1-.34,1,.8.8,0,0,1-.32.23.9.9,0,0,1,.45.5,4.41,4.41,0,0,1,.09,1.23,3.27,3.27,0,0,0,0,.48.28.28,0,0,0,.15.17v.14h-1a4.64,4.64,0,0,1-.1-1,1.85,1.85,0,0,0-.1-.76c-.09-.16-.29-.24-.61-.24h-.92v2Zm.88-2.94h1.06a.71.71,0,0,0,.52-.17.75.75,0,0,0,.17-.53.76.76,0,0,0-.16-.53.61.61,0,0,0-.47-.18H26.83Z"/><path d="M33.45,31.91v.93H31.16v1.1h2.1v.93h-2.1v1.36h2.39v.93H30.28V31.91Z"/><path d="M34.06,35.54h.87a.81.81,0,0,0,.93.86,1.09,1.09,0,0,0,.65-.17.61.61,0,0,0,.23-.5.51.51,0,0,0-.16-.4,2,2,0,0,0-.62-.27l-.46-.13a2.36,2.36,0,0,1-1-.47,1.38,1.38,0,0,1-.36-1A1.71,1.71,0,0,1,37,32.2a1.9,1.9,0,0,1,.48,1.27H36.6a1,1,0,0,0-.25-.61.86.86,0,0,0-.61-.19.9.9,0,0,0-.57.17.6.6,0,0,0-.2.47.49.49,0,0,0,.1.34.77.77,0,0,0,.35.2l1.06.32a1.66,1.66,0,0,1,.86.51,1.42,1.42,0,0,1,.26.92,1.65,1.65,0,0,1-.46,1.24,1.75,1.75,0,0,1-1.28.46,1.62,1.62,0,0,1-1.6-.85A2.31,2.31,0,0,1,34.06,35.54Z"/><path d="M38.07,35.54h.86a.82.82,0,0,0,.94.86,1.08,1.08,0,0,0,.64-.17.59.59,0,0,0,.23-.5.51.51,0,0,0-.16-.4,2,2,0,0,0-.62-.27l-.46-.13a2.31,2.31,0,0,1-1-.47,1.35,1.35,0,0,1-.37-1A1.71,1.71,0,0,1,41,32.2a2,2,0,0,1,.49,1.27H40.6a1,1,0,0,0-.25-.61,1,1,0,0,0-1.17,0,.58.58,0,0,0-.21.47.5.5,0,0,0,.11.34.67.67,0,0,0,.35.2l1,.32a1.66,1.66,0,0,1,.86.51,1.42,1.42,0,0,1,.27.92,1.66,1.66,0,0,1-.47,1.24,1.73,1.73,0,0,1-1.28.46,1.62,1.62,0,0,1-1.6-.85A2.32,2.32,0,0,1,38.07,35.54Z"/><path d="M44.2,31.77A1.7,1.7,0,0,1,45,32a1.93,1.93,0,0,1,.66.5,3.22,3.22,0,0,1,.59,2.08,3.21,3.21,0,0,1-.59,2.07,1.93,1.93,0,0,1-2.51.39,1.91,1.91,0,0,1-.73-.83,3.76,3.76,0,0,1-.31-1.63,3.16,3.16,0,0,1,.59-2.08A1.86,1.86,0,0,1,44.2,31.77Zm0,.93a1,1,0,0,0-.87.49A2.4,2.4,0,0,0,43,34.52a2.51,2.51,0,0,0,.31,1.36,1,1,0,0,0,.86.49,1,1,0,0,0,.86-.49,2.55,2.55,0,0,0,.31-1.37,2.16,2.16,0,0,0-.4-1.43A.93.93,0,0,0,44.18,32.7Z"/><path d="M47.78,36.09v1.07h-.9V36.09Z"/><path d="M49.45,36.09v1.07h-.9V36.09Z"/><path d="M51.12,36.09v1.07h-.9V36.09Z"/><path d="M52.79,36.09v1.07h-.9V36.09Z"/><path d="M54.45,36.09v1.07h-.9V36.09Z"/><path d="M56.12,36.09v1.07h-.9V36.09Z"/><path d="M57.79,36.09v1.07h-.9V36.09Z"/><path d="M59.46,36.09v1.07h-.9V36.09Z"/><path d="M61.13,36.09v1.07h-.9V36.09Z"/><path d="M62.79,36.09v1.07h-.9V36.09Z"/><path d="M64.46,36.09v1.07h-.9V36.09Z"/><path d="M66.13,36.09v1.07h-.9V36.09Z"/><path d="M67.8,36.09v1.07h-.9V36.09Z"/><path d="M69.47,36.09v1.07h-.9V36.09Z"/><path d="M71.13,36.09v1.07h-.9V36.09Z"/><path d="M72.8,36.09v1.07h-.9V36.09Z"/><path d="M74.47,36.09v1.07h-.9V36.09Z"/><path d="M76.14,36.09v1.07h-.9V36.09Z"/><path d="M77.81,36.09v1.07h-.9V36.09Z"/><path d="M79.47,36.09v1.07h-.9V36.09Z"/><path d="M81.14,36.09v1.07h-.9V36.09Z"/><path d="M82.81,36.09v1.07h-.9V36.09Z"/><path d="M84.48,36.09v1.07h-.9V36.09Z"/><path d="M86.15,36.09v1.07h-.9V36.09Z"/><path d="M87.81,36.09v1.07h-.9V36.09Z"/><path d="M89.48,36.09v1.07h-.9V36.09Z"/><path d="M91.15,36.09v1.07h-.9V36.09Z"/><path d="M92.82,36.09v1.07h-.9V36.09Z"/><path d="M94.49,36.09v1.07h-.9V36.09Z"/><path d="M96.15,36.09v1.07h-.9V36.09Z"/><path d="M97.82,36.09v1.07h-.9V36.09Z"/><path d="M99.49,36.09v1.07h-.9V36.09Z"/><path d="M101.16,36.09v1.07h-.9V36.09Z"/><path d="M102.83,36.09v1.07h-.9V36.09Z"/><path d="M104.49,36.09v1.07h-.9V36.09Z"/><path d="M106.16,36.09v1.07h-.9V36.09Z"/><path d="M107.83,36.09v1.07h-.9V36.09Z"/><path d="M109.5,36.09v1.07h-.9V36.09Z"/><path d="M111.17,36.09v1.07h-.9V36.09Z"/><path d="M112.83,36.09v1.07h-.9V36.09Z"/><path d="M114.5,36.09v1.07h-.9V36.09Z"/><path d="M116.17,36.09v1.07h-.9V36.09Z"/><path d="M117.84,36.09v1.07h-.9V36.09Z"/><path d="M119.5,36.09v1.07h-.89V36.09Z"/><path d="M121.17,36.09v1.07h-.9V36.09Z"/><path d="M122.84,34.89v-.74H123c.48,0,.71-.22.71-.68a.85.85,0,0,0-.14-.5.48.48,0,0,0-.39-.18q-.57,0-.57.84h-.79a2.24,2.24,0,0,1,.25-1,1.21,1.21,0,0,1,1.14-.62,1.3,1.3,0,0,1,1,.38,1.44,1.44,0,0,1,.37,1,1.12,1.12,0,0,1-.52,1,1.19,1.19,0,0,1,.66,1.22,1.79,1.79,0,0,1-.41,1.21,1.36,1.36,0,0,1-1.07.46,1.31,1.31,0,0,1-1.09-.47,2,2,0,0,1-.37-1.26h.83v.06a1.08,1.08,0,0,0,.16.63.52.52,0,0,0,.45.22.56.56,0,0,0,.46-.23,1,1,0,0,0,.17-.61.71.71,0,0,0-.21-.58A1.26,1.26,0,0,0,122.84,34.89Z"/><path d="M18.07,44.92v5.25h-.83V45.71l-.82,4.46h-.89l-.79-4.46v4.46H13.9V44.92h1.31L16,49.09l.78-4.17Z"/><path d="M19.85,49.09l-.3,1.08H18.6l1.54-5.25h1l1.53,5.25h-1l-.28-1.08Zm.8-3-.56,2.11h1.1Z"/><path d="M26.73,46.64h-.9a2.12,2.12,0,0,0-.21-.56.84.84,0,0,0-.71-.35.92.92,0,0,0-.82.48,2.72,2.72,0,0,0-.29,1.36,2.52,2.52,0,0,0,.29,1.31.88.88,0,0,0,.79.48.83.83,0,0,0,.74-.41,2,2,0,0,0,.21-.58h.9a4.41,4.41,0,0,1-.19.73,2.51,2.51,0,0,1-.29.53,1.65,1.65,0,0,1-1.39.68,1.68,1.68,0,0,1-1.44-.74,3.33,3.33,0,0,1-.53-2,3.47,3.47,0,0,1,.53-2,1.71,1.71,0,0,1,1.46-.75,1.75,1.75,0,0,1,.92.24,1.83,1.83,0,0,1,.66.69A2.43,2.43,0,0,1,26.73,46.64Z"/><path d="M31.06,46.64h-.9a1.82,1.82,0,0,0-.21-.56.83.83,0,0,0-.71-.35.89.89,0,0,0-.81.48,2.61,2.61,0,0,0-.3,1.36,2.52,2.52,0,0,0,.29,1.31.88.88,0,0,0,.79.48A.86.86,0,0,0,30,49a2.38,2.38,0,0,0,.2-.58h.9a4.41,4.41,0,0,1-.19.73,2.13,2.13,0,0,1-.29.53,1.64,1.64,0,0,1-1.38.68,1.7,1.7,0,0,1-1.45-.74,4.08,4.08,0,0,1,0-4,1.7,1.7,0,0,1,1.46-.75,1.72,1.72,0,0,1,1.57.93A2.43,2.43,0,0,1,31.06,46.64Z"/><path d="M34.3,47.81H32.62v2.36h-.9V44.92h.9v2H34.3v-2h.9v5.25h-.9Z"/><path d="M36.91,44.92v5.25H36V44.92Z"/><path d="M38.66,49.09l-.3,1.08h-1L39,44.92h1l1.52,5.25h-1l-.28-1.08Zm.8-3-.55,2.11H40Z"/><path d="M43.46,45.85v4.32h-.9V45.85H41.25v-.93h3.51v.93Z"/><path d="M47.12,45.85v4.32h-.9V45.85h-1.3v-.93h3.5v.93Z"/><path d="M50.8,44.78a1.87,1.87,0,0,1,.8.18,2.16,2.16,0,0,1,.65.51,3.15,3.15,0,0,1,.6,2.07,3.12,3.12,0,0,1-.6,2.07,1.81,1.81,0,0,1-1.48.7,1.88,1.88,0,0,1-1-.3,2,2,0,0,1-.72-.83,3.79,3.79,0,0,1-.32-1.63,3.16,3.16,0,0,1,.6-2.08A1.85,1.85,0,0,1,50.8,44.78Zm0,.93a1,1,0,0,0-.87.48,2.46,2.46,0,0,0-.32,1.34,2.51,2.51,0,0,0,.32,1.36,1,1,0,0,0,.85.49,1,1,0,0,0,.86-.49A2.55,2.55,0,0,0,52,47.52a2.2,2.2,0,0,0-.4-1.43A.91.91,0,0,0,50.79,45.71Z"/><path d="M54.39,49.09v1.08h-.9V49.09Z"/><path d="M56.06,49.09v1.08h-.9V49.09Z"/><path d="M57.72,49.09v1.08h-.89V49.09Z"/><path d="M59.39,49.09v1.08h-.9V49.09Z"/><path d="M61.06,49.09v1.08h-.9V49.09Z"/><path d="M62.73,49.09v1.08h-.9V49.09Z"/><path d="M64.4,49.09v1.08h-.9V49.09Z"/><path d="M66.06,49.09v1.08h-.89V49.09Z"/><path d="M67.73,49.09v1.08h-.9V49.09Z"/><path d="M69.4,49.09v1.08h-.9V49.09Z"/><path d="M71.07,49.09v1.08h-.9V49.09Z"/><path d="M72.74,49.09v1.08h-.9V49.09Z"/><path d="M74.4,49.09v1.08h-.9V49.09Z"/><path d="M76.07,49.09v1.08h-.9V49.09Z"/><path d="M77.74,49.09v1.08h-.9V49.09Z"/><path d="M79.41,49.09v1.08h-.9V49.09Z"/><path d="M81.08,49.09v1.08h-.9V49.09Z"/><path d="M82.74,49.09v1.08h-.9V49.09Z"/><path d="M84.41,49.09v1.08h-.9V49.09Z"/><path d="M86.08,49.09v1.08h-.9V49.09Z"/><path d="M87.75,49.09v1.08h-.9V49.09Z"/><path d="M89.42,49.09v1.08h-.9V49.09Z"/><path d="M91.08,49.09v1.08h-.9V49.09Z"/><path d="M92.75,49.09v1.08h-.9V49.09Z"/><path d="M94.42,49.09v1.08h-.9V49.09Z"/><path d="M96.09,49.09v1.08h-.9V49.09Z"/><path d="M97.76,49.09v1.08h-.9V49.09Z"/><path d="M99.42,49.09v1.08h-.9V49.09Z"/><path d="M101.09,49.09v1.08h-.9V49.09Z"/><path d="M102.76,49.09v1.08h-.9V49.09Z"/><path d="M104.43,49.09v1.08h-.9V49.09Z"/><path d="M106.1,49.09v1.08h-.9V49.09Z"/><path d="M107.76,49.09v1.08h-.9V49.09Z"/><path d="M109.43,49.09v1.08h-.9V49.09Z"/><path d="M111.1,49.09v1.08h-.9V49.09Z"/><path d="M112.77,49.09v1.08h-.9V49.09Z"/><path d="M114.44,49.09v1.08h-.9V49.09Z"/><path d="M116.1,49.09v1.08h-.9V49.09Z"/><path d="M117.77,49.09v1.08h-.9V49.09Z"/><path d="M119.44,49.09v1.08h-.9V49.09Z"/><path d="M121.11,49.09v1.08h-.9V49.09Z"/><path d="M122.78,47.89v-.73h.13c.47,0,.71-.22.71-.68a.78.78,0,0,0-.15-.5.47.47,0,0,0-.39-.19c-.37,0-.56.29-.57.85h-.78a2.34,2.34,0,0,1,.24-1,1.22,1.22,0,0,1,1.14-.63,1.29,1.29,0,0,1,1,.39,1.42,1.42,0,0,1,.37,1,1.12,1.12,0,0,1-.52,1,1.18,1.18,0,0,1,.65,1.21,1.77,1.77,0,0,1-.41,1.21,1.48,1.48,0,0,1-2.16,0,2.1,2.1,0,0,1-.36-1.26h.82v.06a1.12,1.12,0,0,0,.17.63.5.5,0,0,0,.44.22.56.56,0,0,0,.46-.23,1,1,0,0,0,.18-.61.67.67,0,0,0-.22-.58A1.29,1.29,0,0,0,122.78,47.89Z"/><path d="M17.59,59.64h-.9a2,2,0,0,0-.21-.55.82.82,0,0,0-.71-.35.89.89,0,0,0-.81.48,3.17,3.17,0,0,0,0,2.67.88.88,0,0,0,.79.48.83.83,0,0,0,.74-.41,2,2,0,0,0,.21-.58h.9a4.41,4.41,0,0,1-.19.73,2.51,2.51,0,0,1-.29.53,1.65,1.65,0,0,1-1.39.68,1.68,1.68,0,0,1-1.44-.74,3.33,3.33,0,0,1-.53-2,3.4,3.4,0,0,1,.54-2,1.69,1.69,0,0,1,1.46-.75,1.74,1.74,0,0,1,.91.24,1.87,1.87,0,0,1,.66.68A2.54,2.54,0,0,1,17.59,59.64Z"/><path d="M20.17,57.79A1.86,1.86,0,0,1,21,58a2.16,2.16,0,0,1,.65.51,3.87,3.87,0,0,1,0,4.14,1.8,1.8,0,0,1-1.47.7,1.91,1.91,0,0,1-1-.3,2,2,0,0,1-.72-.83,3.79,3.79,0,0,1-.31-1.63,3.16,3.16,0,0,1,.59-2.08A1.86,1.86,0,0,1,20.17,57.79Zm0,.92a1,1,0,0,0-.87.49A2.46,2.46,0,0,0,19,60.54a2.51,2.51,0,0,0,.32,1.36,1,1,0,0,0,.86.49,1,1,0,0,0,.86-.5,2.58,2.58,0,0,0,.31-1.36,2.2,2.2,0,0,0-.4-1.43A.92.92,0,0,0,20.15,58.71Z"/><path d="M25.56,61.61V57.92h.83v5.26H25.5l-1.78-3.77v3.77h-.83V57.92h.94Z"/><path d="M29.82,61.28v1.9h-.9V57.92h2a1.21,1.21,0,0,1,1,.45,1.84,1.84,0,0,1,.36,1.19,1.89,1.89,0,0,1-.38,1.25,1.21,1.21,0,0,1-1,.47Zm0-.9h.84c.45,0,.67-.27.67-.8a.79.79,0,0,0-.18-.58.86.86,0,0,0-.61-.17h-.72Z"/><path d="M33.47,62.1l-.3,1.08h-1l1.53-5.26h1l1.52,5.26h-1l-.27-1.08Zm.8-3-.56,2.11h1.1Z"/><path d="M39.52,61.61V57.92h.83v5.26h-.89l-1.78-3.77v3.77h-.83V57.92h.94Z"/><path d="M43.85,61.61V57.92h.84v5.26h-.9L42,59.41v3.77h-.83V57.92h1Z"/><path d="M46.46,62.1l-.3,1.08h-.95l1.54-5.26h1l1.52,5.26h-1l-.28-1.08Zm.8-3-.55,2.11H47.8Z"/><path d="M50.83,62.1v1.08h-.9V62.1Z"/><path d="M52.5,62.1v1.08h-.9V62.1Z"/><path d="M54.17,62.1v1.08h-.9V62.1Z"/><path d="M55.84,62.1v1.08h-.9V62.1Z"/><path d="M57.5,62.1v1.08h-.9V62.1Z"/><path d="M59.17,62.1v1.08h-.9V62.1Z"/><path d="M60.84,62.1v1.08h-.9V62.1Z"/><path d="M62.51,62.1v1.08h-.9V62.1Z"/><path d="M64.18,62.1v1.08h-.9V62.1Z"/><path d="M65.84,62.1v1.08h-.9V62.1Z"/><path d="M67.51,62.1v1.08h-.9V62.1Z"/><path d="M69.18,62.1v1.08h-.9V62.1Z"/><path d="M70.85,62.1v1.08H70V62.1Z"/><path d="M72.52,62.1v1.08h-.9V62.1Z"/><path d="M74.18,62.1v1.08h-.9V62.1Z"/><path d="M75.85,62.1v1.08H75V62.1Z"/><path d="M77.52,62.1v1.08h-.9V62.1Z"/><path d="M79.19,62.1v1.08h-.9V62.1Z"/><path d="M80.86,62.1v1.08H80V62.1Z"/><path d="M82.52,62.1v1.08h-.9V62.1Z"/><path d="M84.19,62.1v1.08h-.9V62.1Z"/><path d="M85.86,62.1v1.08H85V62.1Z"/><path d="M87.53,62.1v1.08h-.9V62.1Z"/><path d="M89.2,62.1v1.08h-.9V62.1Z"/><path d="M90.86,62.1v1.08H90V62.1Z"/><path d="M92.53,62.1v1.08h-.9V62.1Z"/><path d="M94.2,62.1v1.08h-.9V62.1Z"/><path d="M95.87,62.1v1.08H95V62.1Z"/><path d="M97.54,62.1v1.08h-.9V62.1Z"/><path d="M99.2,62.1v1.08h-.9V62.1Z"/><path d="M100.87,62.1v1.08H100V62.1Z"/><path d="M102.54,62.1v1.08h-.9V62.1Z"/><path d="M104.21,62.1v1.08h-.9V62.1Z"/><path d="M105.88,62.1v1.08H105V62.1Z"/><path d="M107.54,62.1v1.08h-.9V62.1Z"/><path d="M109.21,62.1v1.08h-.9V62.1Z"/><path d="M110.88,62.1v1.08H110V62.1Z"/><path d="M112.55,62.1v1.08h-.9V62.1Z"/><path d="M114.21,62.1v1.08h-.89V62.1Z"/><path d="M115.88,62.1v1.08H115V62.1Z"/><path d="M117.55,62.1v1.08h-.9V62.1Z"/><path d="M119.22,62.1v1.08h-.9V62.1Z"/><path d="M120.89,62.1v1.08H120V62.1Z"/><path d="M124.43,61.24V62H124v1.15h-.83V62h-1.68v-.88L123,58h1v3.26Zm-2.37,0h1.06c0-1.12,0-1.88,0-2.26Z"/><path d="M17.59,72.65h-.9a2,2,0,0,0-.21-.55.82.82,0,0,0-.71-.35.89.89,0,0,0-.81.48,3.17,3.17,0,0,0,0,2.67.87.87,0,0,0,.79.47.81.81,0,0,0,.74-.41,1.8,1.8,0,0,0,.21-.57h.9a4.7,4.7,0,0,1-.19.73,2.78,2.78,0,0,1-.29.53,1.65,1.65,0,0,1-1.39.68,1.68,1.68,0,0,1-1.44-.74,3.34,3.34,0,0,1-.53-2,3.42,3.42,0,0,1,.54-2,1.69,1.69,0,0,1,1.46-.75,1.66,1.66,0,0,1,.91.25,1.87,1.87,0,0,1,.66.68A2.54,2.54,0,0,1,17.59,72.65Z"/><path d="M19.05,75.1l-.3,1.09h-1l1.54-5.26h1l1.52,5.26h-1l-.28-1.09Zm.79-3-.55,2.1h1.09Z"/><path d="M23.36,74.28v1.91h-.9V70.93h2a1.21,1.21,0,0,1,1,.45,1.83,1.83,0,0,1,.36,1.18,1.91,1.91,0,0,1-.38,1.26,1.2,1.2,0,0,1-1,.46Zm0-.9h.84c.45,0,.67-.26.67-.79a.79.79,0,0,0-.18-.58.86.86,0,0,0-.61-.18h-.72Z"/><path d="M27.37,74.28v1.91h-.9V70.93h2a1.21,1.21,0,0,1,1,.45,1.83,1.83,0,0,1,.36,1.18,2,2,0,0,1-.37,1.26,1.22,1.22,0,0,1-1,.46Zm0-.9h.83c.45,0,.67-.26.67-.79a.79.79,0,0,0-.18-.58.84.84,0,0,0-.61-.18h-.71Z"/><path d="M33.92,70.93v3.42a2.21,2.21,0,0,1-.44,1.47,1.65,1.65,0,0,1-1.31.51,1.6,1.6,0,0,1-1.27-.51,2,2,0,0,1-.45-1.4V70.93h.91v3.41a1.25,1.25,0,0,0,.21.78.75.75,0,0,0,.6.28.79.79,0,0,0,.63-.26,1.16,1.16,0,0,0,.21-.75V70.93Z"/><path d="M38.45,72.65h-.9a1.76,1.76,0,0,0-.21-.55.81.81,0,0,0-.71-.35.89.89,0,0,0-.81.48,3.27,3.27,0,0,0,0,2.67.87.87,0,0,0,.79.47.84.84,0,0,0,.75-.41,1.83,1.83,0,0,0,.2-.57h.9a4.7,4.7,0,0,1-.19.73,2.32,2.32,0,0,1-.29.53,1.64,1.64,0,0,1-1.38.68,1.71,1.71,0,0,1-1.45-.74,4.1,4.1,0,0,1,0-4,1.8,1.8,0,0,1,2.38-.5,1.77,1.77,0,0,1,.65.68A2.54,2.54,0,0,1,38.45,72.65Z"/><path d="M42.78,72.65h-.9a1.76,1.76,0,0,0-.21-.55.79.79,0,0,0-.71-.35.92.92,0,0,0-.81.48,2.71,2.71,0,0,0-.29,1.35,2.59,2.59,0,0,0,.28,1.32.88.88,0,0,0,.79.47.84.84,0,0,0,.75-.41,1.61,1.61,0,0,0,.2-.57h.9a3.79,3.79,0,0,1-.19.73,2,2,0,0,1-.29.53,1.64,1.64,0,0,1-1.38.68,1.71,1.71,0,0,1-1.45-.74,4.1,4.1,0,0,1,0-4,1.8,1.8,0,0,1,2.38-.5,1.77,1.77,0,0,1,.65.68A2.21,2.21,0,0,1,42.78,72.65Z"/><path d="M44.29,70.93v5.26h-.9V70.93Z"/><path d="M47.77,74.62V70.93h.83v5.26h-.89l-1.78-3.77v3.77H45.1V70.93H46Z"/><path d="M51.42,70.79a2,2,0,0,1,1.45.7,3.93,3.93,0,0,1,0,4.14,1.83,1.83,0,0,1-1.48.7,1.85,1.85,0,0,1-1-.3,2,2,0,0,1-.73-.83,3.82,3.82,0,0,1-.31-1.63,3.22,3.22,0,0,1,.59-2.08A1.86,1.86,0,0,1,51.42,70.79Zm0,.93a1,1,0,0,0-.87.49,2.42,2.42,0,0,0-.31,1.33,2.53,2.53,0,0,0,.31,1.37,1,1,0,0,0,.86.49,1,1,0,0,0,.86-.5,2.51,2.51,0,0,0,.31-1.36,2.25,2.25,0,0,0-.39-1.44A1,1,0,0,0,51.4,71.72Z"/><path d="M55,75.11v1.08h-.9V75.11Z"/><path d="M56.67,75.11v1.08h-.9V75.11Z"/><path d="M58.34,75.11v1.08h-.9V75.11Z"/><path d="M60,75.11v1.08h-.9V75.11Z"/><path d="M61.68,75.11v1.08h-.9V75.11Z"/><path d="M63.34,75.11v1.08h-.9V75.11Z"/><path d="M65,75.11v1.08h-.9V75.11Z"/><path d="M66.68,75.11v1.08h-.9V75.11Z"/><path d="M68.35,75.11v1.08h-.9V75.11Z"/><path d="M70,75.11v1.08h-.9V75.11Z"/><path d="M71.68,75.11v1.08h-.9V75.11Z"/><path d="M73.35,75.11v1.08h-.9V75.11Z"/><path d="M75,75.11v1.08h-.9V75.11Z"/><path d="M76.69,75.11v1.08h-.9V75.11Z"/><path d="M78.36,75.11v1.08h-.9V75.11Z"/><path d="M80,75.11v1.08h-.9V75.11Z"/><path d="M81.69,75.11v1.08h-.9V75.11Z"/><path d="M83.36,75.11v1.08h-.9V75.11Z"/><path d="M85,75.11v1.08h-.9V75.11Z"/><path d="M86.7,75.11v1.08h-.9V75.11Z"/><path d="M88.36,75.11v1.08h-.9V75.11Z"/><path d="M90,75.11v1.08h-.9V75.11Z"/><path d="M91.7,75.11v1.08h-.9V75.11Z"/><path d="M93.37,75.11v1.08h-.9V75.11Z"/><path d="M95,75.11v1.08h-.9V75.11Z"/><path d="M96.7,75.11v1.08h-.9V75.11Z"/><path d="M98.37,75.11v1.08h-.9V75.11Z"/><path d="M100,75.11v1.08h-.9V75.11Z"/><path d="M101.71,75.11v1.08h-.9V75.11Z"/><path d="M103.38,75.11v1.08h-.9V75.11Z"/><path d="M105,75.11v1.08h-.9V75.11Z"/><path d="M106.71,75.11v1.08h-.9V75.11Z"/><path d="M108.38,75.11v1.08h-.9V75.11Z"/><path d="M110.05,75.11v1.08h-.9V75.11Z"/><path d="M111.71,75.11v1.08h-.89V75.11Z"/><path d="M113.38,75.11v1.08h-.9V75.11Z"/><path d="M115.05,75.11v1.08h-.9V75.11Z"/><path d="M116.72,75.11v1.08h-.9V75.11Z"/><path d="M118.39,75.11v1.08h-.9V75.11Z"/><path d="M120.05,75.11v1.08h-.89V75.11Z"/><path d="M121.72,75.11v1.08h-.9V75.11Z"/><path d="M123.3,71.94l-.15,1.13a1.2,1.2,0,0,1,.75-.29,1.15,1.15,0,0,1,.94.47,1.91,1.91,0,0,1,.37,1.2,2.07,2.07,0,0,1-.42,1.36,1.32,1.32,0,0,1-1.1.52,1.43,1.43,0,0,1-.72-.19,1.32,1.32,0,0,1-.49-.53,2,2,0,0,1-.21-.81h.84c0,.47.25.71.59.71a.55.55,0,0,0,.47-.27,1.32,1.32,0,0,0,.17-.7,1.12,1.12,0,0,0-.17-.68.54.54,0,0,0-.47-.26.6.6,0,0,0-.55.38l-.75,0,.3-2.85H125v.86Z"/><path d="M14.84,83.94v4.3H17v1h-3V83.94Z"/><path d="M18.64,88.11l-.3,1.09h-1l1.54-5.26h1l1.52,5.26h-1l-.28-1.09Zm.79-3-.55,2.1H20Z"/><path d="M23.43,84.87V89.2h-.9V84.87h-1.3v-.93h3.5v.93Z"/><path d="M27.09,84.87V89.2h-.9V84.87h-1.3v-.93H28.4v.93Z"/><path d="M32.1,83.94v.93H29.81V86h2.11v.93H29.81v1.36H32.2v.93H28.93V83.94Z"/><path d="M33.76,88.12V89.2h-.9V88.12Z"/><path d="M35.43,88.12V89.2h-.9V88.12Z"/><path d="M37.1,88.12V89.2h-.9V88.12Z"/><path d="M38.76,88.12V89.2h-.89V88.12Z"/><path d="M40.43,88.12V89.2h-.9V88.12Z"/><path d="M42.1,88.12V89.2h-.9V88.12Z"/><path d="M43.77,88.12V89.2h-.9V88.12Z"/><path d="M45.44,88.12V89.2h-.9V88.12Z"/><path d="M47.1,88.12V89.2h-.89V88.12Z"/><path d="M48.77,88.12V89.2h-.9V88.12Z"/><path d="M50.44,88.12V89.2h-.9V88.12Z"/><path d="M52.11,88.12V89.2h-.9V88.12Z"/><path d="M53.78,88.12V89.2h-.9V88.12Z"/><path d="M55.44,88.12V89.2h-.9V88.12Z"/><path d="M57.11,88.12V89.2h-.9V88.12Z"/><path d="M58.78,88.12V89.2h-.9V88.12Z"/><path d="M60.45,88.12V89.2h-.9V88.12Z"/><path d="M62.12,88.12V89.2h-.9V88.12Z"/><path d="M63.78,88.12V89.2h-.9V88.12Z"/><path d="M65.45,88.12V89.2h-.9V88.12Z"/><path d="M67.12,88.12V89.2h-.9V88.12Z"/><path d="M68.79,88.12V89.2h-.9V88.12Z"/><path d="M70.46,88.12V89.2h-.9V88.12Z"/><path d="M72.12,88.12V89.2h-.9V88.12Z"/><path d="M73.79,88.12V89.2h-.9V88.12Z"/><path d="M75.46,88.12V89.2h-.9V88.12Z"/><path d="M77.13,88.12V89.2h-.9V88.12Z"/><path d="M78.8,88.12V89.2h-.9V88.12Z"/><path d="M80.46,88.12V89.2h-.9V88.12Z"/><path d="M82.13,88.12V89.2h-.9V88.12Z"/><path d="M83.8,88.12V89.2h-.9V88.12Z"/><path d="M85.47,88.12V89.2h-.9V88.12Z"/><path d="M87.14,88.12V89.2h-.9V88.12Z"/><path d="M88.8,88.12V89.2h-.9V88.12Z"/><path d="M90.47,88.12V89.2h-.9V88.12Z"/><path d="M92.14,88.12V89.2h-.9V88.12Z"/><path d="M93.81,88.12V89.2h-.9V88.12Z"/><path d="M95.48,88.12V89.2h-.9V88.12Z"/><path d="M97.14,88.12V89.2h-.9V88.12Z"/><path d="M98.81,88.12V89.2h-.9V88.12Z"/><path d="M100.48,88.12V89.2h-.9V88.12Z"/><path d="M102.15,88.12V89.2h-.9V88.12Z"/><path d="M103.82,88.12V89.2h-.9V88.12Z"/><path d="M105.48,88.12V89.2h-.9V88.12Z"/><path d="M107.15,88.12V89.2h-.9V88.12Z"/><path d="M108.82,88.12V89.2h-.9V88.12Z"/><path d="M110.49,88.12V89.2h-.9V88.12Z"/><path d="M112.16,88.12V89.2h-.9V88.12Z"/><path d="M113.82,88.12V89.2h-.9V88.12Z"/><path d="M115.49,88.12V89.2h-.9V88.12Z"/><path d="M117.16,88.12V89.2h-.9V88.12Z"/><path d="M118.83,88.12V89.2h-.9V88.12Z"/><path d="M120.5,88.12V89.2h-.9V88.12Z"/><path d="M122.16,88.12V89.2h-.9V88.12Z"/><path d="M123.83,86.92v-.73H124c.48,0,.71-.23.71-.68a.76.76,0,0,0-.14-.5.47.47,0,0,0-.39-.19c-.38,0-.57.28-.57.85h-.78a2.14,2.14,0,0,1,.24-1,1.23,1.23,0,0,1,1.14-.62,1.27,1.27,0,0,1,1,.39,1.42,1.42,0,0,1,.37,1,1.13,1.13,0,0,1-.51,1,1.2,1.2,0,0,1,.65,1.22,1.77,1.77,0,0,1-.41,1.21,1.36,1.36,0,0,1-1.07.46,1.34,1.34,0,0,1-1.09-.46,2,2,0,0,1-.37-1.27h.83v.07a1.07,1.07,0,0,0,.16.62.52.52,0,0,0,.45.22.54.54,0,0,0,.46-.23,1,1,0,0,0,.17-.61.68.68,0,0,0-.21-.57A1.18,1.18,0,0,0,123.83,86.92Z"/><path d="M18.07,97v5.25h-.83V97.75l-.82,4.45h-.89l-.79-4.45v4.45H13.9V97h1.31l.79,4.17L16.78,97Z"/><path d="M20.85,96.81a1.73,1.73,0,0,1,.79.19,1.8,1.8,0,0,1,.65.51,3.12,3.12,0,0,1,.6,2.07,3.15,3.15,0,0,1-.6,2.07,1.82,1.82,0,0,1-1.47.69,1.85,1.85,0,0,1-1-.3,1.91,1.91,0,0,1-.73-.83,3.76,3.76,0,0,1-.31-1.63,3.13,3.13,0,0,1,.59-2.07A1.84,1.84,0,0,1,20.85,96.81Zm0,.93a1,1,0,0,0-.87.49,2.42,2.42,0,0,0-.31,1.33,2.49,2.49,0,0,0,.31,1.36,1,1,0,0,0,.86.49,1,1,0,0,0,.86-.49A2.65,2.65,0,0,0,22,99.55a2.16,2.16,0,0,0-.4-1.43A.93.93,0,0,0,20.83,97.74Z"/><path d="M27.25,98.67h-.89a2.11,2.11,0,0,0-.22-.56.82.82,0,0,0-.71-.35.91.91,0,0,0-.81.49,2.65,2.65,0,0,0-.29,1.35,2.53,2.53,0,0,0,.28,1.31.89.89,0,0,0,.79.48.85.85,0,0,0,.75-.41,2,2,0,0,0,.21-.58h.89a4.55,4.55,0,0,1-.18.73,2,2,0,0,1-.3.53,1.61,1.61,0,0,1-1.38.68,1.7,1.7,0,0,1-1.45-.73,4.1,4.1,0,0,1,0-4,1.71,1.71,0,0,1,1.46-.75,1.78,1.78,0,0,1,.92.24,1.73,1.73,0,0,1,.65.69A2.21,2.21,0,0,1,27.25,98.67Z"/><path d="M30.5,99.84H28.81v2.36h-.9V97h.9v2H30.5V97h.9v5.25h-.9Z"/><path d="M33.19,101.12l-.3,1.08h-.95L33.47,97h1L36,102.2h-1l-.28-1.08Zm.8-3-.56,2.11h1.1Z"/><path d="M37.56,101.13v1.07h-.9v-1.07Z"/><path d="M39.23,101.13v1.07h-.9v-1.07Z"/><path d="M40.89,101.13v1.07H40v-1.07Z"/><path d="M42.56,101.13v1.07h-.9v-1.07Z"/><path d="M44.23,101.13v1.07h-.9v-1.07Z"/><path d="M45.9,101.13v1.07H45v-1.07Z"/><path d="M47.57,101.13v1.07h-.9v-1.07Z"/><path d="M49.23,101.13v1.07h-.89v-1.07Z"/><path d="M50.9,101.13v1.07H50v-1.07Z"/><path d="M52.57,101.13v1.07h-.9v-1.07Z"/><path d="M54.24,101.13v1.07h-.9v-1.07Z"/><path d="M55.91,101.13v1.07H55v-1.07Z"/><path d="M57.57,101.13v1.07h-.9v-1.07Z"/><path d="M59.24,101.13v1.07h-.9v-1.07Z"/><path d="M60.91,101.13v1.07H60v-1.07Z"/><path d="M62.58,101.13v1.07h-.9v-1.07Z"/><path d="M64.25,101.13v1.07h-.9v-1.07Z"/><path d="M65.91,101.13v1.07H65v-1.07Z"/><path d="M67.58,101.13v1.07h-.9v-1.07Z"/><path d="M69.25,101.13v1.07h-.9v-1.07Z"/><path d="M70.92,101.13v1.07H70v-1.07Z"/><path d="M72.59,101.13v1.07h-.9v-1.07Z"/><path d="M74.25,101.13v1.07h-.9v-1.07Z"/><path d="M75.92,101.13v1.07H75v-1.07Z"/><path d="M77.59,101.13v1.07h-.9v-1.07Z"/><path d="M79.26,101.13v1.07h-.9v-1.07Z"/><path d="M80.93,101.13v1.07H80v-1.07Z"/><path d="M82.59,101.13v1.07h-.9v-1.07Z"/><path d="M84.26,101.13v1.07h-.9v-1.07Z"/><path d="M85.93,101.13v1.07H85v-1.07Z"/><path d="M87.6,101.13v1.07h-.9v-1.07Z"/><path d="M89.27,101.13v1.07h-.9v-1.07Z"/><path d="M90.93,101.13v1.07H90v-1.07Z"/><path d="M92.6,101.13v1.07h-.9v-1.07Z"/><path d="M94.27,101.13v1.07h-.9v-1.07Z"/><path d="M95.94,101.13v1.07H95v-1.07Z"/><path d="M97.61,101.13v1.07h-.9v-1.07Z"/><path d="M99.27,101.13v1.07h-.9v-1.07Z"/><path d="M100.94,101.13v1.07H100v-1.07Z"/><path d="M102.61,101.13v1.07h-.9v-1.07Z"/><path d="M104.28,101.13v1.07h-.9v-1.07Z"/><path d="M106,101.13v1.07h-.9v-1.07Z"/><path d="M107.61,101.13v1.07h-.9v-1.07Z"/><path d="M109.28,101.13v1.07h-.9v-1.07Z"/><path d="M111,101.13v1.07h-.9v-1.07Z"/><path d="M112.62,101.13v1.07h-.9v-1.07Z"/><path d="M114.29,101.13v1.07h-.9v-1.07Z"/><path d="M116,101.13v1.07h-.9v-1.07Z"/><path d="M117.62,101.13v1.07h-.9v-1.07Z"/><path d="M119.29,101.13v1.07h-.9v-1.07Z"/><path d="M121,101.13v1.07h-.9v-1.07Z"/><path d="M122.63,101.13v1.07h-.9v-1.07Z"/><path d="M126.17,100.26v.79h-.48v1.15h-.83v-1.15h-1.69v-.87L124.74,97h1v3.25Zm-2.37,0h1.06c0-1.12,0-1.87,0-2.26Z"/><path d="M16.49,112.85H14.81v2.36h-.9V110h.9v2h1.68v-2h.9v5.25h-.9Z"/><path d="M20.18,109.82A1.7,1.7,0,0,1,21,110a1.93,1.93,0,0,1,.66.5,3.94,3.94,0,0,1,0,4.15,1.83,1.83,0,0,1-1.48.69,1.88,1.88,0,0,1-1-.3,2,2,0,0,1-.73-.83,3.76,3.76,0,0,1-.31-1.63,3.22,3.22,0,0,1,.59-2.08A1.87,1.87,0,0,1,20.18,109.82Zm0,.93a1,1,0,0,0-.88.49,3.07,3.07,0,0,0,0,2.69,1,1,0,0,0,.86.49,1,1,0,0,0,.86-.49,2.55,2.55,0,0,0,.31-1.37,2.22,2.22,0,0,0-.39-1.43A.92.92,0,0,0,20.17,110.75Z"/><path d="M26.39,110v3.41a2.22,2.22,0,0,1-.44,1.48,1.69,1.69,0,0,1-1.31.5,1.63,1.63,0,0,1-1.27-.5,2,2,0,0,1-.45-1.41V110h.91v3.41a1.29,1.29,0,0,0,.21.78.72.72,0,0,0,.6.27.75.75,0,0,0,.62-.25,1.1,1.1,0,0,0,.22-.75V110Z"/><path d="M27.05,113.59h.86a.83.83,0,0,0,.94.86,1.12,1.12,0,0,0,.65-.17.61.61,0,0,0,.23-.5.51.51,0,0,0-.17-.4,1.87,1.87,0,0,0-.61-.27l-.47-.13a2.37,2.37,0,0,1-1-.47,1.38,1.38,0,0,1-.36-1A1.71,1.71,0,0,1,30,110.25a1.88,1.88,0,0,1,.48,1.27h-.86a.94.94,0,0,0-.26-.61.83.83,0,0,0-.6-.19.9.9,0,0,0-.57.17.6.6,0,0,0-.2.47.49.49,0,0,0,.1.34.77.77,0,0,0,.35.2l1.05.32a1.69,1.69,0,0,1,.87.51,1.48,1.48,0,0,1,.26.92,1.62,1.62,0,0,1-.47,1.24,1.73,1.73,0,0,1-1.28.46,1.62,1.62,0,0,1-1.59-.85A2.31,2.31,0,0,1,27.05,113.59Z"/><path d="M34.44,110v.93H32.15V112h2.11v.93H32.15v1.36h2.39v.93H31.27V110Z"/><path d="M36.94,115.21V110H39a1.29,1.29,0,0,1,1,.36,1.39,1.39,0,0,1,.36,1,1.31,1.31,0,0,1-.13.63,1,1,0,0,1-.4.42,1.21,1.21,0,0,1,.51.49,1.77,1.77,0,0,1,.16.76,1.68,1.68,0,0,1-.38,1.11,1.12,1.12,0,0,1-.51.37,2.65,2.65,0,0,1-.85.1Zm.87-4.35V112h1a.71.71,0,0,0,.48-.15.58.58,0,0,0,.16-.45c0-.37-.22-.55-.66-.55Zm0,2v1.4h1.1c.47,0,.7-.25.7-.74a.68.68,0,0,0-.17-.49.64.64,0,0,0-.48-.17Z"/><path d="M41.28,115.21V110h2.17a1.28,1.28,0,0,1,1,.4,1.55,1.55,0,0,1,.37,1.09,1.47,1.47,0,0,1-.34,1,.77.77,0,0,1-.33.23.88.88,0,0,1,.46.5,4.41,4.41,0,0,1,.09,1.23,3.27,3.27,0,0,0,0,.48.26.26,0,0,0,.15.17v.14h-1a4.64,4.64,0,0,1-.1-1,1.85,1.85,0,0,0-.1-.76c-.09-.16-.29-.24-.61-.24h-.93v2Zm.87-2.94h1.06a.73.73,0,0,0,.53-.17.75.75,0,0,0,.17-.53.76.76,0,0,0-.16-.53.61.61,0,0,0-.47-.18H42.15Z"/><path d="M48.78,110v.93H46.49V112h2.1v.93h-2.1v1.36h2.39v.93H45.61V110Z"/><path d="M50.47,115.21,49.25,110h1c.39,2,.62,3.33.7,3.88.09-.67.29-2,.6-3.88h1c.35,2,.57,3.29.65,3.88.08-.55.32-1.84.71-3.88h.91l-1.21,5.25h-.86c-.34-1.92-.56-3.3-.68-4.13-.25,1.61-.41,2.64-.49,3.09l-.18,1Z"/><path d="M55.84,114.14v1.07h-.9v-1.07Z"/><path d="M57.5,114.14v1.07h-.89v-1.07Z"/><path d="M59.17,114.14v1.07h-.9v-1.07Z"/><path d="M60.84,114.14v1.07h-.9v-1.07Z"/><path d="M62.51,114.14v1.07h-.9v-1.07Z"/><path d="M64.18,114.14v1.07h-.9v-1.07Z"/><path d="M65.84,114.14v1.07H65v-1.07Z"/><path d="M67.51,114.14v1.07h-.9v-1.07Z"/><path d="M69.18,114.14v1.07h-.9v-1.07Z"/><path d="M70.85,114.14v1.07H70v-1.07Z"/><path d="M72.52,114.14v1.07h-.9v-1.07Z"/><path d="M74.18,114.14v1.07h-.89v-1.07Z"/><path d="M75.85,114.14v1.07H75v-1.07Z"/><path d="M77.52,114.14v1.07h-.9v-1.07Z"/><path d="M79.19,114.14v1.07h-.9v-1.07Z"/><path d="M80.86,114.14v1.07H80v-1.07Z"/><path d="M82.52,114.14v1.07h-.89v-1.07Z"/><path d="M84.19,114.14v1.07h-.9v-1.07Z"/><path d="M85.86,114.14v1.07H85v-1.07Z"/><path d="M87.53,114.14v1.07h-.9v-1.07Z"/><path d="M89.2,114.14v1.07h-.9v-1.07Z"/><path d="M90.86,114.14v1.07H90v-1.07Z"/><path d="M92.53,114.14v1.07h-.9v-1.07Z"/><path d="M94.2,114.14v1.07h-.9v-1.07Z"/><path d="M95.87,114.14v1.07H95v-1.07Z"/><path d="M97.54,114.14v1.07h-.9v-1.07Z"/><path d="M99.2,114.14v1.07h-.9v-1.07Z"/><path d="M100.87,114.14v1.07H100v-1.07Z"/><path d="M102.54,114.14v1.07h-.9v-1.07Z"/><path d="M104.21,114.14v1.07h-.9v-1.07Z"/><path d="M105.88,114.14v1.07H105v-1.07Z"/><path d="M107.54,114.14v1.07h-.9v-1.07Z"/><path d="M109.21,114.14v1.07h-.9v-1.07Z"/><path d="M110.88,114.14v1.07H110v-1.07Z"/><path d="M112.55,114.14v1.07h-.9v-1.07Z"/><path d="M114.22,114.14v1.07h-.9v-1.07Z"/><path d="M115.88,114.14v1.07H115v-1.07Z"/><path d="M117.55,114.14v1.07h-.9v-1.07Z"/><path d="M119.22,114.14v1.07h-.9v-1.07Z"/><path d="M120.89,114.14v1.07H120v-1.07Z"/><path d="M122.56,114.14v1.07h-.9v-1.07Z"/><path d="M124,111.85h-.81a3.41,3.41,0,0,1,.06-.71,1.74,1.74,0,0,1,.2-.49,1.22,1.22,0,0,1,1.14-.63,1.36,1.36,0,0,1,1,.45,1.69,1.69,0,0,1,.4,1.18,2,2,0,0,1-.5,1.35c-.07.07-.3.28-.69.62l-.47.43a1.2,1.2,0,0,0-.18.26H126v.9H123.1a2.67,2.67,0,0,1,.29-1.24,5.47,5.47,0,0,1,1.1-1.18,2.57,2.57,0,0,0,.52-.59,1.09,1.09,0,0,0,.15-.56.86.86,0,0,0-.16-.55.54.54,0,0,0-.44-.21.49.49,0,0,0-.45.23A1.61,1.61,0,0,0,124,111.85Z"/><path d="M15.77,123.9v4.32h-.9V123.9H13.56V123h3.51v.93Z"/><path d="M19.45,122.83a1.82,1.82,0,0,1,.79.18,2.09,2.09,0,0,1,.66.51,3.21,3.21,0,0,1,.59,2.07,3.17,3.17,0,0,1-.59,2.07,1.82,1.82,0,0,1-1.48.7,1.85,1.85,0,0,1-1-.3,2,2,0,0,1-.73-.83,3.79,3.79,0,0,1-.31-1.63,3.22,3.22,0,0,1,.59-2.08A1.86,1.86,0,0,1,19.45,122.83Zm0,.93a1,1,0,0,0-.87.48,2.46,2.46,0,0,0-.31,1.34,2.51,2.51,0,0,0,.31,1.36,1,1,0,0,0,.86.49,1,1,0,0,0,.86-.49,2.55,2.55,0,0,0,.31-1.37,2.14,2.14,0,0,0-.4-1.43A.89.89,0,0,0,19.43,123.76Z"/><path d="M22.21,128.22V123h1.9a1.47,1.47,0,0,1,1.29.66,3.18,3.18,0,0,1,.47,1.85,3.46,3.46,0,0,1-.62,2.19,1.44,1.44,0,0,1-1.18.55Zm.88-4.35v3.45H24a.8.8,0,0,0,.73-.48,2.82,2.82,0,0,0,.26-1.33,2.17,2.17,0,0,0-.34-1.37.81.81,0,0,0-.66-.27Z"/><path d="M26.54,128.22V123h1.9a1.5,1.5,0,0,1,1.3.66,3.26,3.26,0,0,1,.46,1.85,3.46,3.46,0,0,1-.62,2.19,1.42,1.42,0,0,1-1.18.55Zm.88-4.35v3.45h.87a.79.79,0,0,0,.73-.48,2.71,2.71,0,0,0,.26-1.33,2.24,2.24,0,0,0-.33-1.37.85.85,0,0,0-.67-.27Z"/><path d="M32.66,126.25v2h-.9v-2L30.28,123h1.06l.89,2.28.86-2.28h1Z"/><path d="M35,127.14v1.08h-.9v-1.08Z"/><path d="M36.67,127.14v1.08h-.9v-1.08Z"/><path d="M38.33,127.14v1.08h-.9v-1.08Z"/><path d="M40,127.14v1.08h-.9v-1.08Z"/><path d="M41.67,127.14v1.08h-.9v-1.08Z"/><path d="M43.34,127.14v1.08h-.9v-1.08Z"/><path d="M45,127.14v1.08h-.9v-1.08Z"/><path d="M46.67,127.14v1.08h-.9v-1.08Z"/><path d="M48.34,127.14v1.08h-.9v-1.08Z"/><path d="M50,127.14v1.08h-.9v-1.08Z"/><path d="M51.68,127.14v1.08h-.9v-1.08Z"/><path d="M53.35,127.14v1.08h-.9v-1.08Z"/><path d="M55,127.14v1.08h-.9v-1.08Z"/><path d="M56.68,127.14v1.08h-.9v-1.08Z"/><path d="M58.35,127.14v1.08h-.9v-1.08Z"/><path d="M60,127.14v1.08h-.9v-1.08Z"/><path d="M61.69,127.14v1.08h-.9v-1.08Z"/><path d="M63.35,127.14v1.08h-.9v-1.08Z"/><path d="M65,127.14v1.08h-.9v-1.08Z"/><path d="M66.69,127.14v1.08h-.9v-1.08Z"/><path d="M68.36,127.14v1.08h-.9v-1.08Z"/><path d="M70,127.14v1.08h-.9v-1.08Z"/><path d="M71.69,127.14v1.08h-.9v-1.08Z"/><path d="M73.36,127.14v1.08h-.9v-1.08Z"/><path d="M75,127.14v1.08h-.9v-1.08Z"/><path d="M76.7,127.14v1.08h-.9v-1.08Z"/><path d="M78.37,127.14v1.08h-.9v-1.08Z"/><path d="M80,127.14v1.08h-.9v-1.08Z"/><path d="M81.7,127.14v1.08h-.9v-1.08Z"/><path d="M83.37,127.14v1.08h-.9v-1.08Z"/><path d="M85,127.14v1.08h-.9v-1.08Z"/><path d="M86.71,127.14v1.08h-.9v-1.08Z"/><path d="M88.37,127.14v1.08h-.9v-1.08Z"/><path d="M90,127.14v1.08h-.9v-1.08Z"/><path d="M91.71,127.14v1.08h-.9v-1.08Z"/><path d="M93.38,127.14v1.08h-.9v-1.08Z"/><path d="M95,127.14v1.08h-.89v-1.08Z"/><path d="M96.71,127.14v1.08h-.9v-1.08Z"/><path d="M98.38,127.14v1.08h-.9v-1.08Z"/><path d="M100.05,127.14v1.08h-.9v-1.08Z"/><path d="M101.72,127.14v1.08h-.9v-1.08Z"/><path d="M103.38,127.14v1.08h-.89v-1.08Z"/><path d="M105.05,127.14v1.08h-.9v-1.08Z"/><path d="M106.72,127.14v1.08h-.9v-1.08Z"/><path d="M108.39,127.14v1.08h-.9v-1.08Z"/><path d="M110.06,127.14v1.08h-.9v-1.08Z"/><path d="M111.72,127.14v1.08h-.89v-1.08Z"/><path d="M113.39,127.14v1.08h-.9v-1.08Z"/><path d="M115.06,127.14v1.08h-.9v-1.08Z"/><path d="M116.73,127.14v1.08h-.9v-1.08Z"/><path d="M118.4,127.14v1.08h-.9v-1.08Z"/><path d="M120.06,127.14v1.08h-.89v-1.08Z"/><path d="M121.73,127.14v1.08h-.9v-1.08Z"/><path d="M123.4,127.14v1.08h-.9v-1.08Z"/><path d="M126.94,126.28v.79h-.47v1.15h-.84v-1.15H124v-.88l1.56-3.17h1v3.26Zm-2.37,0h1.06c0-1.12,0-1.87,0-2.26Z"/><path d="M13.94,141.23V136h1.9a1.5,1.5,0,0,1,1.3.67,3.26,3.26,0,0,1,.46,1.85,3.46,3.46,0,0,1-.62,2.19,1.44,1.44,0,0,1-1.18.55Zm.88-4.36v3.46h.87a.79.79,0,0,0,.73-.48,2.71,2.71,0,0,0,.26-1.33,2.24,2.24,0,0,0-.33-1.37.85.85,0,0,0-.67-.28Z"/><path d="M18.27,141.23V136h2.17a1.26,1.26,0,0,1,1,.41,1.75,1.75,0,0,1,0,2.1,1,1,0,0,1-.33.23.89.89,0,0,1,.46.5,5.27,5.27,0,0,1,.09,1.23,2.15,2.15,0,0,0,0,.47.23.23,0,0,0,.15.18v.14h-1a5.51,5.51,0,0,1-.1-1.06,1.74,1.74,0,0,0-.1-.76c-.08-.15-.29-.23-.6-.23h-.93v2Zm.88-2.94h1.06a.75.75,0,0,0,.53-.17.77.77,0,0,0,.16-.54.75.75,0,0,0-.16-.52.61.61,0,0,0-.46-.19H19.15Z"/><path d="M23.52,140.15l-.3,1.08h-.95L23.8,136h1l1.52,5.26h-1l-.28-1.08Zm.79-3-.55,2.11h1.1Z"/><path d="M28.76,139.29v-.89h1.8v2.83H30l-.09-.66a2,2,0,0,1-.4.46,1.4,1.4,0,0,1-.95.34,1.68,1.68,0,0,1-1.43-.76,3.3,3.3,0,0,1-.54-2,3.35,3.35,0,0,1,.57-2,1.82,1.82,0,0,1,1.53-.75,1.75,1.75,0,0,1,1.64.91,2.42,2.42,0,0,1,.26.86h-.91a1,1,0,0,0-.33-.63.92.92,0,0,0-.63-.24,1,1,0,0,0-.89.51,2.53,2.53,0,0,0-.33,1.39,2.4,2.4,0,0,0,.32,1.33,1,1,0,0,0,.9.47.93.93,0,0,0,.71-.32,1.84,1.84,0,0,0,.38-.83Z"/><path d="M33.31,135.84a1.87,1.87,0,0,1,.8.18,2.16,2.16,0,0,1,.65.51,3.87,3.87,0,0,1,0,4.14,1.8,1.8,0,0,1-1.47.7,1.91,1.91,0,0,1-1-.3,2,2,0,0,1-.72-.83,3.79,3.79,0,0,1-.32-1.63,3.16,3.16,0,0,1,.6-2.08A1.85,1.85,0,0,1,33.31,135.84Zm0,.92a1,1,0,0,0-.87.49,2.46,2.46,0,0,0-.32,1.34,2.51,2.51,0,0,0,.32,1.36,1,1,0,0,0,.86.49,1,1,0,0,0,.86-.5,2.58,2.58,0,0,0,.31-1.36,2.2,2.2,0,0,0-.4-1.43A.92.92,0,0,0,33.3,136.76Z"/><path d="M38.71,139.66V136h.83v5.26h-.89l-1.78-3.77v3.77H36V136H37Z"/><path d="M41.3,139v2.21h-.89V136h3.06v.93H41.3v1.19h1.9V139Z"/><path d="M45,136v4.31h2.15v.95h-3V136Z"/><path d="M49.15,139.26v2h-.9v-2L46.76,136h1.06l.9,2.29.85-2.29h1Z"/><path d="M56.45,137.69h-.9a1.76,1.76,0,0,0-.21-.55.81.81,0,0,0-.71-.35.89.89,0,0,0-.81.48,3.17,3.17,0,0,0,0,2.67.88.88,0,0,0,.79.48.86.86,0,0,0,.75-.41,2.38,2.38,0,0,0,.2-.58h.9a4.41,4.41,0,0,1-.19.73,2.13,2.13,0,0,1-.29.53,1.64,1.64,0,0,1-1.38.68,1.7,1.7,0,0,1-1.45-.74,4.08,4.08,0,0,1,0-4,1.7,1.7,0,0,1,1.46-.75,1.8,1.8,0,0,1,.92.24,1.85,1.85,0,0,1,.65.68A2.54,2.54,0,0,1,56.45,137.69Z"/><path d="M59.69,138.87H58v2.36h-.9V136H58v2h1.68v-2h.9v5.26h-.9Z"/><path d="M62.39,140.15l-.3,1.08h-1L62.67,136h1l1.52,5.26h-1L64,140.15Zm.79-3-.55,2.11h1.09Z"/><path d="M66.63,136v5.26h-.9V136Z"/><path d="M68.3,140.15v1.08h-.9v-1.08Z"/><path d="M70,140.15v1.08h-.9v-1.08Z"/><path d="M71.63,140.15v1.08h-.9v-1.08Z"/><path d="M73.3,140.15v1.08h-.9v-1.08Z"/><path d="M75,140.15v1.08h-.9v-1.08Z"/><path d="M76.64,140.15v1.08h-.9v-1.08Z"/><path d="M78.31,140.15v1.08h-.9v-1.08Z"/><path d="M80,140.15v1.08h-.9v-1.08Z"/><path d="M81.64,140.15v1.08h-.9v-1.08Z"/><path d="M83.31,140.15v1.08h-.9v-1.08Z"/><path d="M85,140.15v1.08h-.9v-1.08Z"/><path d="M86.65,140.15v1.08h-.9v-1.08Z"/><path d="M88.31,140.15v1.08h-.9v-1.08Z"/><path d="M90,140.15v1.08h-.9v-1.08Z"/><path d="M91.65,140.15v1.08h-.9v-1.08Z"/><path d="M93.32,140.15v1.08h-.9v-1.08Z"/><path d="M95,140.15v1.08h-.9v-1.08Z"/><path d="M96.65,140.15v1.08h-.9v-1.08Z"/><path d="M98.32,140.15v1.08h-.9v-1.08Z"/><path d="M100,140.15v1.08h-.9v-1.08Z"/><path d="M101.66,140.15v1.08h-.9v-1.08Z"/><path d="M103.33,140.15v1.08h-.9v-1.08Z"/><path d="M105,140.15v1.08h-.9v-1.08Z"/><path d="M106.66,140.15v1.08h-.9v-1.08Z"/><path d="M108.33,140.15v1.08h-.9v-1.08Z"/><path d="M110,140.15v1.08h-.9v-1.08Z"/><path d="M111.67,140.15v1.08h-.9v-1.08Z"/><path d="M113.33,140.15v1.08h-.9v-1.08Z"/><path d="M115,140.15v1.08h-.9v-1.08Z"/><path d="M116.67,140.15v1.08h-.9v-1.08Z"/><path d="M118.34,140.15v1.08h-.9v-1.08Z"/><path d="M120,140.15v1.08h-.89v-1.08Z"/><path d="M121.67,140.15v1.08h-.9v-1.08Z"/><path d="M123.34,140.15v1.08h-.9v-1.08Z"/><path d="M124.75,137.87h-.82a4,4,0,0,1,.07-.71,1.54,1.54,0,0,1,.2-.5,1.2,1.2,0,0,1,1.13-.63,1.32,1.32,0,0,1,1,.46,1.69,1.69,0,0,1,.41,1.17,1.92,1.92,0,0,1-.51,1.35,9.18,9.18,0,0,1-.69.62c-.24.22-.4.36-.47.44a1,1,0,0,0-.18.26h1.85v.9h-2.91a2.71,2.71,0,0,1,.3-1.25,5.22,5.22,0,0,1,1.1-1.17,3.12,3.12,0,0,0,.52-.6,1.06,1.06,0,0,0,.15-.55.84.84,0,0,0-.17-.55.52.52,0,0,0-.43-.21.48.48,0,0,0-.45.22A1.51,1.51,0,0,0,124.75,137.87Z"/><path d="M18.07,149v5.26h-.83v-4.46l-.82,4.46h-.89l-.79-4.46v4.46H13.9V149h1.31l.79,4.17.78-4.17Z"/><path d="M19.76,149v5.26h-.9V149Z"/><path d="M22.62,152.3v-.9h1.81v2.84h-.6l-.09-.66a2.51,2.51,0,0,1-.4.46,1.39,1.39,0,0,1-.95.33,1.68,1.68,0,0,1-1.43-.75,3.31,3.31,0,0,1-.55-2A3.35,3.35,0,0,1,21,149.6a1.86,1.86,0,0,1,1.54-.76,1.74,1.74,0,0,1,1.63.92,2.43,2.43,0,0,1,.27.85h-.91a1.09,1.09,0,0,0-.34-.62.93.93,0,0,0-.63-.25,1,1,0,0,0-.89.52,2.62,2.62,0,0,0-.32,1.39,2.26,2.26,0,0,0,.32,1.32,1,1,0,0,0,.89.48.93.93,0,0,0,.72-.32,1.74,1.74,0,0,0,.37-.83Z"/><path d="M27.83,151.87H26.14v2.37h-.9V149h.9v2h1.69v-2h.9v5.26h-.9Z"/><path d="M31.43,149.91v4.33h-.9v-4.33h-1.3V149h3.51v.93Z"/><path d="M35.46,152.27v2h-.9v-2L33.07,149h1.06l.9,2.29.85-2.29h1Z"/><path d="M40,149v4.31h2.14v1h-3V149Z"/><path d="M45.94,149v.93H43.65V151h2.11V152H43.65v1.36h2.4v.93H42.78V149Z"/><path d="M47.69,153.15l-.3,1.09h-1L48,149h1l1.52,5.26h-1l-.28-1.09Zm.8-3-.56,2.1H49Z"/><path d="M52,152v2.21h-.9V149h3.07v.93H52v1.19h1.9V152Z"/><path d="M58.27,149.91v4.33h-.9v-4.33h-1.3V149h3.51v.93Z"/><path d="M63.28,149v.93H61V151H63.1V152H61v1.36h2.39v.93H60.11V149Z"/><path d="M65,153.15l-.3,1.09h-1L65.31,149h1l1.52,5.26h-1l-.27-1.09Zm.8-3-.56,2.1h1.1Z"/><path d="M69.4,153.16v1.08h-.9v-1.08Z"/><path d="M71.06,153.16v1.08h-.89v-1.08Z"/><path d="M72.73,153.16v1.08h-.9v-1.08Z"/><path d="M74.4,153.16v1.08h-.9v-1.08Z"/><path d="M76.07,153.16v1.08h-.9v-1.08Z"/><path d="M77.74,153.16v1.08h-.9v-1.08Z"/><path d="M79.4,153.16v1.08h-.9v-1.08Z"/><path d="M81.07,153.16v1.08h-.9v-1.08Z"/><path d="M82.74,153.16v1.08h-.9v-1.08Z"/><path d="M84.41,153.16v1.08h-.9v-1.08Z"/><path d="M86.08,153.16v1.08h-.9v-1.08Z"/><path d="M87.74,153.16v1.08h-.9v-1.08Z"/><path d="M89.41,153.16v1.08h-.9v-1.08Z"/><path d="M91.08,153.16v1.08h-.9v-1.08Z"/><path d="M92.75,153.16v1.08h-.9v-1.08Z"/><path d="M94.42,153.16v1.08h-.9v-1.08Z"/><path d="M96.08,153.16v1.08h-.9v-1.08Z"/><path d="M97.75,153.16v1.08h-.9v-1.08Z"/><path d="M99.42,153.16v1.08h-.9v-1.08Z"/><path d="M101.09,153.16v1.08h-.9v-1.08Z"/><path d="M102.76,153.16v1.08h-.9v-1.08Z"/><path d="M104.42,153.16v1.08h-.9v-1.08Z"/><path d="M106.09,153.16v1.08h-.9v-1.08Z"/><path d="M107.76,153.16v1.08h-.9v-1.08Z"/><path d="M109.43,153.16v1.08h-.9v-1.08Z"/><path d="M111.1,153.16v1.08h-.9v-1.08Z"/><path d="M112.76,153.16v1.08h-.9v-1.08Z"/><path d="M114.43,153.16v1.08h-.9v-1.08Z"/><path d="M116.1,153.16v1.08h-.9v-1.08Z"/><path d="M117.77,153.16v1.08h-.9v-1.08Z"/><path d="M119.44,153.16v1.08h-.9v-1.08Z"/><path d="M121.1,153.16v1.08h-.9v-1.08Z"/><path d="M122.77,153.16v1.08h-.9v-1.08Z"/><path d="M124.44,152v-.73h.13a.62.62,0,0,0,.71-.68.82.82,0,0,0-.14-.5.47.47,0,0,0-.39-.19c-.38,0-.57.28-.57.85h-.79a2.39,2.39,0,0,1,.24-1.05,1.23,1.23,0,0,1,1.15-.62,1.27,1.27,0,0,1,1,.39,1.42,1.42,0,0,1,.37,1,1.13,1.13,0,0,1-.52,1,1.17,1.17,0,0,1,.65,1.21,1.72,1.72,0,0,1-.41,1.21,1.49,1.49,0,0,1-2.15,0,2,2,0,0,1-.37-1.27h.83v.07a1.13,1.13,0,0,0,.16.63.53.53,0,0,0,.44.22.55.55,0,0,0,.46-.23,1,1,0,0,0,.18-.62.66.66,0,0,0-.22-.57A1.19,1.19,0,0,0,124.44,152Z"/><path d="M16.49,164.88H14.81v2.37h-.9V162h.9v2h1.68v-2h.9v5.26h-.9Z"/><path d="M20.18,161.85A1.7,1.7,0,0,1,21,162a1.84,1.84,0,0,1,.66.51,3.93,3.93,0,0,1,0,4.14,1.83,1.83,0,0,1-1.48.69,1.88,1.88,0,0,1-1-.3,2.08,2.08,0,0,1-.73-.82,3.82,3.82,0,0,1-.31-1.63,3.22,3.22,0,0,1,.59-2.08A1.85,1.85,0,0,1,20.18,161.85Zm0,.93a1,1,0,0,0-.88.49,3.07,3.07,0,0,0,0,2.69,1,1,0,0,0,.86.49A1,1,0,0,0,21,166a2.51,2.51,0,0,0,.31-1.36,2.25,2.25,0,0,0-.39-1.44A1,1,0,0,0,20.17,162.78Z"/><path d="M24.7,162.92v4.33h-.9v-4.33H22.5V162H26v.93Z"/><path d="M31.86,163.71H31a2.44,2.44,0,0,0-.21-.55.83.83,0,0,0-.71-.36.93.93,0,0,0-.82.49,2.65,2.65,0,0,0-.29,1.35,2.58,2.58,0,0,0,.29,1.32.88.88,0,0,0,.79.47.81.81,0,0,0,.74-.41,1.9,1.9,0,0,0,.21-.57h.9a4.7,4.7,0,0,1-.19.73,2.44,2.44,0,0,1-.29.52,1.62,1.62,0,0,1-1.39.68,1.67,1.67,0,0,1-1.44-.73,3.34,3.34,0,0,1-.53-2,3.49,3.49,0,0,1,.53-2,1.71,1.71,0,0,1,1.46-.75,1.75,1.75,0,0,1,.92.24,1.83,1.83,0,0,1,.66.69A2.54,2.54,0,0,1,31.86,163.71Z"/><path d="M35.1,164.88H33.42v2.37h-.9V162h.9v2H35.1v-2H36v5.26h-.9Z"/><path d="M38.79,161.85a1.7,1.7,0,0,1,.79.19,1.84,1.84,0,0,1,.66.51,3.93,3.93,0,0,1,0,4.14,1.93,1.93,0,0,1-2.51.39,1.94,1.94,0,0,1-.73-.82,3.82,3.82,0,0,1-.31-1.63,3.16,3.16,0,0,1,.59-2.08A1.84,1.84,0,0,1,38.79,161.85Zm0,.93a1,1,0,0,0-.87.49,2.42,2.42,0,0,0-.31,1.33A2.49,2.49,0,0,0,37.9,166a1,1,0,0,0,.86.49,1,1,0,0,0,.86-.49,2.51,2.51,0,0,0,.31-1.36,2.19,2.19,0,0,0-.4-1.44A.93.93,0,0,0,38.77,162.78Z"/><path d="M45.2,163.71h-.9a2.44,2.44,0,0,0-.21-.55.83.83,0,0,0-.71-.36.93.93,0,0,0-.82.49,2.65,2.65,0,0,0-.29,1.35,2.58,2.58,0,0,0,.29,1.32.88.88,0,0,0,.79.47.81.81,0,0,0,.74-.41,1.9,1.9,0,0,0,.21-.57h.9a4.7,4.7,0,0,1-.19.73,2.12,2.12,0,0,1-.3.52,1.59,1.59,0,0,1-1.38.68,1.67,1.67,0,0,1-1.44-.73,3.34,3.34,0,0,1-.53-2,3.42,3.42,0,0,1,.53-2,1.71,1.71,0,0,1,1.46-.75,1.78,1.78,0,0,1,.92.24,1.83,1.83,0,0,1,.66.69A2.54,2.54,0,0,1,45.2,163.71Z"/><path d="M47.77,161.85a1.74,1.74,0,0,1,.8.19,1.89,1.89,0,0,1,.65.51,3.93,3.93,0,0,1,0,4.14,1.83,1.83,0,0,1-1.48.69,1.88,1.88,0,0,1-1-.3,2,2,0,0,1-.72-.82,3.82,3.82,0,0,1-.32-1.63,3.16,3.16,0,0,1,.6-2.08A1.83,1.83,0,0,1,47.77,161.85Zm0,.93a1,1,0,0,0-.87.49,2.42,2.42,0,0,0-.32,1.33,2.58,2.58,0,0,0,.31,1.36,1,1,0,0,0,.86.49,1,1,0,0,0,.86-.49,2.51,2.51,0,0,0,.31-1.36,2.25,2.25,0,0,0-.39-1.44A.93.93,0,0,0,47.76,162.78Z"/><path d="M51.43,162v4.3h2.15v1h-3V162Z"/><path d="M55.23,166.16l-.3,1.09H54L55.51,162h1l1.53,5.26h-1l-.27-1.09Zm.8-3-.56,2.1h1.1Z"/><path d="M60,162.92v4.33h-.9v-4.33h-1.3V162h3.5v.93Z"/><path d="M65,162v.93H62.74V164h2.1V165h-2.1v1.37h2.39v.93H61.86V162Z"/><path d="M67.27,161.85l-1.36,5.53h-.7l1.36-5.53Z"/><path d="M67.31,165.63h.86a.82.82,0,0,0,.94.85,1,1,0,0,0,.65-.17.6.6,0,0,0,.23-.5.48.48,0,0,0-.17-.39,1.51,1.51,0,0,0-.62-.27l-.46-.14a2.26,2.26,0,0,1-1-.47,1.38,1.38,0,0,1-.36-1,1.64,1.64,0,0,1,.43-1.21,1.62,1.62,0,0,1,1.2-.44,1.67,1.67,0,0,1,1.22.44,1.86,1.86,0,0,1,.48,1.26h-.86a1,1,0,0,0-.26-.61.88.88,0,0,0-.6-.19.9.9,0,0,0-.57.17.6.6,0,0,0-.2.47.52.52,0,0,0,.1.35.81.81,0,0,0,.35.2l1,.31a1.74,1.74,0,0,1,.87.51,1.48,1.48,0,0,1,.26.92,1.68,1.68,0,0,1-.47,1.25,1.77,1.77,0,0,1-1.28.45,1.61,1.61,0,0,1-1.59-.85A2.14,2.14,0,0,1,67.31,165.63Z"/><path d="M73.36,162.92v4.33h-.9v-4.33h-1.3V162h3.5v.93Z"/><path d="M78.37,162v.93H76.08V164h2.1V165h-2.1v1.37h2.39v.93H75.2V162Z"/><path d="M80.12,166.16l-.3,1.09h-1L80.4,162h1L83,167.25H82l-.28-1.09Zm.79-3-.55,2.1h1.09Z"/><path d="M87.67,162v5.26h-.84v-4.46L86,167.25h-.88l-.8-4.46v4.46H83.5V162h1.31l.79,4.17.77-4.17Z"/><path d="M91.7,162v.93H89.41V164h2.11V165H89.41v1.37H91.8v.93H88.53V162Z"/><path d="M92.53,167.25V162h2.18a1.29,1.29,0,0,1,1,.41,1.57,1.57,0,0,1,.37,1.08,1.47,1.47,0,0,1-.34,1,.88.88,0,0,1-.33.24.86.86,0,0,1,.46.5,4.71,4.71,0,0,1,.09,1.22,3.13,3.13,0,0,0,0,.48.27.27,0,0,0,.15.18v.14h-1a4.71,4.71,0,0,1-.11-1.06,2,2,0,0,0-.09-.76c-.09-.16-.29-.23-.61-.23h-.93v2.05Zm.88-2.95h1.06a.69.69,0,0,0,.53-.17.73.73,0,0,0,.17-.53.78.78,0,0,0-.17-.53.59.59,0,0,0-.46-.18H93.41Z"/><path d="M97.69,166.17v1.08h-.9v-1.08Z"/><path d="M99.36,166.17v1.08h-.9v-1.08Z"/><path d="M101,166.17v1.08h-.9v-1.08Z"/><path d="M102.7,166.17v1.08h-.9v-1.08Z"/><path d="M104.36,166.17v1.08h-.9v-1.08Z"/><path d="M106,166.17v1.08h-.9v-1.08Z"/><path d="M107.7,166.17v1.08h-.9v-1.08Z"/><path d="M109.37,166.17v1.08h-.9v-1.08Z"/><path d="M111,166.17v1.08h-.9v-1.08Z"/><path d="M112.7,166.17v1.08h-.9v-1.08Z"/><path d="M114.37,166.17v1.08h-.9v-1.08Z"/><path d="M116,166.17v1.08h-.9v-1.08Z"/><path d="M117.71,166.17v1.08h-.9v-1.08Z"/><path d="M119.38,166.17v1.08h-.9v-1.08Z"/><path d="M121,166.17v1.08h-.9v-1.08Z"/><path d="M122.71,166.17v1.08h-.9v-1.08Z"/><path d="M124.29,163l-.15,1.13a1.2,1.2,0,0,1,.74-.29,1.15,1.15,0,0,1,1,.47,1.9,1.9,0,0,1,.36,1.2,2.06,2.06,0,0,1-.41,1.36,1.33,1.33,0,0,1-1.1.51,1.43,1.43,0,0,1-.72-.18,1.32,1.32,0,0,1-.49-.53,2,2,0,0,1-.21-.82h.84c.05.48.25.71.59.71a.54.54,0,0,0,.47-.26,1.32,1.32,0,0,0,.17-.7,1.26,1.26,0,0,0-.17-.69.56.56,0,0,0-.47-.25.6.6,0,0,0-.55.38l-.75,0,.29-2.85H126V163Z"/><path d="M152.77,39l-.26-4.67h.85c0,1.16,0,2,0,2.54,0,.2,0,.5,0,.91q.31-1,1.14-3.45h.85c0,1.81,0,3,0,3.45q.16-.57,1.23-3.45h.81L155.49,39h-.77c0-1.75,0-3,0-3.68-.55,1.69-.86,2.6-.92,2.75l-.32.93Z"/><path d="M160.68,34.33l-.15.82h-2l-.17,1h1.87l-.15.82h-1.87l-.2,1.21h2.12L160,39h-2.9l.81-4.67Z"/><path d="M166,34.33l-.53,3a2.27,2.27,0,0,1-.62,1.3,1.7,1.7,0,0,1-1.22.45,1.31,1.31,0,0,1-1-.32,1.19,1.19,0,0,1-.33-.9,2.59,2.59,0,0,1,0-.48l.54-3.09h.81l-.53,3c0,.13,0,.22,0,.29,0,.43.19.65.58.65s.79-.3.89-.9l.54-3.07Z"/><path d="M166,37.56h.76c0,.1,0,.15,0,.18a.48.48,0,0,0,.19.42.75.75,0,0,0,.52.16,1,1,0,0,0,.65-.2.6.6,0,0,0,.24-.51.32.32,0,0,0-.13-.27,1.5,1.5,0,0,0-.47-.21l-.39-.12a1.87,1.87,0,0,1-.75-.34.9.9,0,0,1-.26-.68,1.87,1.87,0,0,1,.39-1.17,1.59,1.59,0,0,1,1.35-.62,1.17,1.17,0,0,1,1.07.49,1.29,1.29,0,0,1,.2.69,2,2,0,0,1,0,.33h-.76v-.13a.49.49,0,0,0-.17-.42.69.69,0,0,0-.48-.15.84.84,0,0,0-.57.19.64.64,0,0,0-.22.49.34.34,0,0,0,.08.23.69.69,0,0,0,.26.14l.88.28a1.3,1.3,0,0,1,.62.36.93.93,0,0,1,.19.59A2,2,0,0,1,169,38a1.81,1.81,0,0,1-.38.6,1.79,1.79,0,0,1-1.33.51,1.28,1.28,0,0,1-1.16-.51,1.23,1.23,0,0,1-.19-.67C166,37.86,166,37.73,166,37.56Z"/><path d="M173.13,34.33l-.15.82h-2l-.17,1h1.86l-.14.82h-1.87l-.2,1.21h2.12l-.15.83h-2.9l.81-4.67Z"/><path d="M178.17,34.33l-.15.82h-2l-.17,1h1.87l-.15.82h-1.87l-.2,1.21h2.12l-.15.83h-2.9l.81-4.67Z"/><path d="M180.34,36.57l.83,2.43h-1l-.45-1.6L178.7,39h-.94l1.66-2.39-.77-2.28h.95l.42,1.51,1-1.51h.93Z"/><path d="M184,35.15,183.28,39h-.8l.67-3.85H182l.14-.82h3.12l-.14.82Z"/><path d="M184.91,39l.81-4.67h1.94a1,1,0,0,1,.74.27,1.06,1.06,0,0,1,.26.76,1.64,1.64,0,0,1-.36,1.06,1.28,1.28,0,0,1-.45.34.77.77,0,0,1,.26.24.7.7,0,0,1,.08.35,7.08,7.08,0,0,1-.12.95,1.8,1.8,0,0,0,0,.37.2.2,0,0,0,.11.2l0,.13h-.89v-.18a4.54,4.54,0,0,1,.09-.77,3,3,0,0,0,.06-.48.36.36,0,0,0-.12-.31.71.71,0,0,0-.41-.09H186L185.69,39Zm1.24-2.62h.94a.64.64,0,0,0,.59-.26.91.91,0,0,0,.15-.54c0-.3-.15-.45-.47-.45h-1Z"/><path d="M189.74,38l-.43,1h-.85l2.19-4.67h.92L192.1,39h-.87l-.07-1Zm1.18-2.68-.83,1.87h1Z"/><path d="M196.22,35.86h-.81a1.2,1.2,0,0,0-.11-.5.57.57,0,0,0-.57-.31,1,1,0,0,0-.88.54,2.85,2.85,0,0,0-.31.76,3.69,3.69,0,0,0-.12.92,1.21,1.21,0,0,0,.19.74.6.6,0,0,0,.53.27.92.92,0,0,0,.73-.37,2,2,0,0,0,.27-.51h.8a4.3,4.3,0,0,1-.28.65,2.43,2.43,0,0,1-.34.47,1.76,1.76,0,0,1-1.34.6,1.28,1.28,0,0,1-1-.38,1.58,1.58,0,0,1-.3-.55,2.37,2.37,0,0,1-.11-.76,4.56,4.56,0,0,1,.19-1.31,3.4,3.4,0,0,1,.53-1.08,1.88,1.88,0,0,1,1.55-.84,1.31,1.31,0,0,1,1,.39,1.43,1.43,0,0,1,.37,1Z"/><path d="M198.56,35.15,197.89,39h-.8l.67-3.85h-1.15l.14-.82h3.11l-.14.82Z"/><path d="M201.93,34.2a1.43,1.43,0,0,1,1,.43,1.75,1.75,0,0,1,.43,1.28,4.45,4.45,0,0,1-.2,1.29,3.16,3.16,0,0,1-.5,1.06,2.33,2.33,0,0,1-.74.63,1.84,1.84,0,0,1-.91.23,1.36,1.36,0,0,1-1.08-.46,1.9,1.9,0,0,1-.39-1.26,4.14,4.14,0,0,1,.2-1.27,3.27,3.27,0,0,1,.5-1.06,2.29,2.29,0,0,1,.75-.64A1.88,1.88,0,0,1,201.93,34.2Zm-.15.83a1.05,1.05,0,0,0-.6.2,1.61,1.61,0,0,0-.46.56,3.25,3.25,0,0,0-.32,1.45,1.26,1.26,0,0,0,.21.77.73.73,0,0,0,.6.29,1.17,1.17,0,0,0,1-.64,3,3,0,0,0,.39-1.57,1.29,1.29,0,0,0-.21-.78A.69.69,0,0,0,201.78,35Z"/><path d="M174.13,40v-.32h29V40Z"/><path d="M145.88,43.66h-.81a1.34,1.34,0,0,0-.1-.49.59.59,0,0,0-.57-.32,1,1,0,0,0-.88.54,2.52,2.52,0,0,0-.31.77,3.23,3.23,0,0,0-.13.91,1.26,1.26,0,0,0,.19.75.63.63,0,0,0,.53.26.9.9,0,0,0,.73-.36,1.89,1.89,0,0,0,.28-.52h.8a4.37,4.37,0,0,1-.29.66,2.72,2.72,0,0,1-.34.46,1.75,1.75,0,0,1-1.33.61,1.3,1.3,0,0,1-1-.38,1.49,1.49,0,0,1-.31-.56,2.61,2.61,0,0,1-.11-.75,4.65,4.65,0,0,1,.2-1.32,3.39,3.39,0,0,1,.52-1.08,1.92,1.92,0,0,1,1.56-.83,1.3,1.3,0,0,1,1,.39,1.42,1.42,0,0,1,.37,1Z"/><path d="M148.37,42a1.44,1.44,0,0,1,1,.42,1.76,1.76,0,0,1,.42,1.29,4.43,4.43,0,0,1-.19,1.29,3.21,3.21,0,0,1-.51,1.05,2.16,2.16,0,0,1-.74.64,1.94,1.94,0,0,1-.9.23,1.34,1.34,0,0,1-1.08-.47,1.81,1.81,0,0,1-.4-1.25,4.54,4.54,0,0,1,.2-1.28,3.38,3.38,0,0,1,.5-1.06,2.26,2.26,0,0,1,.75-.63A1.83,1.83,0,0,1,148.37,42Zm-.15.82a1,1,0,0,0-.59.21,1.43,1.43,0,0,0-.46.56,3.06,3.06,0,0,0-.33,1.44,1.23,1.23,0,0,0,.22.78.69.69,0,0,0,.59.28,1.13,1.13,0,0,0,1-.64,3,3,0,0,0,.4-1.56,1.23,1.23,0,0,0-.22-.78A.7.7,0,0,0,148.22,42.83Z"/><path d="M151.15,44.84l-.35,2H150l.81-4.67h2.73l-.14.83h-1.93l-.18,1H153l-.14.83Z"/><path d="M154.41,44.84l-.35,2h-.8l.81-4.67h2.73l-.14.83h-1.93l-.18,1h1.68l-.14.83Z"/><path d="M160.15,42.13,160,43h-2l-.17,1h1.87l-.15.83h-1.86L157.45,46h2.12l-.14.82h-2.91l.81-4.67Z"/><path d="M163.71,42.13l-.15.83h-2l-.17,1h1.87l-.15.83h-1.87L161,46h2.12l-.15.82h-2.9l.81-4.67Z"/><path d="M165.12,46.8l.81-4.67h1.94a1,1,0,0,1,.73.27,1,1,0,0,1,.26.77,1.6,1.6,0,0,1-.35,1,1.3,1.3,0,0,1-.45.35.68.68,0,0,1,.26.24.66.66,0,0,1,.08.34,7.26,7.26,0,0,1-.13,1,3.15,3.15,0,0,0,0,.37.22.22,0,0,0,.11.21l0,.12h-.89v-.17a4.43,4.43,0,0,1,.09-.77,3,3,0,0,0,.06-.49.36.36,0,0,0-.12-.31A.73.73,0,0,0,167,45h-.82l-.32,1.83Zm1.24-2.61h.94a.68.68,0,0,0,.59-.26,1,1,0,0,0,.15-.54c0-.3-.16-.45-.47-.45h-1Z"/><path d="M171.41,42a1.42,1.42,0,0,1,1.05.42,1.76,1.76,0,0,1,.42,1.29,4.43,4.43,0,0,1-.19,1.29,3.21,3.21,0,0,1-.5,1.05,2.29,2.29,0,0,1-.75.64,1.88,1.88,0,0,1-.9.23,1.36,1.36,0,0,1-1.08-.47,1.85,1.85,0,0,1-.39-1.25,4.51,4.51,0,0,1,.19-1.28,3.61,3.61,0,0,1,.51-1.06,2.33,2.33,0,0,1,.74-.63A1.83,1.83,0,0,1,171.41,42Zm-.15.82a1,1,0,0,0-.59.21,1.53,1.53,0,0,0-.46.56,3.05,3.05,0,0,0-.32,1.44,1.29,1.29,0,0,0,.21.78.7.7,0,0,0,.6.28,1.12,1.12,0,0,0,1-.64,2.87,2.87,0,0,0,.4-1.56,1.29,1.29,0,0,0-.21-.78A.72.72,0,0,0,171.26,42.83Z"/><path d="M173.8,45.84l-.43,1h-.85l2.19-4.67h.92l.53,4.67h-.87l-.08-1ZM175,43.17,174.15,45h1Z"/><path d="M176.73,45.37h.77c0,.09,0,.15,0,.17a.5.5,0,0,0,.19.43.81.81,0,0,0,.52.15,1,1,0,0,0,.65-.19.63.63,0,0,0,.24-.51.33.33,0,0,0-.13-.28,1.69,1.69,0,0,0-.47-.2l-.39-.12a1.85,1.85,0,0,1-.75-.35.88.88,0,0,1-.25-.68,1.86,1.86,0,0,1,.38-1.16,1.59,1.59,0,0,1,1.35-.62,1.19,1.19,0,0,1,1.08.48,1.34,1.34,0,0,1,.19.7c0,.1,0,.21,0,.33h-.77v-.14a.51.51,0,0,0-.17-.42.69.69,0,0,0-.48-.14.84.84,0,0,0-.56.18.61.61,0,0,0-.22.49.32.32,0,0,0,.07.23.57.57,0,0,0,.26.14l.88.28a1.26,1.26,0,0,1,.62.36.88.88,0,0,1,.19.6,2,2,0,0,1-.14.72,1.71,1.71,0,0,1-.38.59,1.78,1.78,0,0,1-1.33.52,1.28,1.28,0,0,1-1.16-.52,1.21,1.21,0,0,1-.18-.66A3.65,3.65,0,0,1,176.73,45.37Z"/><path d="M182.45,43l-.67,3.84H181l.67-3.84h-1.16l.14-.83h3.12l-.15.83Z"/><path d="M187,42.13l-.15.83h-2l-.17,1h1.87l-.15.83h-1.86L184.34,46h2.12l-.14.82h-2.91l.81-4.67Z"/><path d="M187,46.8l.81-4.67h1.94a1,1,0,0,1,.73.27,1,1,0,0,1,.26.77,1.61,1.61,0,0,1-.36,1,1.36,1.36,0,0,1-.44.35.68.68,0,0,1,.26.24.66.66,0,0,1,.07.34,6.73,6.73,0,0,1-.12,1,1.87,1.87,0,0,0,0,.37.22.22,0,0,0,.11.21l0,.12h-.89v-.17a3.76,3.76,0,0,1,.1-.77,2.75,2.75,0,0,0,0-.49.36.36,0,0,0-.12-.31.69.69,0,0,0-.41-.09h-.82l-.32,1.83Zm1.24-2.61h.93a.69.69,0,0,0,.6-.26,1,1,0,0,0,.15-.54c0-.3-.16-.45-.47-.45h-1Z"/><path d="M190.88,45.37h.76a1.49,1.49,0,0,0,0,.17.52.52,0,0,0,.18.43.84.84,0,0,0,.53.15,1,1,0,0,0,.65-.19.63.63,0,0,0,.24-.51.33.33,0,0,0-.13-.28,1.84,1.84,0,0,0-.47-.2l-.39-.12a1.85,1.85,0,0,1-.75-.35.88.88,0,0,1-.26-.68,1.87,1.87,0,0,1,.39-1.16A1.56,1.56,0,0,1,193,42a1.19,1.19,0,0,1,1.08.48,1.35,1.35,0,0,1,.2.7,2,2,0,0,1,0,.33h-.76v-.14a.54.54,0,0,0-.17-.42.69.69,0,0,0-.48-.14.88.88,0,0,0-.57.18.64.64,0,0,0-.22.49.32.32,0,0,0,.08.23.53.53,0,0,0,.25.14l.89.28a1.3,1.3,0,0,1,.62.36.94.94,0,0,1,.19.6,2,2,0,0,1-.14.72,1.87,1.87,0,0,1-.38.59,1.8,1.8,0,0,1-1.33.52,1.3,1.3,0,0,1-1.17-.52,1.21,1.21,0,0,1-.18-.66A2.31,2.31,0,0,1,190.88,45.37Z"/><path d="M195.86,46.8l.81-4.67h1.87a1,1,0,0,1,.73.25.9.9,0,0,1,.26.69,1.52,1.52,0,0,1-.26.88,1.14,1.14,0,0,1-.4.34.77.77,0,0,1,.33.31.94.94,0,0,1,.1.47,1.8,1.8,0,0,1-.46,1.23,1.46,1.46,0,0,1-.55.4,2.46,2.46,0,0,1-.81.1Zm1.12-2L196.77,46h1a.67.67,0,0,0,.59-.29,1,1,0,0,0,.15-.53.41.41,0,0,0-.13-.32.55.55,0,0,0-.36-.11Zm.32-1.81-.18,1h.94a.66.66,0,0,0,.49-.18.65.65,0,0,0,.18-.48q0-.36-.51-.36Z"/><path d="M203.51,43.66h-.81a1.34,1.34,0,0,0-.1-.49.6.6,0,0,0-.58-.32,1,1,0,0,0-.87.54,2.79,2.79,0,0,0-.32.77,3.61,3.61,0,0,0-.12.91,1.26,1.26,0,0,0,.19.75.61.61,0,0,0,.53.26.91.91,0,0,0,.73-.36,1.91,1.91,0,0,0,.27-.52h.8a4.49,4.49,0,0,1-.28.66,2.72,2.72,0,0,1-.34.46,1.75,1.75,0,0,1-1.33.61,1.33,1.33,0,0,1-1-.38A1.64,1.64,0,0,1,200,46a2.61,2.61,0,0,1-.11-.75,4.32,4.32,0,0,1,.2-1.32,3.39,3.39,0,0,1,.52-1.08,1.9,1.9,0,0,1,1.55-.83,1.31,1.31,0,0,1,1,.39,1.42,1.42,0,0,1,.37,1Z"/><path d="M151.11,50.76l-.67,3.85h-.8l.67-3.85h-1.16l.14-.82h3.12l-.14.82Z"/><path d="M154.71,52.51h-1.5l-.36,2.1H152l.82-4.67h.8l-.31,1.77h1.5l.3-1.77h.8l-.81,4.67h-.8Z"/><path d="M159.55,49.94l-.14.82h-2l-.17,1h1.87l-.14.82h-1.87l-.21,1.21H159l-.14.83h-2.91l.81-4.67Z"/><path d="M161.58,52.86l-.3,1.75h-.81l.32-1.76L160,49.94h.94l.44,2,1.11-2h.92Z"/><path d="M165.5,53.65l-.43,1h-.85l2.19-4.67h.92l.53,4.67H167l-.08-1ZM166.68,51l-.83,1.87h1Z"/><path d="M168.37,54.61l.81-4.67h1.94a1,1,0,0,1,.74.27,1.06,1.06,0,0,1,.26.76,1.64,1.64,0,0,1-.36,1.06,1.28,1.28,0,0,1-.45.34.7.7,0,0,1,.26.25.63.63,0,0,1,.08.34,7.08,7.08,0,0,1-.12.95,1.8,1.8,0,0,0,0,.37.2.2,0,0,0,.11.2l0,.13h-.89v-.18a4.54,4.54,0,0,1,.09-.77,3,3,0,0,0,.06-.48.36.36,0,0,0-.12-.31.71.71,0,0,0-.41-.09h-.83l-.32,1.83ZM169.61,52h.94a.64.64,0,0,0,.59-.26.91.91,0,0,0,.15-.54c0-.3-.15-.44-.47-.44h-1Z"/><path d="M175.85,49.94l-.14.82h-2l-.17,1h1.87l-.14.82h-1.87l-.21,1.21h2.12l-.14.83h-2.91l.81-4.67Z"/><path d="M179.56,50.76l-.67,3.85h-.8l.67-3.85H177.6l.14-.82h3.12l-.14.82Z"/><path d="M183.16,52.51h-1.5l-.36,2.1h-.8l.81-4.67h.8l-.31,1.77h1.5l.3-1.77h.8l-.81,4.67h-.8Z"/><path d="M188,49.94l-.14.82h-2l-.17,1h1.87l-.14.82h-1.87l-.21,1.21h2.12l-.14.83h-2.91l.81-4.67Z"/><path d="M189.41,54.61l.82-4.67h1.86a1,1,0,0,1,.73.24.88.88,0,0,1,.26.69,1.55,1.55,0,0,1-.26.89,1.24,1.24,0,0,1-.4.33.88.88,0,0,1,.34.32,1,1,0,0,1,.09.47,1.77,1.77,0,0,1-.46,1.23,1.37,1.37,0,0,1-.54.39,2.49,2.49,0,0,1-.82.11Zm1.13-2.06-.22,1.25h1a.65.65,0,0,0,.58-.28.94.94,0,0,0,.16-.53.43.43,0,0,0-.13-.32.52.52,0,0,0-.36-.12Zm.32-1.8-.19,1h1a.69.69,0,0,0,.49-.18.65.65,0,0,0,.18-.48c0-.24-.17-.36-.52-.36Z"/><path d="M196.89,49.94l-.14.82h-2l-.17,1h1.87l-.14.82H194.4l-.21,1.21h2.12l-.14.83h-2.91l.82-4.67Z"/><path d="M196.88,53.17h.77c0,.1,0,.16,0,.18a.54.54,0,0,0,.19.43.81.81,0,0,0,.52.15,1,1,0,0,0,.65-.2.6.6,0,0,0,.24-.51.32.32,0,0,0-.13-.27,1.43,1.43,0,0,0-.46-.21l-.39-.12a1.94,1.94,0,0,1-.76-.34.89.89,0,0,1-.25-.68,2,2,0,0,1,.38-1.17,1.62,1.62,0,0,1,1.35-.62,1.2,1.2,0,0,1,1.08.49,1.31,1.31,0,0,1,.19.69c0,.1,0,.21,0,.33h-.76v-.13a.53.53,0,0,0-.17-.42.74.74,0,0,0-.49-.15.79.79,0,0,0-.56.19.61.61,0,0,0-.22.49.33.33,0,0,0,.07.23.69.69,0,0,0,.26.14l.88.28a1.26,1.26,0,0,1,.62.36.87.87,0,0,1,.19.59,2,2,0,0,1-.14.72,1.67,1.67,0,0,1-.38.6,1.78,1.78,0,0,1-1.33.51,1.28,1.28,0,0,1-1.16-.51,1.22,1.22,0,0,1-.18-.67A3.65,3.65,0,0,1,196.88,53.17Z"/><path d="M202.6,50.76l-.67,3.85h-.8l.67-3.85h-1.16l.14-.82h3.12l-.15.82Z"/><circle cx="233.09" cy="174.09" r="9.88"/><path class="cls-1" d="M226.16,171.83a1.77,1.77,0,0,1,1.93-1.91,1.56,1.56,0,0,1,1.73,1.29l-1.1.23c-.07-.43-.3-.66-.66-.66s-.71.38-.71,1,.26,1.08.72,1.08.59-.24.65-.68l1.1.25a1.62,1.62,0,0,1-1.75,1.3A1.8,1.8,0,0,1,226.16,171.83Z"/><path class="cls-1" d="M231,173.65h-1.17v-5.29H231Z"/><path class="cls-1" d="M231.35,168.41h1.22v1.07h-1.22Zm0,1.6h1.17v3.64h-1.17Z"/><path class="cls-1" d="M232.57,171.83a1.77,1.77,0,0,1,1.93-1.91,1.56,1.56,0,0,1,1.73,1.29l-1.1.23c-.07-.43-.3-.66-.66-.66s-.72.38-.72,1,.27,1.08.73,1.08.59-.24.65-.68l1.1.25a1.62,1.62,0,0,1-1.75,1.3A1.8,1.8,0,0,1,232.57,171.83Z"/><path class="cls-1" d="M237.84,172.18l-.4.43v1h-1.17v-5.29h1.17v3.08l1.18-1.43H240l-1.33,1.45,1.37,2.19h-1.31Z"/><path class="cls-1" d="M226.47,174.45h1.17v2.29a1.18,1.18,0,0,1,1.16-.75c.79,0,1.19.5,1.19,1.48v2.27h-1.16v-2.16c0-.46-.19-.7-.54-.7s-.65.32-.65.89v2h-1.17Z"/><path class="cls-1" d="M233.6,178.18h-2.53a.79.79,0,0,0,.84.81.85.85,0,0,0,.79-.52l.86.4a1.77,1.77,0,0,1-1.67.95A1.75,1.75,0,0,1,230,178a1.77,1.77,0,0,1,1.85-1.95,1.64,1.64,0,0,1,1.79,1.83Zm-1.13-.69c0-.52-.24-.8-.68-.8s-.71.31-.72.83h1.4Z"/><path class="cls-1" d="M236,176h.07v1.12h-.22a1,1,0,0,0-.7.22,1.18,1.18,0,0,0-.3.92v1.49h-1.17v-3.65h1.1V177A1.22,1.22,0,0,1,236,176Z"/><path class="cls-1" d="M239.35,178.18h-2.53a.79.79,0,0,0,.84.81.83.83,0,0,0,.79-.52l.87.4a1.79,1.79,0,0,1-1.67.95,1.75,1.75,0,0,1-1.94-1.87,1.77,1.77,0,0,1,1.86-1.95,1.64,1.64,0,0,1,1.78,1.83Zm-1.13-.69c0-.52-.24-.8-.68-.8s-.71.31-.72.83h1.4Z"/></g></g></svg>