<svg xmlns="http://www.w3.org/2000/svg" viewBox="0 0 246.23 207.52"><defs><style>.cls-1{fill:#f5582f;}.cls-2{fill:#231f20;}</style></defs><title>Asset 42</title><g id="Layer_2" data-name="Layer 2"><g id="Layer_3" data-name="Layer 3"><rect class="cls-1" width="246.23" height="207.52"/><path d="M21.69,22.85H19.44v6H13.92v-6H5.83V16H27.77V31.22H21.69Z"/><path d="M5.52,43.19c0-5.86,4.33-10.09,11.28-10.09s11.29,4.23,11.29,10.09S23.79,53.28,16.8,53.28,5.52,49.05,5.52,43.19Zm16.39,0c0-1.54-1.22-3.29-5.11-3.29s-5.11,1.75-5.11,3.29,1.1,3.29,5.11,3.29S21.91,44.73,21.91,43.19Z"/><path d="M5.52,65.88C5.52,60,9.85,55.79,16.8,55.79S28.09,60,28.09,65.88,23.79,76,16.8,76,5.52,71.74,5.52,65.88Zm16.39,0c0-1.53-1.22-3.29-5.11-3.29s-5.11,1.76-5.11,3.29,1.1,3.29,5.11,3.29S21.91,67.42,21.91,65.88Z"/><path d="M5.83,87.64V79.49H27.77v8.15c0,7.33-5.51,10.56-11.09,10.56S5.83,94.78,5.83,87.64Zm15.86,0V86.35H11.91v1.29c0,2.41,1.88,3.76,4.77,3.76S21.69,90.08,21.69,87.64Z"/><path class="cls-2" d="M119.86,92.17h2.64a1.58,1.58,0,0,1,1.68,1.73,1.36,1.36,0,0,1-.67,1.33,1.25,1.25,0,0,1,.64.62,2.16,2.16,0,0,1,.2,1,2.12,2.12,0,0,1-.47,1.4c-.38.45-.78.59-1.72.59h-2.3Zm1.09,2.6h1.33a.71.71,0,0,0,.81-.76c0-.48-.26-.7-.84-.7H121Zm0,2.9h1.39c.57,0,.88-.34.88-1a.76.76,0,0,0-.82-.83H121Z"/><path class="cls-2" d="M126,98.8h-1.2l1.94-6.63H128l1.92,6.63h-1.24l-.35-1.36h-2Zm.68-2.5H128l-.69-2.66Z"/><path class="cls-2" d="M132.93,95.23h2.28V98.8h-.76l-.12-.83a1.84,1.84,0,0,1-1.69,1c-1.49,0-2.5-1.39-2.5-3.45s1-3.53,2.66-3.53a2.24,2.24,0,0,1,2.06,1.15,2.59,2.59,0,0,1,.33,1.08h-1.14a1.26,1.26,0,0,0-1.22-1.1c-.94,0-1.53.93-1.53,2.4s.55,2.27,1.53,2.27a1.18,1.18,0,0,0,.91-.39,2.06,2.06,0,0,0,.47-1h-1.28Z"/><path class="cls-2" d="M140.27,93.35h-2.89v1.39H140v1.17h-2.66v1.72h3V98.8h-4.13V92.17h4Z"/><path class="cls-2" d="M142.45,97.6h2.71v1.2h-3.84V92.17h1.13Z"/><path class="cls-2" d="M146.77,96.76A1,1,0,0,0,148,97.84c.7,0,1.1-.3,1.1-.85s-.23-.62-1-.84l-.58-.16a2.7,2.7,0,0,1-1.27-.59,1.83,1.83,0,0,1-.46-1.33A1.9,1.9,0,0,1,147.83,92,2,2,0,0,1,150,94.14h-1.09a1,1,0,0,0-1.09-1c-.61,0-1,.31-1,.81s.16.56.58.69l1.32.4a1.66,1.66,0,0,1,1.43,1.8A2,2,0,0,1,147.94,99a2.09,2.09,0,0,1-2-1.08,2.41,2.41,0,0,1-.25-1.14Z"/><path class="cls-2" d="M120.29,110.91h-.89l1.45-5h1l1.44,5h-.93l-.26-1h-1.5Zm.52-1.87h1l-.51-2Z"/><path class="cls-2" d="M124.34,109.38c0,.55.31.81.89.81s.82-.23.82-.64-.17-.46-.74-.62l-.44-.13a1.94,1.94,0,0,1-.94-.44,1.34,1.34,0,0,1-.35-1,1.43,1.43,0,0,1,1.55-1.56,1.5,1.5,0,0,1,1.6,1.61h-.81a.73.73,0,0,0-.82-.76c-.45,0-.72.23-.72.61s.11.42.43.51l1,.3a1.25,1.25,0,0,1,1.07,1.35,1.51,1.51,0,0,1-1.66,1.61,1.55,1.55,0,0,1-1.5-.81,1.7,1.7,0,0,1-.19-.85Z"/><path class="cls-2" d="M129,109.42h-1.58v-.9H129Z"/><path class="cls-2" d="M130.38,110.91h-.85v-5h.85Z"/><path class="cls-2" d="M131.78,109.38a.77.77,0,0,0,.89.81c.53,0,.82-.23.82-.64s-.16-.46-.74-.62l-.43-.13a1.94,1.94,0,0,1-.95-.44,1.34,1.34,0,0,1-.34-1,1.43,1.43,0,0,1,1.55-1.56,1.5,1.5,0,0,1,1.6,1.61h-.82c-.06-.53-.31-.76-.81-.76s-.73.23-.73.61.12.42.43.51l1,.3a1.25,1.25,0,0,1,1.07,1.35,1.5,1.5,0,0,1-1.65,1.61,1.56,1.56,0,0,1-1.51-.81,1.94,1.94,0,0,1-.19-.85Z"/><path class="cls-2" d="M136.27,110.91h-.85v-1h.85Z"/><path class="cls-2" d="M137.85,110.91H137v-1h.85Z"/><path class="cls-2" d="M139.43,110.91h-.85v-1h.85Z"/><path class="cls-2" d="M141,110.91h-.85v-1H141Z"/><path class="cls-2" d="M142.58,110.91h-.85v-1h.85Z"/><path class="cls-2" d="M144.16,110.91h-.85v-1h.85Z"/><path class="cls-2" d="M145.74,110.91h-.86v-1h.86Z"/><path class="cls-2" d="M147.31,110.91h-.85v-1h.85Z"/><path class="cls-2" d="M148.89,110.91H148v-1h.85Z"/><path class="cls-2" d="M150.47,110.91h-.85v-1h.85Z"/><path class="cls-2" d="M152,110.91h-.85v-1H152Z"/><path class="cls-2" d="M153.62,110.91h-.85v-1h.85Z"/><path class="cls-2" d="M155.2,110.91h-.85v-1h.85Z"/><path class="cls-2" d="M156.78,110.91h-.85v-1h.85Z"/><path class="cls-2" d="M158.35,110.91h-.85v-1h.85Z"/><path class="cls-2" d="M159.93,110.91h-.85v-1h.85Z"/><path class="cls-2" d="M161.51,110.91h-.85v-1h.85Z"/><path class="cls-2" d="M163.09,110.91h-.85v-1h.85Z"/><path class="cls-2" d="M164.66,110.91h-.85v-1h.85Z"/><path class="cls-2" d="M166.24,110.91h-.85v-1h.85Z"/><path class="cls-2" d="M167.82,110.91H167v-1h.85Z"/><path class="cls-2" d="M169.4,110.91h-.85v-1h.85Z"/><path class="cls-2" d="M171,110.91h-.85v-1H171Z"/><path class="cls-2" d="M172.55,110.91h-.85v-1h.85Z"/><path class="cls-2" d="M174.13,110.91h-.85v-1h.85Z"/><path class="cls-2" d="M175.71,110.91h-.85v-1h.85Z"/><path class="cls-2" d="M177.28,110.91h-.85v-1h.85Z"/><path class="cls-2" d="M178.86,110.91H178v-1h.85Z"/><path class="cls-2" d="M180.44,110.91h-.85v-1h.85Z"/><path class="cls-2" d="M182,110.91h-.86v-1H182Z"/><path class="cls-2" d="M183.59,110.91h-.85v-1h.85Z"/><path class="cls-2" d="M185.17,110.91h-.85v-1h.85Z"/><path class="cls-2" d="M186.75,110.91h-.85v-1h.85Z"/><path class="cls-2" d="M188.33,110.91h-.86v-1h.86Z"/><path class="cls-2" d="M189.9,110.91h-.85v-1h.85Z"/><path class="cls-2" d="M191.48,110.91h-.85v-1h.85Z"/><path class="cls-2" d="M193.06,110.91h-.85v-1h.85Z"/><path class="cls-2" d="M194.63,110.91h-.85v-1h.85Z"/><path class="cls-2" d="M196.21,110.91h-.85v-1h.85Z"/><path class="cls-2" d="M197.79,110.91h-.85v-1h.85Z"/><path class="cls-2" d="M199.37,110.91h-.85v-1h.85Z"/><path class="cls-2" d="M201,110.91h-.86v-1H201Z"/><path class="cls-2" d="M202.52,110.91h-.85v-1h.85Z"/><path class="cls-2" d="M204.1,110.91h-.85v-1h.85Z"/><path class="cls-2" d="M205.68,110.91h-.85v-1h.85Z"/><path class="cls-2" d="M207.25,110.91h-.85v-1h.85Z"/><path class="cls-2" d="M208.83,110.91H208v-1h.85Z"/><path class="cls-2" d="M210.41,110.91h-.85v-1h.85Z"/><path class="cls-2" d="M212,110.91h-.85v-1H212Z"/><path class="cls-2" d="M213.56,110.91h-.85v-1h.85Z"/><path class="cls-2" d="M215.14,110.91h-.85v-1h.85Z"/><path class="cls-2" d="M216.72,110.91h-.85v-1h.85Z"/><path class="cls-2" d="M218.3,110.91h-.85v-1h.85Z"/><path class="cls-2" d="M219.87,110.91H219v-1h.85Z"/><path class="cls-2" d="M221.45,110.91h-.85v-1h.85Z"/><path class="cls-2" d="M223,110.91h-.85v-1H223Z"/><path class="cls-2" d="M224.61,110.91h-.85v-1h.85Z"/><path class="cls-2" d="M226.18,110.91h-.85v-1h.85Z"/><path class="cls-2" d="M227.76,110.91h-.85v-1h.85Z"/><path class="cls-2" d="M231.54,109.82h-.45v1.09h-.79v-1.09h-1.59V109l1.48-3h.9v3.08h.45Zm-1.24-.74c0-1.26,0-1.51,0-2.14l-1,2.14Z"/><path class="cls-2" d="M119.71,118.05h2a1.18,1.18,0,0,1,1.26,1.3,1,1,0,0,1-.5,1,1,1,0,0,1,.48.46,1.77,1.77,0,0,1-.2,1.77c-.28.34-.59.45-1.29.45h-1.73Zm.82,2h1a.53.53,0,0,0,.6-.57c0-.36-.19-.53-.63-.53h-1Zm0,2.17h1c.43,0,.66-.25.66-.71a.57.57,0,0,0-.61-.62h-1.09Z"/><path class="cls-2" d="M127.07,121.28c0,1.22-.57,1.87-1.65,1.87s-1.63-.66-1.63-1.81v-3.29h.86v3.22c0,.64.28,1,.77,1s.79-.33.79-1v-3.27h.86Z"/><path class="cls-2" d="M129.63,123h-.85v-4.09h-1.23v-.88h3.31v.88h-1.23Z"/><path class="cls-2" d="M133.27,123h-.85v-4.09h-1.23v-.88h3.31v.88h-1.23Z"/><path class="cls-2" d="M138,118.93h-2.17v1h2v.87h-2v1.29h2.26V123H135v-5h3Z"/><path class="cls-2" d="M138.79,118.05h2.05a1.27,1.27,0,0,1,1.29,1.41,1.21,1.21,0,0,1-.63,1.18c.45.24.52.47.52,1.63,0,.43,0,.55.18.62V123h-.94a4.28,4.28,0,0,1-.1-1c0-.78-.09-.93-.66-.94h-.88V123h-.83Zm1.83,2.19c.45,0,.66-.21.66-.67s-.21-.67-.6-.67h-1.06v1.34Z"/><path class="cls-2" d="M145.88,118.93h-2.17v1h2v.87h-2v1.29H146V123h-3.09v-5h3Z"/><path class="cls-2" d="M146.67,118.05h1.8c1.05,0,1.66.87,1.66,2.38a3.33,3.33,0,0,1-.59,2.07,1.36,1.36,0,0,1-1.11.52h-1.76Zm.83,4.12h.83c.59,0,.93-.63.93-1.71s-.3-1.56-.95-1.56h-.81Z"/><path class="cls-2" d="M152,123h-.85v-1H152Z"/><path class="cls-2" d="M153.62,123h-.85v-1h.85Z"/><path class="cls-2" d="M155.2,123h-.85v-1h.85Z"/><path class="cls-2" d="M156.78,123h-.85v-1h.85Z"/><path class="cls-2" d="M158.35,123h-.85v-1h.85Z"/><path class="cls-2" d="M159.93,123h-.85v-1h.85Z"/><path class="cls-2" d="M161.51,123h-.85v-1h.85Z"/><path class="cls-2" d="M163.09,123h-.85v-1h.85Z"/><path class="cls-2" d="M164.66,123h-.85v-1h.85Z"/><path class="cls-2" d="M166.24,123h-.85v-1h.85Z"/><path class="cls-2" d="M167.82,123H167v-1h.85Z"/><path class="cls-2" d="M169.4,123h-.85v-1h.85Z"/><path class="cls-2" d="M171,123h-.85v-1H171Z"/><path class="cls-2" d="M172.55,123h-.85v-1h.85Z"/><path class="cls-2" d="M174.13,123h-.85v-1h.85Z"/><path class="cls-2" d="M175.71,123h-.85v-1h.85Z"/><path class="cls-2" d="M177.28,123h-.85v-1h.85Z"/><path class="cls-2" d="M178.86,123H178v-1h.85Z"/><path class="cls-2" d="M180.44,123h-.85v-1h.85Z"/><path class="cls-2" d="M182,123h-.86v-1H182Z"/><path class="cls-2" d="M183.59,123h-.85v-1h.85Z"/><path class="cls-2" d="M185.17,123h-.85v-1h.85Z"/><path class="cls-2" d="M186.75,123h-.85v-1h.85Z"/><path class="cls-2" d="M188.33,123h-.86v-1h.86Z"/><path class="cls-2" d="M189.9,123h-.85v-1h.85Z"/><path class="cls-2" d="M191.48,123h-.85v-1h.85Z"/><path class="cls-2" d="M193.06,123h-.85v-1h.85Z"/><path class="cls-2" d="M194.64,123h-.86v-1h.86Z"/><path class="cls-2" d="M196.21,123h-.85v-1h.85Z"/><path class="cls-2" d="M197.79,123h-.85v-1h.85Z"/><path class="cls-2" d="M199.37,123h-.85v-1h.85Z"/><path class="cls-2" d="M201,123h-.86v-1H201Z"/><path class="cls-2" d="M202.52,123h-.85v-1h.85Z"/><path class="cls-2" d="M204.1,123h-.85v-1h.85Z"/><path class="cls-2" d="M205.68,123h-.85v-1h.85Z"/><path class="cls-2" d="M207.25,123h-.85v-1h.85Z"/><path class="cls-2" d="M208.83,123H208v-1h.85Z"/><path class="cls-2" d="M210.41,123h-.85v-1h.85Z"/><path class="cls-2" d="M212,123h-.85v-1H212Z"/><path class="cls-2" d="M213.56,123h-.85v-1h.85Z"/><path class="cls-2" d="M215.14,123h-.85v-1h.85Z"/><path class="cls-2" d="M216.72,123h-.85v-1h.85Z"/><path class="cls-2" d="M218.3,123h-.85v-1h.85Z"/><path class="cls-2" d="M219.87,123H219v-1h.85Z"/><path class="cls-2" d="M221.45,123h-.85v-1h.85Z"/><path class="cls-2" d="M223,123h-.85v-1H223Z"/><path class="cls-2" d="M224.61,123h-.85v-1h.85Z"/><path class="cls-2" d="M226.18,123h-.85v-1h.85Z"/><path class="cls-2" d="M227.76,123h-.85v-1h.85Z"/><path class="cls-2" d="M229.77,120.18h.12c.46,0,.67-.21.67-.65s-.19-.65-.51-.65-.53.26-.54.8h-.73a1.77,1.77,0,0,1,.23-1,1.18,1.18,0,0,1,1.08-.59,1.23,1.23,0,0,1,1.27,1.34,1,1,0,0,1-.49,1,1.11,1.11,0,0,1,.61,1.15,1.42,1.42,0,0,1-1.39,1.58,1.27,1.27,0,0,1-1-.45,1.74,1.74,0,0,1-.35-1.19h.77v.06c0,.52.22.8.58.8s.6-.31.6-.79-.25-.71-.9-.71Z"/><path class="cls-2" d="M120.32,133.6a.77.77,0,0,0,.89.8c.53,0,.83-.22.83-.63s-.17-.46-.74-.63l-.44-.12a2.07,2.07,0,0,1-1-.45,1.36,1.36,0,0,1-.34-1,1.42,1.42,0,0,1,1.55-1.55,1.5,1.5,0,0,1,1.6,1.6h-.81a.74.74,0,0,0-.82-.75c-.46,0-.73.23-.73.6s.12.42.43.52l1,.3a1.24,1.24,0,0,1,1.06,1.34,1.5,1.5,0,0,1-1.65,1.61,1.58,1.58,0,0,1-1.51-.8,1.82,1.82,0,0,1-.18-.85Z"/><path class="cls-2" d="M126.08,131.78a1.44,1.44,0,0,0-.2-.52.78.78,0,0,0-.67-.33c-.66,0-1,.63-1,1.73s.38,1.7,1,1.7a.81.81,0,0,0,.71-.39,1.57,1.57,0,0,0,.19-.55h.85a2.64,2.64,0,0,1-.45,1.19,1.57,1.57,0,0,1-1.31.64c-1.16,0-1.86-1-1.86-2.59S124,130,125.19,130a1.64,1.64,0,0,1,1.49.88,2,2,0,0,1,.25.87Z"/><path class="cls-2" d="M128.4,132.89v2.23h-.85v-5h.85V132H130v-1.88h.85v5H130v-2.23Z"/><path class="cls-2" d="M135.58,135.12h-.79v-4.21l-.77,4.21h-.84l-.75-4.21v4.21h-.79v-5h1.24l.75,3.94.73-3.94h1.22Z"/><path class="cls-2" d="M139.4,131h-2.17v1h2V133h-2v1.29h2.26v.87H136.4v-5h3Z"/><path class="cls-2" d="M143.18,131H141v1h2V133h-2v1.29h2.26v.87h-3.09v-5h3Z"/><path class="cls-2" d="M144,130.16H146a1.26,1.26,0,0,1,1.29,1.41,1.2,1.2,0,0,1-.63,1.18c.46.24.53.47.52,1.63,0,.43,0,.54.18.61v.13h-.94a4.12,4.12,0,0,1-.1-1c0-.78-.09-.93-.66-.94h-.88v1.93H144Zm1.83,2.19c.45,0,.66-.21.66-.67s-.21-.67-.59-.67H144.8v1.34Z"/><path class="cls-2" d="M151.06,131H148.9v1h2V133h-2v1.29h2.26v.87h-3.09v-5h3Z"/><path class="cls-2" d="M151.85,130.16h1.8c1,0,1.66.87,1.66,2.38a3.42,3.42,0,0,1-.58,2.07,1.42,1.42,0,0,1-1.12.51h-1.76Zm.83,4.11h.83c.59,0,.93-.63.93-1.7s-.3-1.56-.94-1.56h-.82Z"/><path class="cls-2" d="M156.78,135.12h-.85v-1h.85Z"/><path class="cls-2" d="M158.35,135.12h-.85v-1h.85Z"/><path class="cls-2" d="M159.93,135.12h-.85v-1h.85Z"/><path class="cls-2" d="M161.51,135.12h-.85v-1h.85Z"/><path class="cls-2" d="M163.09,135.12h-.85v-1h.85Z"/><path class="cls-2" d="M164.66,135.12h-.85v-1h.85Z"/><path class="cls-2" d="M166.24,135.12h-.85v-1h.85Z"/><path class="cls-2" d="M167.82,135.12H167v-1h.85Z"/><path class="cls-2" d="M169.4,135.12h-.85v-1h.85Z"/><path class="cls-2" d="M171,135.12h-.85v-1H171Z"/><path class="cls-2" d="M172.55,135.12h-.85v-1h.85Z"/><path class="cls-2" d="M174.13,135.12h-.85v-1h.85Z"/><path class="cls-2" d="M175.71,135.12h-.85v-1h.85Z"/><path class="cls-2" d="M177.28,135.12h-.85v-1h.85Z"/><path class="cls-2" d="M178.86,135.12H178v-1h.85Z"/><path class="cls-2" d="M180.44,135.12h-.85v-1h.85Z"/><path class="cls-2" d="M182,135.12h-.85v-1H182Z"/><path class="cls-2" d="M183.59,135.12h-.85v-1h.85Z"/><path class="cls-2" d="M185.17,135.12h-.85v-1h.85Z"/><path class="cls-2" d="M186.75,135.12h-.85v-1h.85Z"/><path class="cls-2" d="M188.33,135.12h-.85v-1h.85Z"/><path class="cls-2" d="M189.9,135.12h-.85v-1h.85Z"/><path class="cls-2" d="M191.48,135.12h-.85v-1h.85Z"/><path class="cls-2" d="M193.06,135.12h-.85v-1h.85Z"/><path class="cls-2" d="M194.64,135.12h-.86v-1h.86Z"/><path class="cls-2" d="M196.21,135.12h-.85v-1h.85Z"/><path class="cls-2" d="M197.79,135.12h-.85v-1h.85Z"/><path class="cls-2" d="M199.37,135.12h-.85v-1h.85Z"/><path class="cls-2" d="M201,135.12h-.86v-1H201Z"/><path class="cls-2" d="M202.52,135.12h-.85v-1h.85Z"/><path class="cls-2" d="M204.1,135.12h-.85v-1h.85Z"/><path class="cls-2" d="M205.68,135.12h-.85v-1h.85Z"/><path class="cls-2" d="M207.25,135.12h-.85v-1h.85Z"/><path class="cls-2" d="M208.83,135.12H208v-1h.85Z"/><path class="cls-2" d="M210.41,135.12h-.85v-1h.85Z"/><path class="cls-2" d="M212,135.12h-.85v-1H212Z"/><path class="cls-2" d="M213.56,135.12h-.85v-1h.85Z"/><path class="cls-2" d="M215.14,135.12h-.85v-1h.85Z"/><path class="cls-2" d="M216.72,135.12h-.85v-1h.85Z"/><path class="cls-2" d="M218.3,135.12h-.85v-1h.85Z"/><path class="cls-2" d="M219.87,135.12H219v-1h.85Z"/><path class="cls-2" d="M221.45,135.12h-.85v-1h.85Z"/><path class="cls-2" d="M223,135.12h-.85v-1H223Z"/><path class="cls-2" d="M224.61,135.12h-.85v-1h.85Z"/><path class="cls-2" d="M226.18,135.12h-.85v-1h.85Z"/><path class="cls-2" d="M227.76,135.12h-.85v-1h.85Z"/><path class="cls-2" d="M231.54,134h-.45v1.08h-.79V134h-1.59v-.83l1.48-3h.9v3.07h.45Zm-1.24-.75c0-1.26,0-1.51,0-2.13l-1,2.13Z"/><path class="cls-2" d="M120.32,145.7a.78.78,0,0,0,.89.81c.53,0,.83-.23.83-.63s-.17-.47-.74-.63l-.44-.13a2,2,0,0,1-1-.44,1.38,1.38,0,0,1-.34-1,1.42,1.42,0,0,1,1.55-1.55,1.5,1.5,0,0,1,1.6,1.6h-.81a.74.74,0,0,0-.82-.75c-.46,0-.73.23-.73.6s.12.42.43.52l1,.29a1.25,1.25,0,0,1,1.06,1.35,1.5,1.5,0,0,1-1.65,1.61,1.57,1.57,0,0,1-1.51-.81,1.79,1.79,0,0,1-.18-.85Z"/><path class="cls-2" d="M126.08,143.89a1.37,1.37,0,0,0-.2-.52.78.78,0,0,0-.67-.33c-.66,0-1,.63-1,1.73s.38,1.69,1,1.69a.82.82,0,0,0,.71-.38,1.57,1.57,0,0,0,.19-.55h.85a2.64,2.64,0,0,1-.45,1.19,1.57,1.57,0,0,1-1.31.64c-1.16,0-1.86-1-1.86-2.6s.72-2.62,1.88-2.62a1.65,1.65,0,0,1,1.49.87,2.07,2.07,0,0,1,.25.88Z"/><path class="cls-2" d="M128.4,145v2.23h-.85v-5h.85v1.88H130v-1.88h.85v5H130V145Z"/><path class="cls-2" d="M135.58,147.23h-.79V143l-.77,4.21h-.84l-.75-4.21v4.21h-.79v-5h1.24l.75,3.94.73-3.94h1.22Z"/><path class="cls-2" d="M139.4,143.15h-2.17v1h2v.88h-2v1.28h2.26v.88H136.4v-5h3Z"/><path class="cls-2" d="M143.18,143.15H141v1h2v.88h-2v1.28h2.26v.88h-3.09v-5h3Z"/><path class="cls-2" d="M144,142.27H146a1.26,1.26,0,0,1,1.29,1.41,1.18,1.18,0,0,1-.63,1.17c.46.25.53.47.52,1.63,0,.44,0,.55.18.62v.13h-.94a4.12,4.12,0,0,1-.1-1c0-.79-.09-.93-.66-.94h-.88v1.93H144Zm1.83,2.18a.58.58,0,0,0,.66-.66c0-.44-.21-.67-.59-.67H144.8v1.33Z"/><path class="cls-2" d="M151.06,143.15H148.9v1h2v.88h-2v1.28h2.26v.88h-3.09v-5h3Z"/><path class="cls-2" d="M151.85,142.27h1.8c1,0,1.66.87,1.66,2.38a3.36,3.36,0,0,1-.58,2.06,1.39,1.39,0,0,1-1.12.52h-1.76Zm.83,4.11h.83c.59,0,.93-.63.93-1.71s-.3-1.55-.94-1.55h-.82Z"/><path class="cls-2" d="M157.19,142.27h.9c.49,2.52.57,3,.66,3.67.12-.87.25-1.74.56-3.67h.91c.45,2.59.5,2.93.61,3.67.09-.64.21-1.25.67-3.67h.86l-1.14,5h-.82c-.41-2.41-.48-2.78-.64-3.9-.21,1.39-.37,2.4-.46,2.92l-.17,1h-.79Z"/><path class="cls-2" d="M163.67,147.23h-.85v-5h.85Z"/><path class="cls-2" d="M166.21,147.23h-.85v-4.08h-1.23v-.88h3.31v.88h-1.23Z"/><path class="cls-2" d="M168.78,145v2.23h-.85v-5h.85v1.88h1.59v-1.88h.85v5h-.85V145Z"/><path class="cls-2" d="M175.36,147.23h-.85v-4.08h-1.23v-.88h3.31v.88h-1.23Z"/><path class="cls-2" d="M180.21,142.79a3.71,3.71,0,0,1,0,3.92,1.81,1.81,0,0,1-1.4.65,1.84,1.84,0,0,1-1.66-1.06,3.68,3.68,0,0,1-.29-1.54,3.12,3.12,0,0,1,.55-2,1.83,1.83,0,0,1,2.8,0Zm-2.51,2c0,1.09.42,1.74,1.11,1.74s1.11-.65,1.11-1.75a2.1,2.1,0,0,0-.38-1.36,1,1,0,0,0-.71-.36C178.13,143,177.7,143.66,177.7,144.74Z"/><path class="cls-2" d="M185.35,147.23h-.78V143l-.78,4.21H183L182.2,143v4.21h-.79v-5h1.24l.75,3.94.73-3.94h1.22Z"/><path class="cls-2" d="M186.75,147.23h-.89l1.45-5h1l1.44,5h-.93l-.26-1H187Zm.52-1.87h1l-.51-2Z"/><path class="cls-2" d="M191.55,147.23h-.85v-4.08h-1.23v-.88h3.31v.88h-1.23Z"/><path class="cls-2" d="M196.4,142.79a3.71,3.71,0,0,1,0,3.92,1.79,1.79,0,0,1-1.39.65,1.83,1.83,0,0,1-1.66-1.06,3.67,3.67,0,0,1-.3-1.54,3.06,3.06,0,0,1,.56-2,1.82,1.82,0,0,1,2.79,0Zm-2.5,2c0,1.09.42,1.74,1.11,1.74s1.1-.65,1.1-1.75a2.16,2.16,0,0,0-.37-1.36A1,1,0,0,0,195,143C194.32,143,193.9,143.66,193.9,144.74Z"/><path class="cls-2" d="M202.77,147.23h-1l-.28-.42a1.37,1.37,0,0,1-1.13.55,1.31,1.31,0,0,1-1.3-1.44,1.63,1.63,0,0,1,.78-1.41l.09-.06a1.77,1.77,0,0,1-.37-1,1,1,0,1,1,2.08,0,1.42,1.42,0,0,1-.67,1.2l.57.87a1.9,1.9,0,0,0,.21-.82h.71a3,3,0,0,1-.47,1.5Zm-2.39-2.17c-.4.35-.49.49-.49.8a.63.63,0,0,0,.58.69.86.86,0,0,0,.65-.35Zm.61-1.65a.35.35,0,0,0-.34-.4.35.35,0,0,0-.33.39,1.06,1.06,0,0,0,.3.62A.76.76,0,0,0,201,143.41Z"/><path class="cls-2" d="M208.07,142.79a3.71,3.71,0,0,1,0,3.92,1.81,1.81,0,0,1-1.4.65A1.84,1.84,0,0,1,205,146.3a3.68,3.68,0,0,1-.29-1.54,3.06,3.06,0,0,1,.56-2,1.79,1.79,0,0,1,1.42-.65A1.83,1.83,0,0,1,208.07,142.79Zm-2.5,2c0,1.09.41,1.74,1.1,1.74s1.11-.65,1.11-1.75a2.1,2.1,0,0,0-.38-1.36,1,1,0,0,0-.71-.36C206,143,205.57,143.66,205.57,144.74Z"/><path class="cls-2" d="M211.8,142.27h.79v5h-.85l-1.68-3.56v3.56h-.79v-5h.9l1.63,3.48Z"/><path class="cls-2" d="M214.19,147.23h-.85v-5h.85Z"/><path class="cls-2" d="M218.16,142.79a3.71,3.71,0,0,1,0,3.92,1.81,1.81,0,0,1-1.4.65,1.84,1.84,0,0,1-1.66-1.06,3.67,3.67,0,0,1-.3-1.54,3.12,3.12,0,0,1,.56-2,1.83,1.83,0,0,1,2.8,0Zm-2.51,2c0,1.09.42,1.74,1.11,1.74s1.11-.65,1.11-1.75a2.16,2.16,0,0,0-.38-1.36,1,1,0,0,0-.72-.36C216.08,143,215.65,143.66,215.65,144.74Z"/><path class="cls-2" d="M221.89,142.27h.78v5h-.84l-1.68-3.56v3.56h-.79v-5h.89l1.64,3.48Z"/><path class="cls-2" d="M224.61,147.23h-.85v-1h.85Z"/><path class="cls-2" d="M226.18,147.23h-.85v-1h.85Z"/><path class="cls-2" d="M227.76,147.23h-.85v-1h.85Z"/><path class="cls-2" d="M229.77,144.39h.12c.46,0,.67-.21.67-.64s-.19-.65-.51-.65-.53.25-.54.8h-.73a1.79,1.79,0,0,1,.23-1,1.2,1.2,0,0,1,1.08-.59,1.24,1.24,0,0,1,1.27,1.34,1,1,0,0,1-.49,1,1.12,1.12,0,0,1,.61,1.15,1.42,1.42,0,0,1-1.39,1.58,1.29,1.29,0,0,1-1-.44,1.75,1.75,0,0,1-.35-1.2h.77v.07c0,.52.22.8.58.8s.6-.32.6-.8-.25-.7-.9-.71Z"/><path class="cls-2" d="M120.32,157.81a.78.78,0,0,0,.89.81c.53,0,.83-.23.83-.64s-.17-.46-.74-.62l-.44-.13a2,2,0,0,1-1-.44,1.38,1.38,0,0,1-.34-1,1.43,1.43,0,0,1,1.55-1.56,1.5,1.5,0,0,1,1.6,1.61h-.81c-.07-.53-.32-.75-.82-.75s-.73.22-.73.6.12.42.43.52l1,.29a1.25,1.25,0,0,1,1.06,1.35,1.5,1.5,0,0,1-1.65,1.61,1.57,1.57,0,0,1-1.51-.81,1.82,1.82,0,0,1-.18-.85Z"/><path class="cls-2" d="M126.08,156a1.37,1.37,0,0,0-.2-.52.78.78,0,0,0-.67-.34c-.66,0-1,.64-1,1.74s.38,1.69,1,1.69a.82.82,0,0,0,.71-.38,1.57,1.57,0,0,0,.19-.55h.85a2.64,2.64,0,0,1-.45,1.19,1.57,1.57,0,0,1-1.31.64c-1.16,0-1.86-1-1.86-2.6s.72-2.63,1.88-2.63a1.66,1.66,0,0,1,1.49.88,2.07,2.07,0,0,1,.25.88Z"/><path class="cls-2" d="M127.58,154.38h2a1.27,1.27,0,0,1,1.29,1.41,1.2,1.2,0,0,1-.63,1.17c.46.24.53.47.52,1.63,0,.44,0,.55.18.62v.13h-.94a4.22,4.22,0,0,1-.1-1c0-.78-.09-.92-.66-.94h-.88v1.94h-.83Zm1.83,2.18a.58.58,0,0,0,.66-.66c0-.44-.21-.67-.6-.67h-1.06v1.33Z"/><path class="cls-2" d="M132.31,159.34h-.9l1.46-5h1l1.43,5h-.92l-.26-1h-1.5Zm.51-1.87h1l-.51-2Z"/><path class="cls-2" d="M139.73,159.34H139v-4.21l-.78,4.21h-.84l-.75-4.21v4.21h-.79v-5H137l.75,3.94.73-3.94h1.22Z"/><path class="cls-2" d="M140.55,154.38h2a1.18,1.18,0,0,1,1.26,1.29,1,1,0,0,1-.5,1,1,1,0,0,1,.48.47,1.71,1.71,0,0,1,.15.72,1.66,1.66,0,0,1-.35,1.05c-.29.34-.59.44-1.3.44h-1.72Zm.82,1.94h1c.4,0,.61-.2.61-.57s-.19-.52-.63-.52h-1Zm0,2.17h1c.43,0,.66-.25.66-.71a.57.57,0,0,0-.62-.62h-1.08Z"/><path class="cls-2" d="M145.5,158.44h2v.9h-2.87v-5h.85Z"/><path class="cls-2" d="M151.11,155.25h-2.17v1.05h2v.88h-2v1.28h2.26v.88h-3.08v-5h3Z"/><path class="cls-2" d="M151.9,154.38h1.8c1.05,0,1.66.87,1.66,2.37a3.4,3.4,0,0,1-.58,2.07,1.39,1.39,0,0,1-1.12.52H151.9Zm.83,4.11h.83c.59,0,.93-.63.93-1.71s-.3-1.55-1-1.55h-.81Z"/><path class="cls-2" d="M157.23,154.38h.91c.48,2.52.57,3,.66,3.67.11-.87.25-1.74.56-3.67h.91c.45,2.59.5,2.93.61,3.67.09-.64.2-1.25.67-3.67h.86l-1.15,5h-.81c-.42-2.41-.48-2.79-.64-3.91-.21,1.39-.37,2.41-.46,2.93l-.17,1h-.79Z"/><path class="cls-2" d="M163.72,159.34h-.85v-5h.85Z"/><path class="cls-2" d="M166.26,159.34h-.85v-4.09h-1.23v-.87h3.31v.87h-1.23Z"/><path class="cls-2" d="M168.83,157.11v2.23H168v-5h.85v1.88h1.59v-1.88h.85v5h-.85v-2.23Z"/><path class="cls-2" d="M176.28,156a1.37,1.37,0,0,0-.2-.52.81.81,0,0,0-.67-.34c-.67,0-1,.64-1,1.74s.38,1.69,1,1.69a.8.8,0,0,0,.71-.38,1.55,1.55,0,0,0,.2-.55h.85a2.53,2.53,0,0,1-.46,1.19,1.55,1.55,0,0,1-1.3.64c-1.17,0-1.87-1-1.87-2.6s.73-2.63,1.89-2.63a1.64,1.64,0,0,1,1.48.88,1.94,1.94,0,0,1,.26.88Z"/><path class="cls-2" d="M178.6,157.11v2.23h-.85v-5h.85v1.88h1.59v-1.88H181v5h-.85v-2.23Z"/><path class="cls-2" d="M184.86,155.25H182.7v1.05h2v.88h-2v1.28H185v.88h-3.09v-5h3Z"/><path class="cls-2" d="M185.66,154.38h1.79c1.05,0,1.66.87,1.66,2.37a3.4,3.4,0,0,1-.58,2.07,1.38,1.38,0,0,1-1.11.52h-1.76Zm.82,4.11h.83c.59,0,.94-.63.94-1.71s-.31-1.55-.95-1.55h-.82Z"/><path class="cls-2" d="M189.75,154.38h1.8c1,0,1.66.87,1.66,2.37a3.4,3.4,0,0,1-.58,2.07,1.39,1.39,0,0,1-1.12.52h-1.76Zm.83,4.11h.83c.59,0,.93-.63.93-1.71s-.3-1.55-.94-1.55h-.82Z"/><path class="cls-2" d="M194.25,159.34h-.89l1.45-5h1l1.44,5h-.93l-.26-1h-1.5Zm.52-1.87h1l-.51-2Z"/><path class="cls-2" d="M197.77,154.38h2a1.27,1.27,0,0,1,1.29,1.41,1.2,1.2,0,0,1-.63,1.17c.46.24.52.47.52,1.63,0,.44,0,.55.18.62v.13h-.94a4.22,4.22,0,0,1-.1-1c0-.78-.09-.92-.66-.94h-.88v1.94h-.83Zm1.83,2.18a.58.58,0,0,0,.66-.66c0-.44-.21-.67-.6-.67H198.6v1.33Z"/><path class="cls-2" d="M204.1,159.34h-.85v-1h.85Z"/><path class="cls-2" d="M205.68,159.34h-.85v-1h.85Z"/><path class="cls-2" d="M207.25,159.34h-.85v-1h.85Z"/><path class="cls-2" d="M208.83,159.34H208v-1h.85Z"/><path class="cls-2" d="M210.41,159.34h-.85v-1h.85Z"/><path class="cls-2" d="M212,159.34h-.86v-1H212Z"/><path class="cls-2" d="M213.56,159.34h-.85v-1h.85Z"/><path class="cls-2" d="M215.14,159.34h-.85v-1h.85Z"/><path class="cls-2" d="M216.72,159.34h-.85v-1h.85Z"/><path class="cls-2" d="M218.3,159.34h-.85v-1h.85Z"/><path class="cls-2" d="M219.87,159.34H219v-1h.85Z"/><path class="cls-2" d="M221.45,159.34h-.85v-1h.85Z"/><path class="cls-2" d="M223,159.34h-.85v-1H223Z"/><path class="cls-2" d="M224.61,159.34h-.86v-1h.86Z"/><path class="cls-2" d="M226.18,159.34h-.85v-1h.85Z"/><path class="cls-2" d="M227.76,159.34h-.85v-1h.85Z"/><path class="cls-2" d="M229.54,156.4a.94.94,0,0,1,.7-.27c.73,0,1.24.65,1.24,1.57,0,1.07-.56,1.77-1.43,1.77a1.25,1.25,0,0,1-1.15-.68,1.69,1.69,0,0,1-.19-.76h.8c0,.45.22.67.55.67s.61-.36.61-.92-.23-.88-.61-.88a.53.53,0,0,0-.52.35l-.71,0,.28-2.7h2.21v.82h-1.63Z"/><path class="cls-2" d="M121.44,170.87h-.85v-4.08h-1.23v-.88h3.31v.88h-1.23Z"/><path class="cls-2" d="M124,168.64v2.23h-.85v-5H124v1.88h1.59v-1.88h.85v5h-.85v-2.23Z"/><path class="cls-2" d="M130.28,166.79h-2.17v1h2v.88h-2V170h2.26v.88h-3.09v-5h3Z"/><path class="cls-2" d="M132.31,165.91h.9c.49,2.52.57,3,.66,3.67.12-.87.25-1.74.57-3.67h.9c.45,2.59.51,2.93.61,3.67.1-.64.21-1.25.67-3.67h.86l-1.14,5h-.82c-.41-2.41-.48-2.78-.64-3.9-.21,1.39-.37,2.4-.46,2.92l-.17,1h-.79Z"/><path class="cls-2" d="M141.06,166.43a3.71,3.71,0,0,1,0,3.92,1.82,1.82,0,0,1-3.05-.41,3.52,3.52,0,0,1-.3-1.54,3.06,3.06,0,0,1,.56-2,1.82,1.82,0,0,1,2.79,0Zm-2.5,1.95c0,1.09.41,1.75,1.11,1.75s1.1-.66,1.1-1.76a2.18,2.18,0,0,0-.37-1.36,1,1,0,0,0-.72-.36C139,166.65,138.56,167.31,138.56,168.38Z"/><path class="cls-2" d="M142.3,165.91h2.06a1.26,1.26,0,0,1,1.28,1.41,1.18,1.18,0,0,1-.63,1.17c.46.25.53.47.52,1.64,0,.43,0,.54.18.61v.13h-.94a4.12,4.12,0,0,1-.1-1c0-.78-.09-.93-.66-.94h-.88v1.93h-.83Zm1.84,2.18c.44,0,.65-.2.65-.66s-.21-.67-.59-.67h-1.07v1.33Z"/><path class="cls-2" d="M147.3,170.87h-.85v-5h.85v2l1.55-2H150l-1.66,2,1.76,2.93H149l-1.27-2.18-.39.5Z"/><path class="cls-2" d="M151,169.34a.78.78,0,0,0,.89.81c.53,0,.83-.23.83-.63s-.17-.47-.74-.63l-.44-.13a2,2,0,0,1-.95-.44,1.38,1.38,0,0,1-.34-1,1.42,1.42,0,0,1,1.55-1.55,1.5,1.5,0,0,1,1.6,1.6h-.81a.74.74,0,0,0-.82-.75c-.46,0-.73.23-.73.6s.12.42.43.52l1,.29a1.25,1.25,0,0,1,1.06,1.35,1.5,1.5,0,0,1-1.65,1.61,1.57,1.57,0,0,1-1.51-.81,1.79,1.79,0,0,1-.18-.85Z"/><path class="cls-2" d="M158.9,166.43a3.71,3.71,0,0,1,0,3.92,1.81,1.81,0,0,1-1.4.65,1.84,1.84,0,0,1-1.66-1.06,3.68,3.68,0,0,1-.29-1.54,3.06,3.06,0,0,1,.56-2,1.79,1.79,0,0,1,1.42-.65A1.83,1.83,0,0,1,158.9,166.43Zm-2.5,1.95c0,1.09.41,1.75,1.1,1.75s1.11-.66,1.11-1.76a2.12,2.12,0,0,0-.38-1.36,1,1,0,0,0-.71-.36C156.82,166.65,156.4,167.31,156.4,168.38Z"/><path class="cls-2" d="M162.63,165.91h.79v5h-.85l-1.68-3.56v3.56h-.79v-5h.9l1.63,3.48Z"/><path class="cls-2" d="M168.41,167.53a1.37,1.37,0,0,0-.2-.52.79.79,0,0,0-.67-.33c-.66,0-1,.63-1,1.73s.38,1.69,1,1.69a.82.82,0,0,0,.71-.38,1.57,1.57,0,0,0,.19-.55h.85a2.64,2.64,0,0,1-.45,1.19,1.58,1.58,0,0,1-1.31.64c-1.16,0-1.87-1-1.87-2.6s.73-2.62,1.89-2.62a1.66,1.66,0,0,1,1.49.87,2.07,2.07,0,0,1,.25.88Z"/><path class="cls-2" d="M170.69,170.87h-.85v-5h.85Z"/><path class="cls-2" d="M172.07,170.87h-.9l1.45-5h1l1.44,5h-.93l-.26-1h-1.5Zm.51-1.87h1l-.52-2Z"/><path class="cls-2" d="M175.56,165.91h2a1.18,1.18,0,0,1,1.26,1.29,1,1,0,0,1-.5,1,1,1,0,0,1,.48.46,1.71,1.71,0,0,1,.15.72,1.62,1.62,0,0,1-.35,1.05c-.29.34-.59.44-1.3.44h-1.72Zm.82,1.94h1c.4,0,.61-.2.61-.57s-.19-.52-.63-.52h-1Zm0,2.17h1a.61.61,0,0,0,.66-.7.57.57,0,0,0-.62-.63h-1.08Z"/><path class="cls-2" d="M180.1,170.87h-.9l1.45-5h1l1.44,5h-.92l-.27-1h-1.5Zm.51-1.87h1l-.51-2Z"/><path class="cls-2" d="M184.91,170.87h-.85v-4.08h-1.23v-.88h3.31v.88h-1.23Z"/><path class="cls-2" d="M188.54,170.87h-.85v-4.08h-1.23v-.88h3.31v.88h-1.23Z"/><path class="cls-2" d="M190.41,170.87h-.89l1.45-5h1l1.44,5h-.93l-.26-1h-1.5Zm.52-1.87h1l-.51-2Z"/><path class="cls-2" d="M196.21,170.87h-.85v-1h.85Z"/><path class="cls-2" d="M197.79,170.87h-.85v-1h.85Z"/><path class="cls-2" d="M199.37,170.87h-.85v-1h.85Z"/><path class="cls-2" d="M201,170.87h-.85v-1H201Z"/><path class="cls-2" d="M202.52,170.87h-.85v-1h.85Z"/><path class="cls-2" d="M204.1,170.87h-.85v-1h.85Z"/><path class="cls-2" d="M205.68,170.87h-.85v-1h.85Z"/><path class="cls-2" d="M207.26,170.87h-.85v-1h.85Z"/><path class="cls-2" d="M208.83,170.87H208v-1h.85Z"/><path class="cls-2" d="M210.41,170.87h-.85v-1h.85Z"/><path class="cls-2" d="M212,170.87h-.85v-1H212Z"/><path class="cls-2" d="M213.57,170.87h-.86v-1h.86Z"/><path class="cls-2" d="M215.14,170.87h-.85v-1h.85Z"/><path class="cls-2" d="M216.72,170.87h-.85v-1h.85Z"/><path class="cls-2" d="M218.3,170.87h-.85v-1h.85Z"/><path class="cls-2" d="M219.87,170.87H219v-1h.85Z"/><path class="cls-2" d="M221.45,170.87h-.85v-1h.85Z"/><path class="cls-2" d="M223,170.87h-.85v-1H223Z"/><path class="cls-2" d="M224.61,170.87h-.85v-1h.85Z"/><path class="cls-2" d="M226.18,170.87h-.85v-1h.85Z"/><path class="cls-2" d="M227.76,170.87h-.85v-1h.85Z"/><path class="cls-2" d="M231.55,166.79a7.41,7.41,0,0,0-1.47,4.08h-.82a7.53,7.53,0,0,1,1.44-4h-2v-.85h2.84Z"/><path class="cls-2" d="M121.62,176.23v.41h-2v-3.32h2v.41H120v1h1.48v.41H120v1.09Z"/><path class="cls-2" d="M123.28,175.25v-.39h1.19v1.78h-.24l-.08-.43a1.34,1.34,0,0,1-.35.36,1.13,1.13,0,0,1-.57.15,1,1,0,0,1-.81-.37A2,2,0,0,1,122,175a2.21,2.21,0,0,1,.35-1.29,1.1,1.1,0,0,1,.93-.49,1.08,1.08,0,0,1,.56.14,1.15,1.15,0,0,1,.42.4,1.43,1.43,0,0,1,.17.55h-.35A1.21,1.21,0,0,0,124,174a.63.63,0,0,0-.17-.2.72.72,0,0,0-.51-.18.77.77,0,0,0-.67.37,2.22,2.22,0,0,0,0,2,.83.83,0,0,0,1.31,0,1.26,1.26,0,0,0,.21-.79Z"/><path class="cls-2" d="M126.22,175.25v-.39h1.19v1.78h-.24l-.08-.43a1.21,1.21,0,0,1-.35.36,1.1,1.1,0,0,1-.57.15,1,1,0,0,1-.81-.37,2,2,0,0,1-.43-1.33,2.14,2.14,0,0,1,.36-1.29,1.07,1.07,0,0,1,.92-.49,1.13,1.13,0,0,1,1,.54,1.43,1.43,0,0,1,.18.55H127a1.25,1.25,0,0,0-.1-.31.79.79,0,0,0-.17-.2.81.81,0,0,0-1.19.19,2.22,2.22,0,0,0,0,2,.79.79,0,0,0,.69.34.76.76,0,0,0,.62-.3,1.33,1.33,0,0,0,.22-.79Z"/><path class="cls-2" d="M128,176.64v-.5h.4v.46c0,.41-.13.65-.4.71v-.21c.13,0,.2-.17.2-.46Z"/><path class="cls-2" d="M132.34,174.32H132a1,1,0,0,0-.25-.51.78.78,0,0,0-.5-.17.75.75,0,0,0-.66.36,1.78,1.78,0,0,0-.24,1,1.76,1.76,0,0,0,.23,1,.73.73,0,0,0,.65.35.68.68,0,0,0,.6-.34,1.62,1.62,0,0,0,.2-.56h.35a2.52,2.52,0,0,1-.16.6,1,1,0,0,1-.24.37,1.09,1.09,0,0,1-1.68-.14A2.15,2.15,0,0,1,130,175a2.1,2.1,0,0,1,.35-1.27,1.06,1.06,0,0,1,.92-.47,1,1,0,0,1,.94.52A1.32,1.32,0,0,1,132.34,174.32Z"/><path class="cls-2" d="M134.58,174.69v-1.37h.36v3.32h-.36v-1.55h-1.42v1.55h-.37v-3.32h.37v1.37Z"/><path class="cls-2" d="M137.56,176.23v.41h-2v-3.32h2v.41h-1.6v1h1.48v.41h-1.48v1.09Z"/><path class="cls-2" d="M138.06,176.64v-3.32h1.1a1,1,0,0,1,.83.44,2,2,0,0,1,.31,1.18,2.09,2.09,0,0,1-.38,1.34.93.93,0,0,1-.77.36Zm.37-2.93v2.54h.71a.64.64,0,0,0,.57-.34,1.69,1.69,0,0,0,.22-.93,1.75,1.75,0,0,0-.21-.94.68.68,0,0,0-.61-.33Z"/><path class="cls-2" d="M140.79,176.64v-3.32h1.1a1,1,0,0,1,.83.44,2,2,0,0,1,.31,1.18,2.09,2.09,0,0,1-.38,1.34.93.93,0,0,1-.77.36Zm.37-2.93v2.54h.71a.64.64,0,0,0,.57-.34,1.69,1.69,0,0,0,.22-.93,1.75,1.75,0,0,0-.21-.94.68.68,0,0,0-.61-.33Z"/><path class="cls-2" d="M144.87,175.67h-1.09l-.28,1h-.38l1-3.32h.42l1,3.32h-.4Zm-1-.4h.85l-.41-1.47Z"/><path class="cls-2" d="M146.29,175.21v1.43h-.37v-3.32h1.26a.9.9,0,0,1,.66.23.94.94,0,0,1,.23.67,1.19,1.19,0,0,1-.08.46,1.12,1.12,0,0,1-.3.33.48.48,0,0,1,.25.21,1.12,1.12,0,0,1,.08.41l0,.6a.79.79,0,0,0,0,.21.3.3,0,0,0,.11.12v.08h-.45a3.89,3.89,0,0,1-.07-.83.75.75,0,0,0-.11-.46.47.47,0,0,0-.37-.14Zm0-1.5v1.12h.85a.57.57,0,0,0,.42-.14.6.6,0,0,0,.13-.43c0-.37-.16-.55-.49-.55Z"/><path class="cls-2" d="M148.65,176.64v-.5h.4v.46c0,.41-.14.65-.4.71v-.21c.13,0,.2-.17.2-.46Z"/><path class="cls-2" d="M150.47,173.73v-.41h2.21v.41h-.91v2.91h-.37v-2.91Z"/><path class="cls-2" d="M154.11,173.24a1.15,1.15,0,0,1,1.08.72,2.25,2.25,0,0,1,.22,1,2.06,2.06,0,0,1-.41,1.32,1.21,1.21,0,0,1-1.83,0,2.06,2.06,0,0,1-.41-1.32,2,2,0,0,1,.41-1.32A1.15,1.15,0,0,1,154.11,173.24Zm0,.4a.83.83,0,0,0-.7.36,2,2,0,0,0,0,1.95.8.8,0,0,0,.69.37.78.78,0,0,0,.68-.37,1.59,1.59,0,0,0,.26-1,1.61,1.61,0,0,0-.26-1A.77.77,0,0,0,154.1,173.64Z"/><path class="cls-2" d="M158.44,176.64h-.36v-2.3c0-.06,0-.14,0-.24v-.27l-.77,2.81H157l-.77-2.81v.64a1.48,1.48,0,0,1,0,.21v2h-.36v-3.32h.53l.78,2.82.77-2.82h.53Z"/><path class="cls-2" d="M160.51,175.67h-1.09l-.28,1h-.38l1-3.32h.42l1,3.32h-.4Zm-1-.4h.85L160,173.8Z"/><path class="cls-2" d="M160.94,173.73v-.41h2.21v.41h-.92v2.91h-.37v-2.91Z"/><path class="cls-2" d="M164.58,173.24a1.15,1.15,0,0,1,1.08.72,2.25,2.25,0,0,1,.22,1,2.06,2.06,0,0,1-.41,1.32,1.21,1.21,0,0,1-1.83,0,2.06,2.06,0,0,1-.41-1.32,2,2,0,0,1,.41-1.32A1.15,1.15,0,0,1,164.58,173.24Zm0,.4a.82.82,0,0,0-.7.36,2,2,0,0,0,0,1.95.82.82,0,0,0,1.37,0,1.66,1.66,0,0,0,.26-1,1.61,1.61,0,0,0-.26-1A.77.77,0,0,0,164.57,173.64Z"/><path class="cls-2" d="M166.35,176.64v-.5h.4v.46c0,.41-.13.65-.4.71v-.21c.14,0,.2-.17.21-.46Z"/><path class="cls-2" d="M169.62,173.24a1.17,1.17,0,0,1,1.09.72,2.39,2.39,0,0,1,.22,1,2.06,2.06,0,0,1-.41,1.32,1.12,1.12,0,0,1-.92.42,1.09,1.09,0,0,1-.91-.42,2,2,0,0,1-.41-1.32,2,2,0,0,1,.41-1.32A1.14,1.14,0,0,1,169.62,173.24Zm0,.4a.81.81,0,0,0-.7.36,2,2,0,0,0,0,1.95.78.78,0,0,0,.68.37.81.81,0,0,0,.69-.37,1.66,1.66,0,0,0,.26-1,1.68,1.68,0,0,0-.26-1A.78.78,0,0,0,169.62,173.64Z"/><path class="cls-2" d="M173.16,176v-2.69h.36v3.32h-.41l-1.4-2.69v2.69h-.35v-3.32h.43Z"/><path class="cls-2" d="M174.51,173.32v3.32h-.36v-3.32Z"/><path class="cls-2" d="M176.35,173.24a1.15,1.15,0,0,1,1.08.72,2.25,2.25,0,0,1,.22,1,2.06,2.06,0,0,1-.41,1.32,1.21,1.21,0,0,1-1.83,0A2.06,2.06,0,0,1,175,175a2,2,0,0,1,.41-1.32A1.15,1.15,0,0,1,176.35,173.24Zm0,.4a.83.83,0,0,0-.7.36,2,2,0,0,0,0,1.95.8.8,0,0,0,.69.37A.78.78,0,0,0,177,176a1.59,1.59,0,0,0,.26-1,1.61,1.61,0,0,0-.26-1A.77.77,0,0,0,176.34,173.64Z"/><path class="cls-2" d="M179.89,176v-2.69h.35v3.32h-.41L178.44,174v2.69h-.36v-3.32h.44Z"/><path class="cls-2" d="M183.54,175.92l.48.72h-.43l-.25-.38a1.65,1.65,0,0,1-.36.35.94.94,0,0,1-.43.09.75.75,0,0,1-.59-.24,1,1,0,0,1-.21-.67,1,1,0,0,1,.12-.53,2,2,0,0,1,.49-.47,2.34,2.34,0,0,1-.23-.4.89.89,0,0,1,.12-.86.59.59,0,0,1,.47-.21.58.58,0,0,1,.44.19.75.75,0,0,1,.16.5.78.78,0,0,1-.11.44,1.41,1.41,0,0,1-.38.42l.5.72a2.81,2.81,0,0,0,.11-.51h.32A2.75,2.75,0,0,1,183.54,175.92Zm-.38.06-.62-.91a2.1,2.1,0,0,0-.37.37.63.63,0,0,0-.09.35.61.61,0,0,0,.14.4.47.47,0,0,0,.37.16A.7.7,0,0,0,183.16,176Zm-.5-1.37a1.15,1.15,0,0,0,.27-.29A.54.54,0,0,0,183,174a.39.39,0,0,0-.08-.25.26.26,0,0,0-.22-.1.28.28,0,0,0-.22.09.37.37,0,0,0-.08.26A1,1,0,0,0,182.66,174.61Z"/><path class="cls-2" d="M187.42,174.29h-.34a.86.86,0,0,0-.11-.39.62.62,0,0,0-.57-.28.64.64,0,0,0-.45.15.54.54,0,0,0-.16.42.4.4,0,0,0,.32.43l.77.22a.82.82,0,0,1,.62.89,1,1,0,0,1-.29.73,1.13,1.13,0,0,1-.78.26,1,1,0,0,1-.89-.41,1.25,1.25,0,0,1-.2-.74h.35a.88.88,0,0,0,.1.45.72.72,0,0,0,.66.32.79.79,0,0,0,.51-.15.52.52,0,0,0,.18-.42.49.49,0,0,0-.12-.36,1,1,0,0,0-.45-.21L186,175a.74.74,0,0,1-.58-.79,1.09,1.09,0,0,1,.23-.7.87.87,0,0,1,.74-.31.93.93,0,0,1,.89.46A1.67,1.67,0,0,1,187.42,174.29Z"/><path class="cls-2" d="M189.17,173.24a1.18,1.18,0,0,1,1.09.72,2.38,2.38,0,0,1,.21,1,2,2,0,0,1-.41,1.32,1.2,1.2,0,0,1-1.82,0,2,2,0,0,1-.41-1.32,2,2,0,0,1,.41-1.32A1.11,1.11,0,0,1,189.17,173.24Zm0,.4a.83.83,0,0,0-.7.36,2,2,0,0,0,0,1.95.81.81,0,0,0,.69.37.78.78,0,0,0,.68-.37,1.59,1.59,0,0,0,.26-1,1.68,1.68,0,0,0-.25-1A.8.8,0,0,0,189.16,173.64Z"/><path class="cls-2" d="M191.87,175.3v1.34h-.36V175.3l-1-2h.43l.78,1.59.78-1.59h.43Z"/><path class="cls-2" d="M196.28,174.29h-.35a.86.86,0,0,0-.11-.39.62.62,0,0,0-.57-.28.64.64,0,0,0-.45.15.54.54,0,0,0-.16.42.4.4,0,0,0,.32.43l.77.22a.82.82,0,0,1,.62.89,1,1,0,0,1-.29.73,1.13,1.13,0,0,1-.78.26,1,1,0,0,1-.89-.41,1.25,1.25,0,0,1-.2-.74h.35a.88.88,0,0,0,.1.45.72.72,0,0,0,.66.32.78.78,0,0,0,.51-.15.52.52,0,0,0,.18-.42.49.49,0,0,0-.12-.36,1,1,0,0,0-.45-.21l-.56-.16a.74.74,0,0,1-.58-.79,1.09,1.09,0,0,1,.23-.7.87.87,0,0,1,.74-.31.93.93,0,0,1,.89.46A1.89,1.89,0,0,1,196.28,174.29Z"/><path class="cls-2" d="M198.27,175.67h-1.09l-.29,1h-.38l1-3.32H198l1,3.32h-.41Zm-1-.4h.84l-.4-1.47Z"/><path class="cls-2" d="M200.92,173.32h.37v2.15a1.31,1.31,0,0,1-.29.91,1,1,0,0,1-.8.34,1,1,0,0,1-.76-.32,1.25,1.25,0,0,1-.28-.87v-2.21h.37v2.09a1.07,1.07,0,0,0,.18.67.6.6,0,0,0,.51.24.64.64,0,0,0,.52-.23,1.09,1.09,0,0,0,.18-.67Z"/><path class="cls-2" d="M203.86,174.29h-.35a1,1,0,0,0-.1-.39.63.63,0,0,0-.58-.28.64.64,0,0,0-.45.15.54.54,0,0,0-.16.42.41.41,0,0,0,.32.43l.77.22a.81.81,0,0,1,.62.89,1,1,0,0,1-.28.73,1.17,1.17,0,0,1-.79.26,1,1,0,0,1-.89-.41,1.33,1.33,0,0,1-.2-.74h.35a.88.88,0,0,0,.11.45.69.69,0,0,0,.65.32.78.78,0,0,0,.51-.15.5.5,0,0,0,.19-.42.49.49,0,0,0-.12-.36,1.1,1.1,0,0,0-.46-.21l-.56-.16a.74.74,0,0,1-.57-.79,1.09,1.09,0,0,1,.22-.7.88.88,0,0,1,.74-.31.92.92,0,0,1,.89.46A1.65,1.65,0,0,1,203.86,174.29Z"/><path class="cls-2" d="M205.85,175.67h-1.09l-.28,1h-.38l1-3.32h.42l1,3.32h-.4Zm-1-.4h.85l-.41-1.47Z"/><path class="cls-2" d="M207.9,175.25v-.39h1.19v1.78h-.24l-.08-.43a1.21,1.21,0,0,1-.35.36,1.1,1.1,0,0,1-.57.15,1,1,0,0,1-.81-.37,2,2,0,0,1-.43-1.33,2.14,2.14,0,0,1,.36-1.29,1.07,1.07,0,0,1,.92-.49,1.13,1.13,0,0,1,1,.54,1.43,1.43,0,0,1,.18.55h-.36a1.25,1.25,0,0,0-.1-.31.67.67,0,0,0-.18-.2.72.72,0,0,0-.51-.18.77.77,0,0,0-.67.37,2.22,2.22,0,0,0,0,2,.79.79,0,0,0,.69.34.76.76,0,0,0,.62-.3,1.33,1.33,0,0,0,.22-.79Z"/><path class="cls-2" d="M211.7,176.23v.41h-2v-3.32h2v.41h-1.61v1h1.48v.41h-1.48v1.09Z"/><path class="cls-2" d="M121.44,188.17h-.85v-4.09h-1.23v-.88h3.31v.88h-1.23Z"/><path class="cls-2" d="M124,185.93v2.24h-.85v-5H124v1.88h1.59V183.2h.85v5h-.85v-2.24Z"/><path class="cls-2" d="M130.28,184.08h-2.17v1h2V186h-2v1.29h2.26v.88h-3.09v-5h3Z"/><path class="cls-2" d="M133.25,186.64a.78.78,0,0,0,.9.81c.52,0,.82-.23.82-.64s-.17-.46-.74-.63l-.44-.12a2,2,0,0,1-.94-.44,1.34,1.34,0,0,1-.35-1,1.43,1.43,0,0,1,1.55-1.56,1.5,1.5,0,0,1,1.6,1.61h-.81c-.07-.53-.31-.76-.82-.76s-.73.23-.73.6.12.43.43.52l1,.3a1.25,1.25,0,0,1,1.06,1.35,1.5,1.5,0,0,1-1.65,1.61,1.59,1.59,0,0,1-1.51-.81,1.82,1.82,0,0,1-.18-.85Z"/><path class="cls-2" d="M138.14,188.17h-.85v-4.09h-1.23v-.88h3.31v.88h-1.23Z"/><path class="cls-2" d="M143.15,186.43c0,1.22-.58,1.87-1.66,1.87s-1.63-.66-1.63-1.81V183.2h.87v3.22c0,.64.27,1,.76,1s.79-.32.79-.95V183.2h.87Z"/><path class="cls-2" d="M144,183.2h1.8c1.05,0,1.65.87,1.65,2.38a3.33,3.33,0,0,1-.58,2.07,1.38,1.38,0,0,1-1.11.52H144Zm.83,4.12h.83c.58,0,.93-.63.93-1.71s-.3-1.56-.95-1.56h-.81Z"/><path class="cls-2" d="M149.6,186.68H148v-.9h1.58Z"/><path class="cls-2" d="M154.09,188.17h-.79V184l-.77,4.21h-.84l-.75-4.21v4.21h-.79v-5h1.24l.74,3.94.74-3.94h1.22Z"/><path class="cls-2" d="M158.17,186.43c0,1.22-.57,1.87-1.65,1.87s-1.63-.66-1.63-1.81V183.2h.86v3.22c0,.64.28,1,.77,1s.79-.32.79-.95V183.2h.86Z"/><path class="cls-2" d="M159.85,188.17H159v-5h2.9v.88h-2.05v1.12h1.8v.88h-1.8Z"/><path class="cls-2" d="M163.32,188.17h-.85v-5h2.9v.88h-2.05v1.12h1.79v.88h-1.79Z"/><path class="cls-2" d="M166.72,188.17h-.85v-5h.85Z"/><path class="cls-2" d="M170,183.2h.79v5H170l-1.68-3.56v3.56h-.79v-5h.89l1.63,3.49Z"/><path class="cls-2" d="M172.55,188.17h-.85v-1h.85Z"/><path class="cls-2" d="M174.13,188.17h-.85v-1h.85Z"/><path class="cls-2" d="M175.71,188.17h-.85v-1h.85Z"/><path class="cls-2" d="M177.28,188.17h-.85v-1h.85Z"/><path class="cls-2" d="M178.86,188.17H178v-1h.85Z"/><path class="cls-2" d="M180.44,188.17h-.85v-1h.85Z"/><path class="cls-2" d="M182,188.17h-.85v-1H182Z"/><path class="cls-2" d="M183.59,188.17h-.85v-1h.85Z"/><path class="cls-2" d="M185.17,188.17h-.85v-1h.85Z"/><path class="cls-2" d="M186.75,188.17h-.85v-1h.85Z"/><path class="cls-2" d="M188.33,188.17h-.85v-1h.85Z"/><path class="cls-2" d="M189.9,188.17h-.85v-1h.85Z"/><path class="cls-2" d="M191.48,188.17h-.85v-1h.85Z"/><path class="cls-2" d="M193.06,188.17h-.85v-1h.85Z"/><path class="cls-2" d="M194.64,188.17h-.86v-1h.86Z"/><path class="cls-2" d="M196.21,188.17h-.85v-1h.85Z"/><path class="cls-2" d="M197.79,188.17h-.85v-1h.85Z"/><path class="cls-2" d="M199.37,188.17h-.85v-1h.85Z"/><path class="cls-2" d="M201,188.17h-.86v-1H201Z"/><path class="cls-2" d="M202.52,188.17h-.85v-1h.85Z"/><path class="cls-2" d="M204.1,188.17h-.85v-1h.85Z"/><path class="cls-2" d="M205.68,188.17h-.85v-1h.85Z"/><path class="cls-2" d="M207.25,188.17h-.85v-1h.85Z"/><path class="cls-2" d="M208.83,188.17H208v-1h.85Z"/><path class="cls-2" d="M210.41,188.17h-.85v-1h.85Z"/><path class="cls-2" d="M212,188.17h-.85v-1H212Z"/><path class="cls-2" d="M213.56,188.17h-.85v-1h.85Z"/><path class="cls-2" d="M215.14,188.17h-.85v-1h.85Z"/><path class="cls-2" d="M216.72,188.17h-.85v-1h.85Z"/><path class="cls-2" d="M218.3,188.17h-.85v-1h.85Z"/><path class="cls-2" d="M219.87,188.17H219v-1h.85Z"/><path class="cls-2" d="M221.45,188.17h-.85v-1h.85Z"/><path class="cls-2" d="M223,188.17h-.85v-1H223Z"/><path class="cls-2" d="M224.61,188.17h-.85v-1h.85Z"/><path class="cls-2" d="M226.18,188.17h-.85v-1h.85Z"/><path class="cls-2" d="M227.76,188.17h-.85v-1h.85Z"/><path class="cls-2" d="M231.53,186.69a1.44,1.44,0,0,1-1.4,1.61,1.37,1.37,0,0,1-1.39-1.54,1.24,1.24,0,0,1,.61-1.2,1,1,0,0,1-.49-1,1.24,1.24,0,0,1,1.27-1.34,1.21,1.21,0,0,1,1.26,1.29,1.1,1.1,0,0,1-.46,1A1.19,1.19,0,0,1,231.53,186.69Zm-2,.05c0,.48.23.78.58.78s.58-.31.58-.78-.23-.76-.58-.76S229.55,186.27,229.55,186.74Zm.07-2.11a.56.56,0,0,0,.52.62c.3,0,.49-.24.49-.61s-.19-.61-.47-.61A.54.54,0,0,0,229.62,184.63Z"/><path class="cls-2" d="M121.62,193.53v.4h-2v-3.31h2v.4H120v1h1.48v.4H120v1.1Z"/><path class="cls-2" d="M123.28,192.54v-.38h1.19v1.77h-.24l-.08-.43a1.34,1.34,0,0,1-.35.36,1,1,0,0,1-.57.16,1,1,0,0,1-.81-.37,2,2,0,0,1-.43-1.33,2.21,2.21,0,0,1,.35-1.29,1.11,1.11,0,0,1,.93-.5,1.09,1.09,0,0,1,.56.15,1.15,1.15,0,0,1,.42.4,1.32,1.32,0,0,1,.17.55h-.35a1.08,1.08,0,0,0-.11-.31.78.78,0,0,0-.17-.21.72.72,0,0,0-.51-.18.79.79,0,0,0-.67.37,2.25,2.25,0,0,0,0,2,.8.8,0,0,0,.68.34.78.78,0,0,0,.63-.3,1.29,1.29,0,0,0,.21-.8Z"/><path class="cls-2" d="M126.22,192.54v-.38h1.19v1.77h-.24l-.08-.43a1.21,1.21,0,0,1-.35.36,1,1,0,0,1-.57.16,1,1,0,0,1-.81-.37,2,2,0,0,1-.43-1.33,2.14,2.14,0,0,1,.36-1.29,1.08,1.08,0,0,1,.92-.5,1.09,1.09,0,0,1,.56.15,1.08,1.08,0,0,1,.42.4,1.32,1.32,0,0,1,.18.55H127a1.12,1.12,0,0,0-.1-.31,1,1,0,0,0-.17-.21.77.77,0,0,0-.52-.18.79.79,0,0,0-.67.37,2.25,2.25,0,0,0,0,2,.81.81,0,0,0,.69.34.76.76,0,0,0,.62-.3,1.36,1.36,0,0,0,.22-.8Z"/><path class="cls-2" d="M128,193.93v-.49h.4v.46c0,.41-.13.65-.4.71v-.21c.13,0,.2-.18.2-.47Z"/><path class="cls-2" d="M132.34,191.62H132a.94.94,0,0,0-.25-.51.73.73,0,0,0-.5-.18.76.76,0,0,0-.66.37,1.77,1.77,0,0,0-.24,1,1.8,1.8,0,0,0,.23,1,.75.75,0,0,0,.65.35.68.68,0,0,0,.6-.34,1.61,1.61,0,0,0,.2-.57h.35a2.52,2.52,0,0,1-.16.6,1,1,0,0,1-.24.38,1,1,0,0,1-.78.33,1.05,1.05,0,0,1-.9-.47,2.17,2.17,0,0,1-.33-1.27,2.1,2.1,0,0,1,.35-1.27,1.07,1.07,0,0,1,.92-.48,1,1,0,0,1,.94.53A1.32,1.32,0,0,1,132.34,191.62Z"/><path class="cls-2" d="M134.58,192v-1.37h.36v3.31h-.36v-1.54h-1.42v1.54h-.37v-3.31h.37V192Z"/><path class="cls-2" d="M137.56,193.53v.4h-2v-3.31h2v.4h-1.6v1h1.48v.4h-1.48v1.1Z"/><path class="cls-2" d="M138.06,193.93v-3.31h1.1a1,1,0,0,1,.83.44,2,2,0,0,1,.31,1.18,2.11,2.11,0,0,1-.38,1.34,1,1,0,0,1-.77.35Zm.37-2.93v2.55h.71a.64.64,0,0,0,.57-.34,1.69,1.69,0,0,0,.22-.93,1.78,1.78,0,0,0-.21-.95.68.68,0,0,0-.61-.33Z"/><path class="cls-2" d="M140.79,193.93v-3.31h1.1a1,1,0,0,1,.83.44,2,2,0,0,1,.31,1.18,2.11,2.11,0,0,1-.38,1.34,1,1,0,0,1-.77.35Zm.37-2.93v2.55h.71a.64.64,0,0,0,.57-.34,1.69,1.69,0,0,0,.22-.93,1.78,1.78,0,0,0-.21-.95.68.68,0,0,0-.61-.33Z"/><path class="cls-2" d="M144.87,193h-1.09l-.28,1h-.38l1-3.31h.42l1,3.31h-.4Zm-1-.4h.85l-.41-1.47Z"/><path class="cls-2" d="M146.29,192.51v1.42h-.37v-3.31h1.26a.9.9,0,0,1,.66.23.92.92,0,0,1,.23.67,1.13,1.13,0,0,1-.08.45.92.92,0,0,1-.3.33.6.6,0,0,1,.25.21,1.24,1.24,0,0,1,.08.42l0,.6a.79.79,0,0,0,0,.21.3.3,0,0,0,.11.12v.07h-.45a3.76,3.76,0,0,1-.07-.83.74.74,0,0,0-.11-.45.47.47,0,0,0-.37-.14Zm0-1.51v1.13h.85a.57.57,0,0,0,.42-.14.63.63,0,0,0,.13-.44c0-.36-.16-.55-.49-.55Z"/><path class="cls-2" d="M151.33,193.22l.48.71h-.43l-.25-.38a1.07,1.07,0,0,1-.36.35.82.82,0,0,1-.42.1.77.77,0,0,1-.6-.24,1,1,0,0,1-.21-.68,1,1,0,0,1,.12-.52,1.85,1.85,0,0,1,.49-.47,2.34,2.34,0,0,1-.23-.4.83.83,0,0,1,0-.32.8.8,0,0,1,.18-.54.56.56,0,0,1,.46-.21.55.55,0,0,1,.44.19.74.74,0,0,1,.17.5.9.9,0,0,1-.11.44,1.75,1.75,0,0,1-.38.42l.49.72a3.7,3.7,0,0,0,.12-.52h.31A2.81,2.81,0,0,1,151.33,193.22Zm-.38.06-.61-.91a2.27,2.27,0,0,0-.38.36.69.69,0,0,0-.09.36.57.57,0,0,0,.15.4.47.47,0,0,0,.36.16A.68.68,0,0,0,151,193.28Zm-.49-1.37a1.55,1.55,0,0,0,.26-.29.57.57,0,0,0,.07-.29.37.37,0,0,0-.08-.26.28.28,0,0,0-.22-.09.29.29,0,0,0-.22.09.4.4,0,0,0-.08.26A1,1,0,0,0,150.46,191.91Z"/><path class="cls-2" d="M155.22,191.59h-.35a.86.86,0,0,0-.11-.39.62.62,0,0,0-.57-.28.64.64,0,0,0-.45.15.54.54,0,0,0-.16.42.41.41,0,0,0,.32.43l.77.21a.82.82,0,0,1,.62.89.91.91,0,0,1-.29.73,1.09,1.09,0,0,1-.78.27,1,1,0,0,1-.89-.41,1.26,1.26,0,0,1-.2-.75h.35a.94.94,0,0,0,.1.45.7.7,0,0,0,.66.33.78.78,0,0,0,.51-.15.52.52,0,0,0,.19-.42.47.47,0,0,0-.12-.36,1.22,1.22,0,0,0-.46-.22l-.56-.15a.76.76,0,0,1-.58-.8,1.13,1.13,0,0,1,.23-.7.91.91,0,0,1,.74-.31,1,1,0,0,1,.89.46A1.71,1.71,0,0,1,155.22,191.59Z"/><path class="cls-2" d="M157,190.53a1.17,1.17,0,0,1,1.09.73,2.38,2.38,0,0,1,.21,1,2,2,0,0,1-.41,1.32,1.2,1.2,0,0,1-1.82,0,2.35,2.35,0,0,1,0-2.65A1.13,1.13,0,0,1,157,190.53Zm0,.4a.81.81,0,0,0-.69.37,1.9,1.9,0,0,0,0,1.95.78.78,0,0,0,.68.37.81.81,0,0,0,.69-.37,1.68,1.68,0,0,0,.26-1,1.66,1.66,0,0,0-.26-1A.79.79,0,0,0,157,190.93Z"/><path class="cls-2" d="M159.66,192.6v1.33h-.37V192.6l-1-2h.43l.78,1.59.78-1.59h.43Z"/><path class="cls-2" d="M164.06,191.59h-.34a1,1,0,0,0-.11-.39.62.62,0,0,0-.57-.28.61.61,0,0,0-.45.15.54.54,0,0,0-.17.42.41.41,0,0,0,.32.43l.78.21a.82.82,0,0,1,.62.89.94.94,0,0,1-.29.73,1.09,1.09,0,0,1-.78.27,1,1,0,0,1-.89-.41,1.26,1.26,0,0,1-.2-.75h.34a.93.93,0,0,0,.11.45.7.7,0,0,0,.65.33.82.82,0,0,0,.52-.15.52.52,0,0,0,.18-.42.47.47,0,0,0-.12-.36,1.15,1.15,0,0,0-.46-.22l-.55-.15a.75.75,0,0,1-.58-.8,1.13,1.13,0,0,1,.23-.7.9.9,0,0,1,.74-.31.93.93,0,0,1,.88.46A1.71,1.71,0,0,1,164.06,191.59Z"/><path class="cls-2" d="M166.05,193H165l-.28,1h-.38l1-3.31h.42l1,3.31h-.4Zm-1-.4h.85l-.41-1.47Z"/><path class="cls-2" d="M168.7,190.62h.37v2.15a1.38,1.38,0,0,1-.29.91,1,1,0,0,1-.8.34,1,1,0,0,1-.76-.32,1.28,1.28,0,0,1-.28-.87v-2.21h.37v2.09a1.09,1.09,0,0,0,.18.67.6.6,0,0,0,.51.24.62.62,0,0,0,.52-.24,1.07,1.07,0,0,0,.18-.67Z"/><path class="cls-2" d="M171.64,191.59h-.35a.86.86,0,0,0-.11-.39.62.62,0,0,0-.57-.28.64.64,0,0,0-.45.15.54.54,0,0,0-.16.42.41.41,0,0,0,.32.43l.77.21a.82.82,0,0,1,.62.89.91.91,0,0,1-.29.73,1.09,1.09,0,0,1-.78.27,1,1,0,0,1-.89-.41,1.26,1.26,0,0,1-.2-.75h.35a.94.94,0,0,0,.1.45.7.7,0,0,0,.66.33.78.78,0,0,0,.51-.15.52.52,0,0,0,.19-.42.47.47,0,0,0-.12-.36,1.22,1.22,0,0,0-.46-.22l-.56-.15a.76.76,0,0,1-.58-.8,1.13,1.13,0,0,1,.23-.7.91.91,0,0,1,.74-.31,1,1,0,0,1,.89.46A1.71,1.71,0,0,1,171.64,191.59Z"/><path class="cls-2" d="M173.62,193h-1.09l-.28,1h-.38l1-3.31h.42l1,3.31h-.4Zm-1-.4h.84l-.41-1.47Z"/><path class="cls-2" d="M175.68,192.54v-.38h1.19v1.77h-.24l-.08-.43a1.34,1.34,0,0,1-.35.36,1,1,0,0,1-.57.16,1,1,0,0,1-.81-.37,2,2,0,0,1-.43-1.33,2.21,2.21,0,0,1,.35-1.29,1.11,1.11,0,0,1,.93-.5,1.09,1.09,0,0,1,.56.15,1.15,1.15,0,0,1,.42.4,1.48,1.48,0,0,1,.18.55h-.36a1.08,1.08,0,0,0-.11-.31.78.78,0,0,0-.17-.21.72.72,0,0,0-.51-.18.79.79,0,0,0-.67.37,2.25,2.25,0,0,0,0,2,.81.81,0,0,0,.69.34.76.76,0,0,0,.62-.3,1.36,1.36,0,0,0,.22-.8Z"/><path class="cls-2" d="M179.48,193.53v.4h-2v-3.31h2v.4h-1.6v1h1.48v.4h-1.48v1.1Z"/><path class="cls-2" d="M182.22,190.53a1.17,1.17,0,0,1,1.09.73,2.38,2.38,0,0,1,.21,1,2,2,0,0,1-.41,1.32,1.09,1.09,0,0,1-.91.42,1.12,1.12,0,0,1-.92-.42,2.35,2.35,0,0,1,0-2.65A1.15,1.15,0,0,1,182.22,190.53Zm0,.4a.84.84,0,0,0-.7.37,2,2,0,0,0,0,1.95.81.81,0,0,0,.69.37.78.78,0,0,0,.68-.37,1.61,1.61,0,0,0,.26-1,1.66,1.66,0,0,0-.25-1A.81.81,0,0,0,182.21,190.93Z"/><path class="cls-2" d="M185.76,193.31v-2.69h.35v3.31h-.41l-1.39-2.69v2.69H184v-3.31h.43Z"/><path class="cls-2" d="M189.26,193h-1.09l-.29,1h-.38l1-3.31h.42l1,3.31h-.4Zm-1-.4h.84l-.4-1.47Z"/><path class="cls-2" d="M192.06,193.31v-2.69h.36v3.31H192l-1.39-2.69v2.69h-.36v-3.31h.43Z"/><path class="cls-2" d="M196.09,193.53v.4h-2v-3.31h2v.4h-1.61v1h1.48v.4h-1.48v1.1Z"/><path class="cls-2" d="M198.37,193.31v-2.69h.35v3.31h-.41l-1.39-2.69v2.69h-.35v-3.31H197Z"/><path class="cls-2" d="M200.48,192.54v-.38h1.19v1.77h-.24l-.08-.43a1.34,1.34,0,0,1-.35.36,1,1,0,0,1-.57.16,1,1,0,0,1-.81-.37,2,2,0,0,1-.43-1.33,2.14,2.14,0,0,1,.36-1.29,1.08,1.08,0,0,1,.92-.5,1.09,1.09,0,0,1,.56.15,1.08,1.08,0,0,1,.42.4,1.48,1.48,0,0,1,.18.55h-.36a1.08,1.08,0,0,0-.11-.31.78.78,0,0,0-.17-.21.72.72,0,0,0-.51-.18.79.79,0,0,0-.67.37,2.25,2.25,0,0,0,0,2,.81.81,0,0,0,.69.34.76.76,0,0,0,.62-.3,1.36,1.36,0,0,0,.22-.8Z"/><path class="cls-2" d="M202.61,190.62v2.91H204v.4h-1.74v-3.31Z"/><path class="cls-2" d="M204.77,190.62v3.31h-.37v-3.31Z"/><path class="cls-2" d="M207.38,191.59H207a1,1,0,0,0-.1-.39.63.63,0,0,0-.58-.28.64.64,0,0,0-.45.15.54.54,0,0,0-.16.42.41.41,0,0,0,.32.43l.77.21a.82.82,0,0,1,.62.89.94.94,0,0,1-.28.73,1.13,1.13,0,0,1-.79.27,1,1,0,0,1-.89-.41,1.34,1.34,0,0,1-.2-.75h.35a.94.94,0,0,0,.1.45.7.7,0,0,0,.66.33.78.78,0,0,0,.51-.15.52.52,0,0,0,.19-.42.47.47,0,0,0-.12-.36,1.22,1.22,0,0,0-.46-.22l-.56-.15a.76.76,0,0,1-.58-.8,1.13,1.13,0,0,1,.23-.7.91.91,0,0,1,.74-.31.94.94,0,0,1,.89.46A1.71,1.71,0,0,1,207.38,191.59Z"/><path class="cls-2" d="M209.71,192v-1.37h.37v3.31h-.37v-1.54h-1.42v1.54h-.37v-3.31h.37V192Z"/><path class="cls-2" d="M214.29,193.93h-.35V191.4c0-.11,0-.2,0-.28l-.78,2.81h-.36l-.77-2.8v2.8h-.35v-3.31h.53l.77,2.81.78-2.81h.52Z"/><path class="cls-2" d="M216.63,190.62H217v2.15a1.33,1.33,0,0,1-.3.91,1.08,1.08,0,0,1-1.55,0,1.29,1.29,0,0,1-.29-.87v-2.21h.37v2.09a1.09,1.09,0,0,0,.18.67.6.6,0,0,0,.51.24.64.64,0,0,0,.53-.24,1.07,1.07,0,0,0,.18-.67Z"/><path class="cls-2" d="M218,192.43v1.5h-.37v-3.31h1.88v.4H218v1h1.33v.4Z"/><path class="cls-2" d="M220.3,192.43v1.5h-.37v-3.31h1.88v.4H220.3v1h1.33v.4Z"/><path class="cls-2" d="M222.62,190.62v3.31h-.36v-3.31Z"/><path class="cls-2" d="M225.06,193.31v-2.69h.35v3.31H225l-1.39-2.69v2.69h-.36v-3.31h.44Z"/><path d="M161.47,45.28l-.27-4.67h.85c0,1.16,0,2,0,2.54,0,.2,0,.5,0,.92.21-.69.59-1.85,1.14-3.46h.85c0,1.81,0,3,0,3.46.12-.39.53-1.54,1.24-3.46h.81l-1.9,4.67h-.76c0-1.75,0-3,0-3.68-.55,1.69-.86,2.61-.92,2.76l-.32.92Z"/><path d="M169.38,40.61l-.14.82h-2l-.17,1h1.87l-.14.82h-1.87l-.21,1.22h2.12l-.14.82h-2.91l.81-4.67Z"/><path d="M174.68,40.61l-.52,3a2.25,2.25,0,0,1-.63,1.3,1.67,1.67,0,0,1-1.22.46,1.36,1.36,0,0,1-1-.32,1.21,1.21,0,0,1-.33-.91,2.42,2.42,0,0,1,0-.47l.54-3.1h.81l-.53,3c0,.13,0,.23,0,.29,0,.43.19.65.58.65s.79-.3.89-.89l.54-3.08Z"/><path d="M174.71,43.84h.77c0,.1,0,.16,0,.18a.53.53,0,0,0,.19.43.81.81,0,0,0,.52.15,1,1,0,0,0,.65-.19.61.61,0,0,0,.25-.51.36.36,0,0,0-.13-.28,1.63,1.63,0,0,0-.47-.21l-.39-.11a1.91,1.91,0,0,1-.76-.35.89.89,0,0,1-.25-.68,1.93,1.93,0,0,1,.38-1.17,1.62,1.62,0,0,1,1.35-.62,1.18,1.18,0,0,1,1.08.49,1.29,1.29,0,0,1,.2.69,2,2,0,0,1,0,.33h-.76v-.13a.54.54,0,0,0-.17-.42.69.69,0,0,0-.48-.15.8.8,0,0,0-.57.19.61.61,0,0,0-.22.49.32.32,0,0,0,.07.23.69.69,0,0,0,.26.14l.89.28a1.36,1.36,0,0,1,.62.36.93.93,0,0,1,.18.6,2,2,0,0,1-.13.72,1.9,1.9,0,0,1-.39.59,1.73,1.73,0,0,1-1.32.52,1.27,1.27,0,0,1-1.17-.52,1.21,1.21,0,0,1-.18-.66Q174.68,44.11,174.71,43.84Z"/><path d="M181.85,40.61l-.15.82h-2l-.17,1h1.87l-.15.82h-1.87l-.21,1.22h2.13l-.15.82h-2.91l.82-4.67Z"/><path d="M185.78,40.48a1.4,1.4,0,0,1,1.05.43,1.76,1.76,0,0,1,.42,1.29,4.43,4.43,0,0,1-.19,1.29,3.21,3.21,0,0,1-.5,1,2.18,2.18,0,0,1-.75.64,1.94,1.94,0,0,1-.9.23,1.34,1.34,0,0,1-1.08-.47,1.81,1.81,0,0,1-.4-1.25,4.54,4.54,0,0,1,.2-1.28,3.27,3.27,0,0,1,.5-1.06,2.29,2.29,0,0,1,.75-.64A1.94,1.94,0,0,1,185.78,40.48Zm-.15.83a1,1,0,0,0-.59.2,1.51,1.51,0,0,0-.46.56,3.13,3.13,0,0,0-.33,1.45,1.23,1.23,0,0,0,.22.78.7.7,0,0,0,.6.28,1.13,1.13,0,0,0,1-.64,2.89,2.89,0,0,0,.4-1.57,1.23,1.23,0,0,0-.22-.78A.69.69,0,0,0,185.63,41.31Z"/><path d="M190,43.89l.57-3.28h.75l-.82,4.67h-.8l-1-3.35-.58,3.35h-.75l.82-4.67H189Z"/><path d="M192.89,40.61l-.67,3.83h1.91l-.15.84h-2.71l.82-4.67Z"/><path d="M196,43.53l-.3,1.75h-.81l.31-1.76-.82-2.91h1l.44,2,1.11-2h.92Z"/><path d="M201.28,41.43l-.67,3.85h-.8l.67-3.85h-1.16l.14-.82h3.12l-.14.82Z"/><path d="M204.88,43.19h-1.49L203,45.28h-.8l.81-4.67h.8l-.3,1.77H205l.3-1.77h.8l-.81,4.67h-.8Z"/><path d="M209.74,40.61l-.15.82h-2l-.17,1h1.87l-.14.82h-1.87L207,44.46h2.13l-.15.82H206.1l.81-4.67Z"/><path d="M212.29,43.32l-.34,2h-.8l.81-4.67h2.73l-.14.82h-1.93l-.18,1.06h1.69l-.15.83Z"/><path d="M216,40.61l-.82,4.67h-.8l.82-4.67Z"/><path d="M218.48,43.89l.57-3.28h.75L219,45.28h-.8l-1-3.35-.58,3.35h-.75l.82-4.67h.84Z"/><path d="M223.39,40.61l-.15.82h-2l-.17,1h1.88l-.15.82h-1.87l-.21,1.22h2.13l-.15.82h-2.91l.82-4.67Z"/><path d="M223.37,43.84h.77a1.74,1.74,0,0,0,0,.18.52.52,0,0,0,.18.43.84.84,0,0,0,.53.15,1,1,0,0,0,.65-.19.63.63,0,0,0,.24-.51.33.33,0,0,0-.13-.28,1.5,1.5,0,0,0-.47-.21l-.39-.11A1.85,1.85,0,0,1,224,43a.9.9,0,0,1-.26-.68,1.87,1.87,0,0,1,.39-1.17,1.59,1.59,0,0,1,1.34-.62,1.18,1.18,0,0,1,1.09.49,1.28,1.28,0,0,1,.19.69,2,2,0,0,1,0,.33H226v-.13a.51.51,0,0,0-.17-.42.69.69,0,0,0-.48-.15.84.84,0,0,0-.57.19.64.64,0,0,0-.22.49.32.32,0,0,0,.08.23.61.61,0,0,0,.26.14l.88.28a1.3,1.3,0,0,1,.62.36.88.88,0,0,1,.19.6,2,2,0,0,1-.14.72,1.71,1.71,0,0,1-.38.59,1.76,1.76,0,0,1-1.33.52,1.27,1.27,0,0,1-1.17-.52,1.21,1.21,0,0,1-.18-.66Q223.34,44.11,223.37,43.84Z"/><path d="M229.1,41.43l-.67,3.85h-.8l.67-3.85h-1.16l.14-.82h3.12l-.14.82Z"/><path d="M150.29,51.41,150,53.1h-.8l.81-4.68h1.75a.92.92,0,0,1,.72.29,1.16,1.16,0,0,1,.25.8,2.14,2.14,0,0,1-.44,1.34,1.3,1.3,0,0,1-1.08.56Zm.15-.8h.74a.63.63,0,0,0,.61-.36,1.14,1.14,0,0,0,.13-.57.38.38,0,0,0-.15-.34.78.78,0,0,0-.46-.11h-.63Z"/><path d="M152.76,53.1l.81-4.68h2a1,1,0,0,1,.73.27,1.09,1.09,0,0,1,.26.77,1.59,1.59,0,0,1-.36,1,1.19,1.19,0,0,1-.45.35.82.82,0,0,1,.27.24.69.69,0,0,1,.07.34,7,7,0,0,1-.12,1,1.8,1.8,0,0,0,0,.37A.25.25,0,0,0,156,53l0,.12h-.89v-.18a4.54,4.54,0,0,1,.09-.77,3,3,0,0,0,.06-.48.36.36,0,0,0-.12-.31.71.71,0,0,0-.41-.09h-.83l-.32,1.83ZM154,50.48h.94a.65.65,0,0,0,.59-.26,1,1,0,0,0,.15-.54.4.4,0,0,0-.46-.45h-1Z"/><path d="M159.07,48.3a1.42,1.42,0,0,1,1,.42,1.72,1.72,0,0,1,.43,1.29,4.45,4.45,0,0,1-.2,1.29,3.16,3.16,0,0,1-.5,1.06,2.26,2.26,0,0,1-.75.63,1.8,1.8,0,0,1-.9.23,1.36,1.36,0,0,1-1.08-.46,1.9,1.9,0,0,1-.4-1.26,4.54,4.54,0,0,1,.2-1.28,3,3,0,0,1,.51-1,2.15,2.15,0,0,1,.74-.64A1.84,1.84,0,0,1,159.07,48.3Zm-.16.83a1,1,0,0,0-.59.2,1.53,1.53,0,0,0-.46.56,3.09,3.09,0,0,0-.33,1.44,1.29,1.29,0,0,0,.22.78.7.7,0,0,0,.6.29,1.16,1.16,0,0,0,1-.65,2.94,2.94,0,0,0,.39-1.56,1.29,1.29,0,0,0-.21-.78A.71.71,0,0,0,158.91,49.13Z"/><path d="M160.7,53.1l.81-4.68h1.7a1.12,1.12,0,0,1,.87.33,1.14,1.14,0,0,1,.26.49,2.26,2.26,0,0,1,.11.69,4.65,4.65,0,0,1-.2,1.32,3.83,3.83,0,0,1-.54,1.11,1.65,1.65,0,0,1-1.35.74Zm1.46-3.87-.54,3.06h.79a1,1,0,0,0,.85-.64,3.44,3.44,0,0,0,.35-1.56c0-.57-.22-.86-.68-.86Z"/><path d="M168.44,48.42l-.52,3a2.28,2.28,0,0,1-.63,1.31,1.7,1.7,0,0,1-1.22.45,1.31,1.31,0,0,1-1-.32,1.19,1.19,0,0,1-.33-.9,2.59,2.59,0,0,1,0-.48l.54-3.1h.81l-.53,3c0,.13,0,.22,0,.28,0,.44.19.66.58.66s.79-.3.89-.9l.54-3.08Z"/><path d="M172.21,50h-.8a1.37,1.37,0,0,0-.11-.49.57.57,0,0,0-.57-.31,1,1,0,0,0-.88.54,2.45,2.45,0,0,0-.31.76,3.3,3.3,0,0,0-.13.92,1.28,1.28,0,0,0,.19.74.63.63,0,0,0,.54.27.92.92,0,0,0,.73-.37,2.35,2.35,0,0,0,.27-.51h.8a4.3,4.3,0,0,1-.28.65,2.94,2.94,0,0,1-.34.47,1.76,1.76,0,0,1-1.34.6,1.3,1.3,0,0,1-1-.37,1.49,1.49,0,0,1-.31-.56,2.68,2.68,0,0,1-.11-.76,4.53,4.53,0,0,1,.2-1.31,3.57,3.57,0,0,1,.52-1.09,1.93,1.93,0,0,1,1.56-.83,1.31,1.31,0,0,1,1,.39,1.42,1.42,0,0,1,.37,1A1.62,1.62,0,0,1,172.21,50Z"/><path d="M174.57,49.25l-.68,3.85h-.8l.67-3.85H172.6l.15-.83h3.12l-.15.83Z"/><path d="M175.57,51.66h.77c0,.1,0,.15,0,.18a.54.54,0,0,0,.19.43.81.81,0,0,0,.52.15,1,1,0,0,0,.65-.2.62.62,0,0,0,.25-.51.35.35,0,0,0-.13-.27,1.63,1.63,0,0,0-.47-.21l-.39-.12a1.87,1.87,0,0,1-.76-.34.9.9,0,0,1-.25-.69,1.86,1.86,0,0,1,.38-1.16,1.62,1.62,0,0,1,1.35-.62,1.19,1.19,0,0,1,1.08.48,1.35,1.35,0,0,1,.2.7,2,2,0,0,1,0,.33h-.76v-.14a.54.54,0,0,0-.17-.42.76.76,0,0,0-.48-.14.8.8,0,0,0-.57.19.58.58,0,0,0-.22.48.36.36,0,0,0,.07.24.57.57,0,0,0,.26.13l.89.29a1.27,1.27,0,0,1,.61.36.87.87,0,0,1,.19.59,1.78,1.78,0,0,1-.14.72,1.67,1.67,0,0,1-.38.6,1.78,1.78,0,0,1-1.33.51,1.28,1.28,0,0,1-1.16-.51,1.23,1.23,0,0,1-.19-.67C175.53,52,175.55,51.83,175.57,51.66Z"/><path d="M181.54,52.14l-.44,1h-.84l2.19-4.68h.92l.54,4.68H183l-.08-1Zm1.18-2.68-.83,1.87h1Z"/><path d="M187,51.71l.57-3.29h.74l-.81,4.68h-.8l-1-3.36-.58,3.36h-.75l.81-4.68H186Z"/><path d="M188.27,53.1l.81-4.68h1.7a1.13,1.13,0,0,1,.87.33,1.25,1.25,0,0,1,.26.49,2.26,2.26,0,0,1,.1.69,4.32,4.32,0,0,1-.2,1.32,3.58,3.58,0,0,1-.53,1.11,1.65,1.65,0,0,1-1.35.74Zm1.46-3.87-.54,3.06H190a1,1,0,0,0,.86-.64,3.44,3.44,0,0,0,.35-1.56c0-.57-.23-.86-.68-.86Z"/><path d="M195.17,48.42l-.83,4.68h-.8l.82-4.68Z"/><path d="M197.68,51.71l.57-3.29H199l-.82,4.68h-.8l-1-3.36-.58,3.36h-.75l.82-4.68h.84Z"/><path d="M201,51.37l.13-.79h1.61l-.44,2.52h-.53l0-.59a2.73,2.73,0,0,1-.64.56,1.48,1.48,0,0,1-.68.15,1.22,1.22,0,0,1-1-.47,2,2,0,0,1-.38-1.27,4.17,4.17,0,0,1,.19-1.25,3.63,3.63,0,0,1,.53-1.06,2,2,0,0,1,1.65-.87,1.38,1.38,0,0,1,1,.38,1.35,1.35,0,0,1,.38,1v.2h-.8v0a.72.72,0,0,0-.72-.73,1,1,0,0,0-.54.16,1.35,1.35,0,0,0-.45.44,2.6,2.6,0,0,0-.32.75,3.52,3.52,0,0,0-.12.89,1.18,1.18,0,0,0,.22.77.78.78,0,0,0,.63.28,1,1,0,0,0,.68-.28,1.42,1.42,0,0,0,.25-.3,3.33,3.33,0,0,0,.21-.45Z"/><path d="M203.08,53.1l.81-4.68h1.94a1,1,0,0,1,.74.27,1.09,1.09,0,0,1,.26.77,1.59,1.59,0,0,1-.36,1,1.19,1.19,0,0,1-.45.35.82.82,0,0,1,.27.24.69.69,0,0,1,.07.34,7,7,0,0,1-.12,1,1.8,1.8,0,0,0,0,.37.25.25,0,0,0,.11.21l0,.12h-.89v-.18a4.54,4.54,0,0,1,.09-.77,3,3,0,0,0,.06-.48.36.36,0,0,0-.12-.31.71.71,0,0,0-.41-.09h-.83l-.32,1.83Zm1.24-2.62h.94a.65.65,0,0,0,.59-.26,1,1,0,0,0,.15-.54c0-.3-.15-.45-.47-.45h-1Z"/><path d="M210.57,48.42l-.15.83h-2l-.17,1h1.87l-.15.83h-1.87l-.2,1.21H210l-.14.83h-2.92l.82-4.68Z"/><path d="M210.5,53.1l.81-4.68H213a1.15,1.15,0,0,1,.87.33,1.25,1.25,0,0,1,.26.49,2.26,2.26,0,0,1,.1.69,4.32,4.32,0,0,1-.2,1.32,3.58,3.58,0,0,1-.53,1.11,1.65,1.65,0,0,1-1.35.74ZM212,49.23l-.54,3.06h.78a1,1,0,0,0,.86-.64,3.44,3.44,0,0,0,.35-1.56c0-.57-.23-.86-.68-.86Z"/><path d="M215.91,48.42l-.82,4.68h-.8l.82-4.68Z"/><path d="M219.47,48.42l-.14.83h-2l-.17,1H219l-.14.83H217l-.21,1.21h2.12l-.14.83h-2.91l.81-4.68Z"/><path d="M222,51.71l.56-3.29h.75l-.81,4.68h-.8l-1-3.36-.58,3.36h-.75l.81-4.68H221Z"/><path d="M225.55,49.25l-.67,3.85h-.8l.67-3.85h-1.16l.15-.83h3.12l-.15.83Z"/><path d="M226.56,51.66h.77c0,.1,0,.15,0,.18a.51.51,0,0,0,.19.43.81.81,0,0,0,.52.15,1,1,0,0,0,.65-.2.61.61,0,0,0,.24-.51.32.32,0,0,0-.13-.27,1.43,1.43,0,0,0-.46-.21l-.4-.12a1.87,1.87,0,0,1-.75-.34.9.9,0,0,1-.26-.69,1.87,1.87,0,0,1,.39-1.16,1.62,1.62,0,0,1,1.35-.62,1.19,1.19,0,0,1,1.08.48,1.34,1.34,0,0,1,.19.7,1.94,1.94,0,0,1,0,.33h-.76v-.14a.54.54,0,0,0-.17-.42.78.78,0,0,0-.48-.14.85.85,0,0,0-.58.19.6.6,0,0,0-.21.48.36.36,0,0,0,.07.24.57.57,0,0,0,.26.13l.88.29a1.26,1.26,0,0,1,.62.36.87.87,0,0,1,.19.59,1.78,1.78,0,0,1-.14.72,1.67,1.67,0,0,1-.38.6,1.78,1.78,0,0,1-1.33.51,1.28,1.28,0,0,1-1.16-.51,1.15,1.15,0,0,1-.19-.67A2.31,2.31,0,0,1,226.56,51.66Z"/><path d="M155.16,59l-.35,2H154l.82-4.68h2.72l-.14.83h-1.93l-.18,1H157l-.15.83Z"/><path d="M157.27,60.92l.82-4.68H160a1,1,0,0,1,.73.27,1,1,0,0,1,.27.77,1.63,1.63,0,0,1-.36,1,1.3,1.3,0,0,1-.45.35.68.68,0,0,1,.26.24.66.66,0,0,1,.08.34,5.82,5.82,0,0,1-.13,1,3.15,3.15,0,0,0,0,.37.22.22,0,0,0,.11.21v.13h-.9v-.18a4.43,4.43,0,0,1,.09-.77,3,3,0,0,0,.06-.49.37.37,0,0,0-.12-.31.76.76,0,0,0-.42-.08h-.83l-.31,1.83Zm1.25-2.62h.94a.68.68,0,0,0,.59-.26,1,1,0,0,0,.15-.54c0-.3-.16-.45-.47-.45h-1Z"/><path d="M163.58,56.11a1.45,1.45,0,0,1,1,.43,1.76,1.76,0,0,1,.42,1.29,4.43,4.43,0,0,1-.19,1.29,3.21,3.21,0,0,1-.51,1.05,2.06,2.06,0,0,1-.74.64,1.94,1.94,0,0,1-.9.23,1.36,1.36,0,0,1-1.09-.46,1.9,1.9,0,0,1-.39-1.26,4.21,4.21,0,0,1,.2-1.28,3.38,3.38,0,0,1,.5-1.06,2.41,2.41,0,0,1,.75-.64A1.94,1.94,0,0,1,163.58,56.11Zm-.15.83a1,1,0,0,0-.59.2,1.62,1.62,0,0,0-.47.56,3.25,3.25,0,0,0-.32,1.45,1.29,1.29,0,0,0,.21.78.72.72,0,0,0,.6.28,1.15,1.15,0,0,0,1-.64,3,3,0,0,0,.4-1.57,1.24,1.24,0,0,0-.22-.77A.7.7,0,0,0,163.43,56.94Z"/><path d="M169.71,56.24l-.82,4.68h-.75l.69-4-1.41,4h-.78l0-4-.69,4h-.75l.81-4.68h1.17l.05,3.71,1.34-3.71Z"/><path d="M172.76,56.24l-.66,3.83H174l-.15.85h-2.71l.81-4.68Z"/><path d="M176.76,56.11a1.43,1.43,0,0,1,1.05.43,1.76,1.76,0,0,1,.42,1.29,4.43,4.43,0,0,1-.19,1.29,3.21,3.21,0,0,1-.51,1.05,2.06,2.06,0,0,1-.74.64,1.94,1.94,0,0,1-.9.23,1.33,1.33,0,0,1-1.08-.46,1.85,1.85,0,0,1-.4-1.26,4.54,4.54,0,0,1,.2-1.28,3.38,3.38,0,0,1,.5-1.06,2.41,2.41,0,0,1,.75-.64A1.94,1.94,0,0,1,176.76,56.11Zm-.15.83a1,1,0,0,0-.59.2,1.59,1.59,0,0,0-.46.56,3.13,3.13,0,0,0-.33,1.45,1.29,1.29,0,0,0,.21.78.72.72,0,0,0,.6.28,1.13,1.13,0,0,0,1-.64,2.89,2.89,0,0,0,.4-1.57,1.18,1.18,0,0,0-.22-.77A.7.7,0,0,0,176.61,56.94Z"/><path d="M182.2,57.77h-.81a1.34,1.34,0,0,0-.1-.49.6.6,0,0,0-.58-.32,1,1,0,0,0-.88.54,2.85,2.85,0,0,0-.31.76,3.75,3.75,0,0,0-.12.92,1.26,1.26,0,0,0,.19.75.59.59,0,0,0,.53.26.9.9,0,0,0,.73-.36,1.66,1.66,0,0,0,.27-.52h.8a3.62,3.62,0,0,1-.28.66,2.37,2.37,0,0,1-.34.46A1.73,1.73,0,0,1,180,61a1.3,1.3,0,0,1-1-.38,1.43,1.43,0,0,1-.3-.55,2.42,2.42,0,0,1-.12-.76,4.65,4.65,0,0,1,.2-1.32,3.63,3.63,0,0,1,.53-1.08,1.88,1.88,0,0,1,1.55-.84,1.32,1.32,0,0,1,1,.4,1.41,1.41,0,0,1,.37,1Z"/><path d="M183.05,60l-.44,1h-.85L184,56.24h.93l.53,4.68h-.87l-.08-1Zm1.17-2.67-.82,1.86h1Z"/><path d="M187.53,56.24l-.66,3.83h1.91l-.15.85h-2.71l.81-4.68Z"/><path d="M190.72,59.48h.77a1.49,1.49,0,0,0,0,.17.52.52,0,0,0,.18.43.84.84,0,0,0,.53.15,1,1,0,0,0,.65-.19.63.63,0,0,0,.24-.51.34.34,0,0,0-.13-.28,1.69,1.69,0,0,0-.47-.2l-.39-.12a1.85,1.85,0,0,1-.75-.35.9.9,0,0,1-.26-.68,1.92,1.92,0,0,1,.39-1.17,1.59,1.59,0,0,1,1.35-.62,1.2,1.2,0,0,1,1.08.49,1.31,1.31,0,0,1,.19.69c0,.1,0,.21,0,.34h-.77v-.14a.51.51,0,0,0-.17-.42.69.69,0,0,0-.48-.15.89.89,0,0,0-.57.19.64.64,0,0,0-.22.49.32.32,0,0,0,.08.23.52.52,0,0,0,.26.14l.88.28a1.26,1.26,0,0,1,.62.36.88.88,0,0,1,.19.6,2,2,0,0,1-.14.72,1.76,1.76,0,0,1-.38.6A1.79,1.79,0,0,1,192,61a1.3,1.3,0,0,1-1.17-.51,1.27,1.27,0,0,1-.18-.67A3.65,3.65,0,0,1,190.72,59.48Z"/><path d="M196.75,56.11a1.45,1.45,0,0,1,1.05.43,1.76,1.76,0,0,1,.42,1.29,4.43,4.43,0,0,1-.19,1.29,3.21,3.21,0,0,1-.51,1.05,2.06,2.06,0,0,1-.74.64,1.94,1.94,0,0,1-.9.23,1.36,1.36,0,0,1-1.09-.46,1.9,1.9,0,0,1-.39-1.26,4.21,4.21,0,0,1,.2-1.28,3.38,3.38,0,0,1,.5-1.06,2.41,2.41,0,0,1,.75-.64A1.94,1.94,0,0,1,196.75,56.11Zm-.15.83a1,1,0,0,0-.59.2,1.62,1.62,0,0,0-.47.56,3.25,3.25,0,0,0-.32,1.45,1.29,1.29,0,0,0,.21.78.72.72,0,0,0,.6.28,1.15,1.15,0,0,0,1-.64,3,3,0,0,0,.4-1.57,1.24,1.24,0,0,0-.22-.77A.7.7,0,0,0,196.6,56.94Z"/><path d="M202.27,56.24l-.53,3a2.3,2.3,0,0,1-.62,1.31,1.73,1.73,0,0,1-1.23.45,1.33,1.33,0,0,1-.95-.32,1.19,1.19,0,0,1-.34-.9,3.73,3.73,0,0,1,0-.48l.54-3.1H200l-.53,3a1.8,1.8,0,0,0,0,.29c0,.43.19.65.57.65s.8-.3.9-.89l.54-3.08Z"/><path d="M202.24,60.92l.81-4.68H205a1,1,0,0,1,.74.27,1.07,1.07,0,0,1,.26.77,1.63,1.63,0,0,1-.36,1,1.3,1.3,0,0,1-.45.35.65.65,0,0,1,.27.24.66.66,0,0,1,.07.34,6.73,6.73,0,0,1-.12,1,1.87,1.87,0,0,0,0,.37.22.22,0,0,0,.11.21l0,.13h-.89v-.18a4.43,4.43,0,0,1,.09-.77,3,3,0,0,0,.06-.49.37.37,0,0,0-.12-.31.72.72,0,0,0-.41-.08h-.83L203,60.92Zm1.24-2.62h.94A.65.65,0,0,0,205,58a1,1,0,0,0,.15-.54c0-.3-.15-.45-.47-.45h-1Z"/><path d="M209.83,57.77H209a1.32,1.32,0,0,0-.11-.49.58.58,0,0,0-.57-.32,1,1,0,0,0-.88.54,2.56,2.56,0,0,0-.31.76,3.35,3.35,0,0,0-.13.92,1.26,1.26,0,0,0,.19.75.6.6,0,0,0,.53.26.89.89,0,0,0,.73-.36,1.89,1.89,0,0,0,.28-.52h.8a5.93,5.93,0,0,1-.28.66,2.44,2.44,0,0,1-.35.46,1.72,1.72,0,0,1-1.33.61,1.3,1.3,0,0,1-1-.38,1.44,1.44,0,0,1-.31-.55,2.74,2.74,0,0,1-.11-.76,4.32,4.32,0,0,1,.2-1.32,3.39,3.39,0,0,1,.52-1.08,1.91,1.91,0,0,1,1.56-.84,1.3,1.3,0,0,1,1,.4,1.41,1.41,0,0,1,.38,1A1.77,1.77,0,0,1,209.83,57.77Z"/><path d="M213.52,56.24l-.15.83h-2l-.17,1H213l-.15.83H211l-.2,1.21h2.12l-.14.83h-2.92l.82-4.68Z"/><path d="M213.51,59.48h.76c0,.09,0,.15,0,.17a.5.5,0,0,0,.19.43.79.79,0,0,0,.52.15,1,1,0,0,0,.65-.19.63.63,0,0,0,.24-.51.34.34,0,0,0-.13-.28,1.69,1.69,0,0,0-.47-.2l-.39-.12a1.85,1.85,0,0,1-.75-.35.9.9,0,0,1-.26-.68,1.92,1.92,0,0,1,.39-1.17,1.59,1.59,0,0,1,1.35-.62,1.2,1.2,0,0,1,1.08.49,1.31,1.31,0,0,1,.19.69c0,.1,0,.21,0,.34h-.77v-.14a.51.51,0,0,0-.17-.42.69.69,0,0,0-.48-.15.89.89,0,0,0-.57.19.64.64,0,0,0-.21.49.32.32,0,0,0,.07.23A.57.57,0,0,0,215,58l.88.28a1.26,1.26,0,0,1,.62.36.88.88,0,0,1,.19.6,2,2,0,0,1-.14.72,1.76,1.76,0,0,1-.38.6,1.78,1.78,0,0,1-1.33.51,1.28,1.28,0,0,1-1.16-.51,1.19,1.19,0,0,1-.19-.67A2.31,2.31,0,0,1,213.51,59.48Z"/><path d="M219.48,60l-.44,1h-.84l2.18-4.68h.93l.53,4.68H221l-.08-1Zm1.18-2.67-.83,1.86h1Z"/><path d="M224.94,59.52l.56-3.28h.75l-.81,4.68h-.8l-1-3.36-.58,3.36h-.75l.81-4.68H224Z"/><path d="M226.21,60.92l.81-4.68h1.7a1.15,1.15,0,0,1,.87.33,1.31,1.31,0,0,1,.26.49,2.26,2.26,0,0,1,.1.69,4.65,4.65,0,0,1-.2,1.32,3.42,3.42,0,0,1-.54,1.1,1.61,1.61,0,0,1-1.34.75Zm1.45-3.87-.53,3.06h.78a1,1,0,0,0,.86-.65,3.37,3.37,0,0,0,.35-1.55c0-.58-.23-.86-.68-.86Z"/><path d="M154.93,63.93a1.4,1.4,0,0,1,1,.43,1.76,1.76,0,0,1,.42,1.29,4.41,4.41,0,0,1-.19,1.28A3.27,3.27,0,0,1,155.7,68a2.16,2.16,0,0,1-.74.64,1.94,1.94,0,0,1-.9.23,1.34,1.34,0,0,1-1.08-.47,1.81,1.81,0,0,1-.4-1.25,4.16,4.16,0,0,1,.2-1.28,3.27,3.27,0,0,1,.5-1.06,2.18,2.18,0,0,1,.75-.64A1.94,1.94,0,0,1,154.93,63.93Zm-.15.83a1,1,0,0,0-.59.2,1.63,1.63,0,0,0-.47.56A3.25,3.25,0,0,0,153.4,67a1.29,1.29,0,0,0,.21.78.75.75,0,0,0,.6.28,1.15,1.15,0,0,0,1-.64,3,3,0,0,0,.4-1.57,1.23,1.23,0,0,0-.22-.78A.69.69,0,0,0,154.78,64.76Z"/><path d="M159.15,67.34l.57-3.28h.75l-.82,4.67h-.8l-1-3.35-.58,3.35h-.75l.82-4.67h.84Z"/><path d="M162,64.06l-.66,3.83h1.91l-.15.84h-2.71l.81-4.67Z"/><path d="M165.19,67l-.3,1.75h-.81l.31-1.76-.82-2.91h1l.44,2,1.11-2H167Z"/><path d="M172,64.06l-.53,3a2.31,2.31,0,0,1-.62,1.3,1.73,1.73,0,0,1-1.23.46,1.33,1.33,0,0,1-.95-.32,1.19,1.19,0,0,1-.34-.91,3.57,3.57,0,0,1,0-.47l.54-3.1h.82l-.53,3a2.16,2.16,0,0,0,0,.29c0,.43.19.65.58.65s.79-.3.89-.89l.54-3.08Z"/><path d="M172,67.29h.77a1.74,1.74,0,0,0,0,.18.51.51,0,0,0,.19.43.79.79,0,0,0,.52.15,1.09,1.09,0,0,0,.65-.19.63.63,0,0,0,.24-.52.32.32,0,0,0-.13-.27,1.4,1.4,0,0,0-.47-.21l-.39-.11a2,2,0,0,1-.75-.35.9.9,0,0,1-.26-.68,1.87,1.87,0,0,1,.39-1.17,1.59,1.59,0,0,1,1.35-.62,1.19,1.19,0,0,1,1.08.48,1.34,1.34,0,0,1,.19.7c0,.1,0,.21,0,.33h-.77v-.13a.49.49,0,0,0-.17-.42.69.69,0,0,0-.48-.15.84.84,0,0,0-.57.19.63.63,0,0,0-.22.49.34.34,0,0,0,.08.23.61.61,0,0,0,.26.14l.88.28a1.26,1.26,0,0,1,.62.36.88.88,0,0,1,.19.6,2,2,0,0,1-.14.72,1.71,1.71,0,0,1-.38.59,1.8,1.8,0,0,1-1.33.52,1.3,1.3,0,0,1-1.17-.52,1.21,1.21,0,0,1-.18-.66A3.79,3.79,0,0,1,172,67.29Z"/><path d="M179.18,64.06l-.14.82h-2l-.17,1h1.87l-.14.82h-1.87l-.21,1.21h2.12l-.14.83h-2.91l.81-4.67Z"/><path d="M184.4,65.59h-.81a1.41,1.41,0,0,0-.1-.5.59.59,0,0,0-.58-.31,1,1,0,0,0-.87.54,2.71,2.71,0,0,0-.32.76,3.69,3.69,0,0,0-.12.92,1.26,1.26,0,0,0,.19.75.61.61,0,0,0,.53.26.88.88,0,0,0,.73-.37,1.68,1.68,0,0,0,.28-.51h.8a3.8,3.8,0,0,1-.29.65,2.43,2.43,0,0,1-.34.47,1.75,1.75,0,0,1-1.33.61,1.33,1.33,0,0,1-1-.38,1.48,1.48,0,0,1-.3-.56,2.37,2.37,0,0,1-.11-.76,4.56,4.56,0,0,1,.19-1.31,3.4,3.4,0,0,1,.53-1.08,1.88,1.88,0,0,1,1.55-.84,1.31,1.31,0,0,1,1,.39,1.44,1.44,0,0,1,.38,1C184.41,65.44,184.4,65.52,184.4,65.59Z"/><path d="M185.25,67.77l-.44,1H184l2.19-4.67h.93l.53,4.67h-.87l-.08-1Zm1.18-2.68L185.6,67h1Z"/><path d="M190,67l.14-.79h1.61l-.45,2.52h-.53l0-.58a2.32,2.32,0,0,1-.64.55,1.48,1.48,0,0,1-.68.16,1.24,1.24,0,0,1-1-.47,2,2,0,0,1-.38-1.28,4.39,4.39,0,0,1,.19-1.24,3.36,3.36,0,0,1,.54-1.07,2,2,0,0,1,1.64-.87,1.42,1.42,0,0,1,1,.38,1.33,1.33,0,0,1,.39,1c0,.08,0,.14,0,.2h-.8v0a.72.72,0,0,0-.21-.52.69.69,0,0,0-.51-.21,1,1,0,0,0-.54.16,1.48,1.48,0,0,0-.45.45,2.69,2.69,0,0,0-.32.74,3.6,3.6,0,0,0-.12.9,1.2,1.2,0,0,0,.22.77.77.77,0,0,0,.63.27,1,1,0,0,0,.69-.28,1.28,1.28,0,0,0,.24-.29,4.37,4.37,0,0,0,.21-.46Z"/><path d="M195.71,64.06l-.15.82h-2l-.17,1h1.87l-.14.82h-1.87L193,67.9h2.13l-.15.83h-2.91l.82-4.67Z"/><path d="M197.26,66.48l-.15.85h-1.49l.15-.85Z"/><path d="M198.56,66.77l-.35,2h-.8l.82-4.67H201l-.15.82h-1.93l-.18,1.06h1.69l-.14.83Z"/><path d="M200.68,68.73l.81-4.67h1.94a1,1,0,0,1,.74.27,1.06,1.06,0,0,1,.26.76,1.64,1.64,0,0,1-.36,1.06,1.28,1.28,0,0,1-.45.34.78.78,0,0,1,.26.25.63.63,0,0,1,.08.34,6,6,0,0,1-.13,1,3.15,3.15,0,0,0,0,.37.21.21,0,0,0,.12.21l0,.12H203v-.17a4.33,4.33,0,0,1,.09-.77,3.12,3.12,0,0,0,.06-.49A.36.36,0,0,0,203,67a.73.73,0,0,0-.42-.09h-.82l-.32,1.83Zm1.24-2.62h.94a.65.65,0,0,0,.59-.26.91.91,0,0,0,.15-.54c0-.3-.16-.45-.47-.45h-1Z"/><path d="M208.16,64.06l-.14.82h-2l-.17,1h1.87l-.14.82h-1.87l-.21,1.21h2.13l-.15.83h-2.91l.81-4.67Z"/><path d="M211.73,64.06l-.15.82h-2l-.17,1h1.87l-.15.82h-1.87L209,67.9h2.13l-.15.83h-2.91l.82-4.67Z"/><path d="M216.78,64.06l-.15.82h-2l-.17,1h1.87l-.14.82h-1.87l-.21,1.21h2.13l-.15.83h-2.91l.81-4.67Z"/><path d="M218.81,67l.13-.79h1.61l-.44,2.52h-.53l0-.58a2.47,2.47,0,0,1-.64.55,1.48,1.48,0,0,1-.68.16,1.24,1.24,0,0,1-1-.47,2,2,0,0,1-.38-1.28,4.06,4.06,0,0,1,.19-1.24,3.57,3.57,0,0,1,.53-1.07,2,2,0,0,1,1.65-.87,1.42,1.42,0,0,1,1,.38,1.37,1.37,0,0,1,.38,1v.2h-.8v0a.72.72,0,0,0-.21-.52.69.69,0,0,0-.51-.21,1,1,0,0,0-.54.16,1.48,1.48,0,0,0-.45.45,2.42,2.42,0,0,0-.32.74,3.6,3.6,0,0,0-.12.9,1.2,1.2,0,0,0,.22.77.77.77,0,0,0,.63.27,1,1,0,0,0,.68-.28,1.68,1.68,0,0,0,.25-.29,4.37,4.37,0,0,0,.21-.46Z"/><path d="M223,67l.14-.79h1.61l-.44,2.52h-.54l0-.58a2.32,2.32,0,0,1-.64.55,1.44,1.44,0,0,1-.67.16,1.25,1.25,0,0,1-1-.47,2,2,0,0,1-.38-1.28,4.07,4.07,0,0,1,.2-1.24,3.15,3.15,0,0,1,.53-1.07,2,2,0,0,1,1.65-.87,1.41,1.41,0,0,1,1,.38,1.33,1.33,0,0,1,.39,1,1.21,1.21,0,0,1,0,.2H224v0a.72.72,0,0,0-.21-.52.69.69,0,0,0-.51-.21,1,1,0,0,0-.54.16,1.48,1.48,0,0,0-.45.45,2.42,2.42,0,0,0-.31.74,3.21,3.21,0,0,0-.13.9,1.2,1.2,0,0,0,.23.77.77.77,0,0,0,.62.27,1,1,0,0,0,.69-.28,1.28,1.28,0,0,0,.24-.29,2.87,2.87,0,0,0,.22-.46Z"/><path d="M225.07,67.29h.77a1.74,1.74,0,0,0,0,.18.54.54,0,0,0,.18.43.84.84,0,0,0,.53.15,1.09,1.09,0,0,0,.65-.19.63.63,0,0,0,.24-.52.32.32,0,0,0-.13-.27,1.5,1.5,0,0,0-.47-.21l-.39-.11a2.16,2.16,0,0,1-.76-.35.93.93,0,0,1-.25-.68,1.87,1.87,0,0,1,.39-1.17,1.59,1.59,0,0,1,1.34-.62,1.17,1.17,0,0,1,1.08.48,1.35,1.35,0,0,1,.2.7,2,2,0,0,1,0,.33h-.76v-.13a.49.49,0,0,0-.17-.42.69.69,0,0,0-.48-.15.84.84,0,0,0-.57.19.6.6,0,0,0-.22.49.34.34,0,0,0,.08.23.63.63,0,0,0,.25.14l.89.28a1.3,1.3,0,0,1,.62.36.88.88,0,0,1,.19.6,2,2,0,0,1-.14.72,1.87,1.87,0,0,1-.38.59,1.8,1.8,0,0,1-1.33.52,1.29,1.29,0,0,1-1.17-.52,1.21,1.21,0,0,1-.18-.66A3.79,3.79,0,0,1,225.07,67.29Z"/><path d="M229.48,67.78l-.17,1h-.8l.17-1Z"/><circle cx="14.61" cy="192.7" r="9.88"/><path class="cls-1" d="M7.68,190.44a1.77,1.77,0,0,1,1.93-1.91,1.56,1.56,0,0,1,1.73,1.29l-1.1.22c-.07-.43-.3-.65-.66-.65s-.72.38-.72,1,.27,1.08.73,1.08.59-.24.65-.68l1.1.24a1.61,1.61,0,0,1-1.75,1.31A1.8,1.8,0,0,1,7.68,190.44Z"/><path class="cls-1" d="M12.55,192.26H11.38V187h1.17Z"/><path class="cls-1" d="M12.87,187h1.22v1.07H12.87Zm0,1.59h1.17v3.65H12.89Z"/><path class="cls-1" d="M14.08,190.44A1.78,1.78,0,0,1,16,188.53a1.56,1.56,0,0,1,1.73,1.29l-1.1.22c-.07-.43-.3-.65-.66-.65s-.72.38-.72,1,.27,1.08.73,1.08.59-.24.65-.68l1.1.24A1.61,1.61,0,0,1,16,192.35,1.8,1.8,0,0,1,14.08,190.44Z"/><path class="cls-1" d="M19.36,190.79l-.4.43v1H17.79V187H19V190l1.18-1.43H21.5l-1.33,1.46,1.37,2.19H20.23Z"/><path class="cls-1" d="M8,193.06H9.16v2.29a1.19,1.19,0,0,1,1.16-.76c.79,0,1.19.51,1.19,1.49v2.26H10.35v-2.15c0-.46-.19-.7-.54-.7s-.65.32-.65.89v2H8Z"/><path class="cls-1" d="M15.12,196.78H12.59a.78.78,0,0,0,.84.81.84.84,0,0,0,.79-.51l.86.4a1.79,1.79,0,0,1-1.67,1,1.75,1.75,0,0,1-1.93-1.87,1.77,1.77,0,0,1,1.85-1.95,1.64,1.64,0,0,1,1.79,1.82ZM14,196.1c0-.52-.24-.8-.68-.8s-.71.31-.72.83H14Z"/><path class="cls-1" d="M17.5,194.61h.07v1.12h-.22a1,1,0,0,0-.7.22,1.17,1.17,0,0,0-.3.92v1.48H15.18V194.7h1.1v.94A1.22,1.22,0,0,1,17.5,194.61Z"/><path class="cls-1" d="M20.87,196.78H18.34a.78.78,0,0,0,.84.81.82.82,0,0,0,.79-.51l.87.4a1.81,1.81,0,0,1-1.68,1,1.75,1.75,0,0,1-1.93-1.87,1.77,1.77,0,0,1,1.85-1.95,1.64,1.64,0,0,1,1.79,1.82Zm-1.13-.68c0-.52-.24-.8-.68-.8s-.71.31-.72.83h1.4Z"/></g></g></svg>