<svg xmlns="http://www.w3.org/2000/svg" viewBox="0 0 1450.51 1222.47"><defs><style>.cls-1{fill:#f5582f;}.cls-2{font-size:54.34px;}.cls-2,.cls-25,.cls-6,.cls-9{fill:#231f20;}.cls-2,.cls-6,.cls-9{font-family:NimbusSanConL-Bol, Nimbus Sans Cond L;}.cls-3{letter-spacing:-0.02em;}.cls-4{letter-spacing:-0.03em;}.cls-5{letter-spacing:0em;}.cls-6,.cls-9{font-size:40.76px;}.cls-6{letter-spacing:-0.01em;}.cls-7{letter-spacing:0.03em;}.cls-8{letter-spacing:0em;}.cls-10{letter-spacing:0.02em;}.cls-11{letter-spacing:0em;}.cls-12{letter-spacing:0em;}.cls-13{letter-spacing:0em;}.cls-14{letter-spacing:-0.01em;}.cls-15{letter-spacing:-0.06em;}.cls-16{letter-spacing:0.01em;}.cls-17{letter-spacing:0em;}.cls-18{letter-spacing:-0.02em;}.cls-19{letter-spacing:0em;}.cls-20{letter-spacing:-0.02em;}.cls-21{letter-spacing:0em;}.cls-22{letter-spacing:-0.02em;}.cls-23{letter-spacing:0em;}.cls-24{letter-spacing:-0.06em;}.cls-25{font-size:27.17px;font-family:NimbusSanL-ReguCond, Nimbus Sans L;}.cls-26{letter-spacing:-0.01em;}.cls-27{letter-spacing:0em;}.cls-28{letter-spacing:-0.03em;}.cls-29{letter-spacing:-0.03em;}.cls-30{letter-spacing:-0.07em;}.cls-31{letter-spacing:-0.02em;}.cls-32{letter-spacing:0em;}.cls-33{letter-spacing:-0.04em;}.cls-34{letter-spacing:-0.01em;}.cls-35{letter-spacing:-0.03em;}.cls-36{letter-spacing:-0.03em;}.cls-37{letter-spacing:0.03em;}.cls-38{letter-spacing:-0.04em;}.cls-39{letter-spacing:-0.01em;}.cls-40{letter-spacing:-0.03em;}.cls-41{font-size:38.37px;font-family:NimbusSanL-BoldCondItal, Nimbus Sans L;font-weight:700;font-style:italic;}.cls-42{letter-spacing:-0.09em;}.cls-43{letter-spacing:-0.01em;}.cls-44{letter-spacing:-0.01em;}.cls-45{letter-spacing:0em;}.cls-46{letter-spacing:0em;}.cls-47{letter-spacing:0em;}.cls-48{letter-spacing:0em;}.cls-49{letter-spacing:-0.03em;}.cls-50{letter-spacing:-0.03em;}.cls-51{letter-spacing:-0.01em;}.cls-52{letter-spacing:-0.03em;}</style></defs><title>Asset 33</title><g id="Layer_2" data-name="Layer 2"><g id="Layer_3" data-name="Layer 3"><rect class="cls-1" width="1450.51" height="1222.47"/><path d="M127.78,134.59H114.49v35.27H82V134.59H34.37V94.34H163.6v89.55H127.78Z"/><path d="M32.52,254.42C32.52,219.9,58,195,99,195c41.17,0,66.47,24.92,66.47,59.44S140.15,313.88,99,313.88C58,313.88,32.52,289,32.52,254.42Zm96.56,0c0-9-7.2-19.38-30.1-19.38-23.63,0-30.09,10.34-30.09,19.38,0,9.24,6.46,19.39,30.09,19.39C121.88,273.81,129.08,263.47,129.08,254.42Z"/><path d="M32.52,388.11c0-34.53,25.48-59.45,66.46-59.45,41.17,0,66.47,24.92,66.47,59.45S140.15,447.56,99,447.56C58,447.56,32.52,422.63,32.52,388.11Zm96.56,0c0-9.05-7.2-19.39-30.1-19.39-23.63,0-30.09,10.34-30.09,19.39,0,9.23,6.46,19.38,30.09,19.38C121.88,407.49,129.08,397.16,129.08,388.11Z"/><path d="M34.37,516.25v-48H163.6v48c0,43.2-32.49,62.22-65.35,62.22C65.57,578.47,34.37,558.35,34.37,516.25Zm93.41,0v-7.57H70.18v7.57c0,14.22,11.08,22.16,28.07,22.16C116,538.41,127.78,530.65,127.78,516.25Z"/><text class="cls-2" transform="translate(702.71 582.03)"><tspan class="cls-3">B</tspan><tspan class="cls-4" x="31.3" y="0">A</tspan><tspan x="62" y="0">GE</tspan><tspan class="cls-5" x="126.4" y="0">L</tspan><tspan x="153.73" y="0">S</tspan></text><text class="cls-6" transform="translate(702.71 653.35)">A<tspan class="cls-7" x="23.64" y="0">S</tspan><tspan class="cls-8" x="47.07" y="0">-IS</tspan></text><text class="cls-9" transform="translate(792.53 653.35)"> </text><text class="cls-9" transform="translate(795.63 653.35)">...........................................................</text><text class="cls-9" transform="translate(1346.42 653.35)">4</text><text class="cls-9" transform="translate(702.71 724.68)">BU<tspan class="cls-10" x="48.26" y="0">T</tspan><tspan x="69.65" y="0">TERED</tspan></text><text class="cls-9" transform="translate(885.62 724.68)"> </text><text class="cls-9" transform="translate(888.55 724.68)">.................................................</text><text class="cls-9" transform="translate(1346.42 724.68)">3</text><text class="cls-9" transform="translate(702.71 796)"><tspan class="cls-11">S</tspan><tspan x="22.21" y="0">CHMEERED</tspan></text><text class="cls-9" transform="translate(916.15 796)"> </text><text class="cls-9" transform="translate(916.43 796)">..............................................</text><text class="cls-9" transform="translate(1346.42 796)">4</text><text class="cls-9" transform="translate(702.71 867.32)"><tspan class="cls-11">S</tspan><tspan x="22.21" y="0">CHMEERED </tspan><tspan class="cls-12" x="222.73" y="0">WI</tspan><tspan class="cls-13" x="263.73" y="0">T</tspan><tspan x="284.19" y="0">H </tspan><tspan class="cls-14" x="317.61" y="0">T</tspan><tspan class="cls-8" x="337.67" y="0">OM</tspan><tspan class="cls-15" x="391.5" y="0">A</tspan><tspan class="cls-14" x="413.02" y="0">T</tspan><tspan class="cls-8" x="433.08" y="0">O &amp; ONION</tspan></text><text class="cls-9" transform="translate(1314.05 867.32)"> </text><text class="cls-9" transform="translate(1316.01 867.32)">...</text><text class="cls-9" transform="translate(1346.42 867.32)">3</text><text class="cls-9" transform="translate(702.71 938.65)"><tspan class="cls-11">S</tspan><tspan x="22.21" y="0">C</tspan><tspan class="cls-16" x="46.34" y="0">R</tspan><tspan x="70.79" y="0">AMBLED </tspan><tspan class="cls-17" x="223.02" y="0">WI</tspan><tspan class="cls-13" x="264.02" y="0">T</tspan><tspan x="284.48" y="0">H CHED</tspan><tspan class="cls-18" x="412.58" y="0">D</tspan><tspan x="435.69" y="0">AR</tspan></text><text class="cls-9" transform="translate(1186.73 938.65)"> </text><text class="cls-9" transform="translate(1195.2 938.65)">................</text><text class="cls-9" transform="translate(1346.42 938.65)">5</text><text class="cls-9" transform="translate(702.71 1006.59)"><tspan class="cls-13">T</tspan><tspan class="cls-19" x="20.46" y="0">HE </tspan><tspan class="cls-20" x="76.17" y="0">W</tspan><tspan x="107.07" y="0">O</tspan><tspan class="cls-21" x="133.07" y="0">R</tspan><tspan class="cls-22" x="157.12" y="0">K</tspan><tspan x="180.55" y="0">S ON CI</tspan><tspan class="cls-23" x="304.98" y="0">A</tspan><tspan x="328.98" y="0">B</tspan></text><text class="cls-9" transform="translate(1055.01 1006.59)"><tspan class="cls-24">A</tspan><tspan class="cls-10" x="21.56" y="0">T</tspan><tspan class="cls-15" x="42.96" y="0">T</tspan><tspan x="60.77" y="0">A</tspan></text><text class="cls-9" transform="translate(1139.82 1006.59)"> </text><text class="cls-9" transform="translate(1148.75 1006.59)">.....................</text><text class="cls-9" transform="translate(1346.42 1006.59)">7</text><text class="cls-25" transform="translate(702.71 1040.54)">EGG, <tspan class="cls-26" x="61.92" y="0">C</tspan><tspan class="cls-27" x="77.84" y="0">HED</tspan><tspan class="cls-28" x="124.88" y="0">D</tspan><tspan x="140.09" y="0">AR, </tspan><tspan class="cls-29" x="183.43" y="0">T</tspan><tspan x="196.34" y="0">OM</tspan><tspan class="cls-30" x="232.23" y="0">A</tspan><tspan class="cls-31" x="245.08" y="0">T</tspan><tspan class="cls-32" x="258.01" y="0">O, ONION &amp; S</tspan><tspan class="cls-33" x="402.89" y="0">O</tspan><tspan x="419.11" y="0">Y </tspan><tspan class="cls-34" x="440.17" y="0">S</tspan><tspan class="cls-35" x="454.65" y="0">A</tspan><tspan x="468.75" y="0">U</tspan><tspan class="cls-34" x="484.84" y="0">S</tspan><tspan class="cls-36" x="499.32" y="0">A</tspan><tspan x="513.37" y="0">GE</tspan></text><text class="cls-9" transform="translate(702.71 1108.47)"><tspan class="cls-13">T</tspan><tspan class="cls-19" x="20.46" y="0">HE </tspan><tspan class="cls-11" x="76.17" y="0">S</tspan><tspan x="98.39" y="0">TU</tspan><tspan class="cls-37" x="142.93" y="0">D</tspan><tspan class="cls-8" x="168.36" y="0">-MUFFIN</tspan></text><text class="cls-9" transform="translate(1008.46 1108.47)"> </text><text class="cls-9" transform="translate(1009.35 1108.47)">....................................</text><text class="cls-9" transform="translate(1346.42 1108.47)">8</text><text class="cls-25" transform="translate(702.71 1142.43)">EGG, <tspan class="cls-26" x="61.92" y="0">C</tspan><tspan class="cls-27" x="77.84" y="0">HED</tspan><tspan class="cls-28" x="124.88" y="0">D</tspan><tspan x="140.09" y="0">AR &amp; S</tspan><tspan class="cls-38" x="213.16" y="0">O</tspan><tspan class="cls-27" x="229.35" y="0">Y </tspan><tspan class="cls-39" x="250.41" y="0">S</tspan><tspan class="cls-40" x="264.86" y="0">A</tspan><tspan class="cls-27" x="278.94" y="0">U</tspan><tspan class="cls-39" x="295.02" y="0">S</tspan><tspan class="cls-40" x="309.48" y="0">A</tspan><tspan x="323.55" y="0">GE ON AN ENGLISH MUFFIN</tspan></text><text class="cls-41" transform="translate(944.32 266.76)">WE USE ON<tspan class="cls-42" x="180.07" y="0">L</tspan><tspan x="195.76" y="0">Y THE FINE</tspan><tspan class="cls-43" x="368.84" y="0">S</tspan><tspan x="389.37" y="0">T </tspan><tspan x="-67.8" y="46.04">P</tspan><tspan class="cls-44" x="-46.81" y="46.04">R</tspan><tspan x="-24.52" y="46.04">ODUC</tspan><tspan class="cls-45" x="68.1" y="46.04">T</tspan><tspan x="87.21" y="46.04">S AND I</tspan><tspan class="cls-46" x="202.59" y="46.04">N</tspan><tspan x="225.15" y="46.04">GREDIEN</tspan><tspan class="cls-47" x="368.5" y="46.04">T</tspan><tspan x="387.61" y="46.04">S </tspan><tspan x="-39.44" y="92.09">F</tspan><tspan class="cls-44" x="-20.22" y="92.09">R</tspan><tspan class="cls-48" x="2.07" y="92.09">OM </tspan><tspan class="cls-49" x="61.5" y="92.09">L</tspan><tspan x="79.73" y="92.09">O</tspan><tspan class="cls-50" x="104.21" y="92.09">C</tspan><tspan x="125.81" y="92.09">AL SOU</tspan><tspan class="cls-51" x="244.68" y="92.09">R</tspan><tspan x="267.01" y="92.09">CES AND </tspan><tspan x="-48.88" y="138.13">ON</tspan><tspan class="cls-42" x="-1.69" y="138.13">L</tspan><tspan x="14" y="138.13">Y USE </tspan><tspan class="cls-50" x="117.18" y="138.13">C</tspan><tspan class="cls-52" x="138.78" y="138.13">A</tspan><tspan x="160.31" y="138.13">GE-FREE EGGS.</tspan></text></g></g></svg>