<svg xmlns="http://www.w3.org/2000/svg" viewBox="0 0 431.34 52.49"><title>Asset 22</title><g id="Layer_2" data-name="Layer 2"><g id="ghlogo"><path d="M22.9,52.13C6.26,52.13,0,38.38,0,26.21S6.19.29,22.9.29c7.27,0,12.81,2.16,19.22,10.08L30.6,18.29c-3-3.67-4.89-3.89-7.13-3.89-4.75,0-7.77,4.9-7.77,12,0,6.63,2.23,12.25,7.49,12.25,4,0,5.61-2.09,5.61-2.09V34H23.19V23.33H42.63v19S35.43,52.13,22.9,52.13Z"/><path d="M69.91,51.41,64.08,34.13H60.7V51.41H45V1H65.38c10.44,0,18.5,5.69,18.5,17,0,6-2.16,9.94-6.19,12.39l9.58,21ZM63.79,14.83H60.7v7h3.09c3.53,0,4.4-1.37,4.4-3.46C68.19,16.49,67.54,14.83,63.79,14.83Z"/><path d="M85,51.41V1h15.7v50.4Z"/><path d="M134.79,51.41,120.1,27.15V51.41H104.47V1h14l14.62,24.34V1h15.69v50.4Z"/><path d="M171.22,51.41H152.49V1h18.73c16.84,0,24.26,12.67,24.26,25.49S187.63,51.41,171.22,51.41Zm0-36.43h-3V37.44h3c5.54,0,8.64-4.32,8.64-10.94C179.86,19.59,176.83,15,171.22,15Z"/><path d="M224.86,51.41V32H213.19V51.41h-15.7V1h15.7V18.07h11.67V1h15.77v50.4Z"/><path d="M265.17,52.13C251.71,52.13,242,42.2,242,26.21S251.71.29,265.17.29s23.19,9.86,23.19,25.92S278.64,52.13,265.17,52.13Zm0-37.66c-3.52,0-7.56,2.81-7.56,11.74,0,9.22,4,11.74,7.56,11.74s7.57-2.52,7.57-11.74C272.74,17.28,268.7,14.47,265.17,14.47Z"/><path d="M333.36,30.53c0,13.68-9.94,21.6-22.11,21.6s-22.17-7.92-22.17-21.6V1h15.77V31c0,5.33,2.95,7.13,6.4,7.13s6.41-1.8,6.41-7.13V1h15.7Z"/><path d="M355.17,52.49c-10.15,0-16.92-5-21.53-11.09l10.95-7.92c4.32,4.68,8.35,6.05,10.94,6.05,2.89,0,3.82-1.15,3.82-2.45,0-4.39-22.9-6.91-22.9-21.81C336.45,5.83,344.45,0,356,0c7.34,0,13.9,2.16,18.94,8.79l-10.52,8.78S359.85,13,355.82,13c-2.59,0-3.31,1.15-3.31,2.31,0,4.6,22.83,5.76,22.83,21C375.34,47.31,365.47,52.49,355.17,52.49Z"/><path d="M376.63,51.41V1h34.2V15h-18.5v5.18h13V31.32h-13v6.12h20.88v14Z"/><path d="M431.34,46.16c0,3-2.37,5-5.52,5s-5.62-2-5.62-5a4.9,4.9,0,0,1,2.25-4L424,44.62a1.69,1.69,0,0,0-.87,1.47c0,1.25,1.44,1.73,2.65,1.73s2.52-.53,2.52-1.76a1.7,1.7,0,0,0-.9-1.49L429,42.14A5.27,5.27,0,0,1,431.34,46.16Z"/><path d="M431.34,38c0,2.89-2.14,5-5.57,5s-5.57-2.09-5.57-5,2.12-5,5.57-5S431.34,35.11,431.34,38Zm-8.09,0c0,.76.6,1.62,2.52,1.62s2.52-.86,2.52-1.62-.54-1.62-2.52-1.62S423.25,37.24,423.25,38Z"/><path d="M423.36,29.34h1.11V26.39h2.72v2.95h4v3.37H420.36v-7.5h3Z"/><path d="M423.36,21.84h1.11V18.89h2.72v2.95h4v3.37H420.36v-7.5h3Z"/><path d="M431.18,17.71H420.36V10.37h3v4h1.11v-2.8h2.4v2.8h1.31V9.86h3Z"/><path d="M431.18,9.86H420.36V2.51h3v4h1.11V3.69h2.4v2.8h1.31V2h3Z"/></g></g></svg>