<svg xmlns="http://www.w3.org/2000/svg" viewBox="0 0 159.21 166.82"><title>Asset 18</title><g id="Layer_2" data-name="Layer 2"><g id="menu-button"><path d="M76.68,80.31c-.76,0-1.22.65-1.31,1.5h2.54C77.86,81,77.42,80.31,76.68,80.31Zm0,0c-.76,0-1.22.65-1.31,1.5h2.54C77.86,81,77.42,80.31,76.68,80.31Zm0,0c-.76,0-1.22.65-1.31,1.5h2.54C77.86,81,77.42,80.31,76.68,80.31Zm0,0c-.76,0-1.22.65-1.31,1.5h2.54C77.86,81,77.42,80.31,76.68,80.31Zm82.53,27.78-43.45-25,43.09-26a4.93,4.93,0,0,0-.23-.46l-50,5.33c6.63-15.71,13.1-31.06,19.59-46.42-.14-.08-.27-.17-.41-.24L90.41,49.07C86.57,32.42,82.81,16.22,79.06,0l-.53,0c-3.42,16.3-6.86,32.62-10.35,49.26L30,16.22c-.11.1-.23.21-.36.31l20.61,46L.11,58.22c0,.18-.07.34-.11.51L43.59,83.8l-43.1,26c.07.16.16.33.23.49l50-5.37C44.07,120.69,37.58,136,31.08,151.38c.15.09.3.16.44.25,12.32-11.16,24.64-22.3,37.38-33.83,3.88,16.66,7.62,32.84,11.37,49l.53,0c3.42-16.27,6.86-32.54,10.35-49.2,12.95,11.25,25.54,22.16,38.13,33.07.12-.09.26-.18.38-.28-6.82-15.21-13.64-30.44-20.64-46,17,1.47,33.55,2.88,50.08,4.3C159.14,108.44,159.17,108.26,159.21,108.09ZM82.49,84.26H75.35a1.76,1.76,0,0,0,1.52,1.95,1.58,1.58,0,0,0,1.48-1l3.74,1.25c-1.2,2.41-3,3.12-5.34,3.12A5.62,5.62,0,0,1,70.91,85v4.34H66.17V82.79c0-.84-.14-1.37-.74-1.37a1.28,1.28,0,0,0-.6.3s0,.72,0,1.11v6.54H60.11V82.79c0-1-.16-1.37-.73-1.37a.67.67,0,0,0-.59.3v7.65H54V77.45h4.75l-.07.8a4,4,0,0,1,2.52-1,3.05,3.05,0,0,1,2.59,1.13,4.91,4.91,0,0,1,3.45-1.13c2.79,0,3.51,2.28,3.62,4.85a5.84,5.84,0,0,1,11.59,1.16Zm11.23,5.11H89V82.79c0-.6.09-1.37-.76-1.37a1.26,1.26,0,0,0-.89.3v7.65H82.56V77.45h4.75l-.07.8a4.5,4.5,0,0,1,2.57-1c3.37,0,3.91,2.75,3.91,5.61Zm11.44,0h-4.74l.07-.81a4.25,4.25,0,0,1-2.52,1c-3.37,0-4-2.68-4-5.52V77.45h4.76v6.74c0,.82.18,1.23.76,1.23a1.34,1.34,0,0,0,.9-.3V77.45h4.74ZM76.68,80.31c-.76,0-1.22.65-1.31,1.5h2.54C77.86,81,77.42,80.31,76.68,80.31Zm0,0c-.76,0-1.22.65-1.31,1.5h2.54C77.86,81,77.42,80.31,76.68,80.31Zm0,0c-.76,0-1.22.65-1.31,1.5h2.54C77.86,81,77.42,80.31,76.68,80.31Z"/></g></g></svg>