<svg xmlns="http://www.w3.org/2000/svg" viewBox="0 0 432.57 65.96"><title>Asset 25</title><g id="Layer_2" data-name="Layer 2"><g id="sclogo"><path d="M18.07,51.84A24.25,24.25,0,0,1,0,43.92l7.85-7.56c2.66,3.24,6.84,5.26,9.43,5.26,1.87,0,2.31-.87,2.31-1.51C19.59,37.3,2,36.29,2,25.2,2,18,7.85,13,18,13a22,22,0,0,1,16,6.62l-7.28,7.49c-2.44-2.23-5.4-3.81-8.06-3.81-1.22,0-1.94.43-1.94,1.22,0,2.95,17.71,3.6,17.71,14.91C34.42,47.81,26.14,51.84,18.07,51.84Z"/><path d="M47.23,35.07c0,3.45,2.16,6.12,4.76,6.12a5,5,0,0,0,4.68-3.1l11.73,4c-3.74,7.56-9.36,9.79-16.78,9.79-11.08,0-18.86-7.48-18.86-19.29S40.9,13,51.34,13c10.8,0,18.36,8,18.36,18.87v3.24Zm4.18-12.39c-2.38,0-3.82,2-4.11,4.68h8C55.08,24.84,53.71,22.68,51.41,22.68Z"/><path d="M91.3,51.12l-5.76-9.36L79.7,51.12H63L77.33,32,63.43,13.68H80.5l5,8.35,4.89-8.35h16.71L93.6,31.9l14.47,19.22Z"/><path d="M127.23,54.29C124.42,61.92,118.37,66,111.31,66a21.74,21.74,0,0,1-10.44-2.81l4.75-12a9.58,9.58,0,0,0,4,1.3c1.8,0,3.1-1.37,4.4-4.54l-12.82-34.2h15.77L121.75,30l4.75-16.35h15.85Z"/><path d="M170.64,51.84c-10.44,0-19-7.41-19-19.29s8.5-19.59,19-19.59c6.19,0,10.59,1.87,15.55,8.5l-9.93,7.13c-2.31-3-3.75-3-5.12-3-1.58,0-4.68,1.23-4.68,7,0,5.47,3,6.69,4.68,6.69,1.23,0,3,0,5.12-3.09l10,6.69C181.51,49.83,176.76,51.84,170.64,51.84Z"/><path d="M201.1,51.84c-11,0-18.87-7.7-18.87-19.44S190.08,13,201.1,13,220,20.67,220,32.4,212.11,51.84,201.1,51.84Zm0-26.21c-1.44,0-4,1.08-4,6.77,0,5.84,2.52,6.77,4,6.77s4.1-.93,4.1-6.77C205.2,26.71,202.61,25.63,201.1,25.63Z"/><path d="M242,12.17c-3.31-2.52-5.76-1.08-5.76,1.51H242V25.35h-5.33V51.12H221.83V25.35h-4.61V13.68h4.61C221.83,6.26,225.57,0,235.22,0a18.73,18.73,0,0,1,12.6,4.32Z"/><path d="M263.73,12.17c-3.31-2.52-5.75-1.08-5.75,1.51h5.75V25.35h-5.32V51.12H243.57V25.35H239V13.68h4.6C243.57,6.26,247.32,0,257,0a18.73,18.73,0,0,1,12.6,4.32Z"/><path d="M275.54,35.07c0,3.45,2.16,6.12,4.75,6.12a5,5,0,0,0,4.69-3.1l11.73,4c-3.74,7.56-9.36,9.79-16.77,9.79-11.09,0-18.87-7.48-18.87-19.29S269.21,13,279.65,13C290.45,13,298,21,298,31.83v3.24Zm4.18-12.39c-2.38,0-3.82,2-4.11,4.68h8C283.39,24.84,282,22.68,279.72,22.68Z"/><path d="M310.61,35.07c0,3.45,2.16,6.12,4.75,6.12a5,5,0,0,0,4.68-3.1l11.74,4c-3.75,7.56-9.37,9.79-16.78,9.79-11.09,0-18.87-7.48-18.87-19.29S304.27,13,314.71,13c10.8,0,18.36,8,18.36,18.87v3.24Zm4.17-12.39c-2.37,0-3.81,2-4.1,4.68h8C318.45,24.84,317.09,22.68,314.78,22.68Z"/><rect x="344.18" y="20.27" width="74" height="14"/><polygon points="414.18 8.89 432.57 27.27 414.18 45.66 414.18 8.89"/></g></g></svg>