<svg xmlns="http://www.w3.org/2000/svg" viewBox="0 0 45.95 46.21"><defs><style>.cls-1{fill:none;}</style></defs><title>Asset 30</title><g id="Layer_2" data-name="Layer 2"><g id="Layer_1-2" data-name="Layer 1"><path class="cls-1" d="M22,22.68c-.25,0-.41.23-.41.72s.16.71.41.71.41-.23.41-.71S22.23,22.68,22,22.68Zm0,0c-.25,0-.41.23-.41.72s.16.71.41.71.41-.23.41-.71S22.23,22.68,22,22.68Zm0,0c-.25,0-.41.23-.41.72s.16.71.41.71.41-.23.41-.71S22.23,22.68,22,22.68Zm0,0c-.25,0-.41.23-.41.72s.16.71.41.71.41-.23.41-.71S22.23,22.68,22,22.68Zm0,0c-.25,0-.41.23-.41.72s.16.71.41.71.41-.23.41-.71S22.23,22.68,22,22.68Zm0,0c-.25,0-.41.23-.41.72s.16.71.41.71.41-.23.41-.71S22.23,22.68,22,22.68Zm24,3.06L40.33,23l5.6-2.72c0-.05,0-.1,0-.15L39.81,18.9l4.82-4a.64.64,0,0,0-.1-.13L38.34,15,42,9.94,42,9.84l-6,1.72L38.33,5.8l-.11-.09L32.8,8.79c.33-2.15.64-4.14.94-6.13l-.14-.07L29.1,6.86c-.2-2.18-.38-4.19-.57-6.19l-.15,0L25,5.89,23,0h-.17c-.64,1.92-1.3,3.84-2,5.89L17.46.62l-.13,0c-.17,2-.34,4.07-.52,6.25L12.24,2.6l-.12.08c.33,2,.65,4,1,6.17L7.7,5.8l-.12.1c.78,1.86,1.56,3.73,2.4,5.72L4,10l-.07.14,3.69,5-6.23-.18,0,.14L6.12,19,.05,20.3v.14l5.59,2.7L0,25.87,0,26l6.12,1.29C4.5,28.67,3,30,1.39,31.26a1.09,1.09,0,0,1,.08.15l6.18-.23c-1.28,1.76-2.49,3.4-3.7,5l.09.11,6-1.7L7.64,40.4l.11.09,5.43-3.1c-.33,2.18-.64,4.17-.94,6.17l.14,0,4.51-4.28c.2,2.18.38,4.21.56,6.24h.14c1.1-1.72,2.19-3.44,3.35-5.27.72,2.07,1.38,4,2,5.91h.14c.65-1.92,1.3-3.84,2-5.9l3.37,5.22.15-.05c.17-2,.35-4,.53-6.18l4.55,4.28.12-.08c-.32-2-.63-4-1-6.15l5.43,3.06.1-.11c-.79-1.88-1.58-3.76-2.4-5.74l6,1.7a.75.75,0,0,0,.07-.12l-3.71-5,6.2.19a.58.58,0,0,1,0-.14l-4.78-4,6.08-1.3A.81.81,0,0,1,46,25.74ZM9.26,25.63c-1.32,0-2.07-.55-2.07-1.37H9c0,.2.08.33.25.33a.2.2,0,0,0,.22-.22c0-.14-.07-.21-.23-.25l-.81-.21a1.4,1.4,0,0,1-1.18-1.27c0-.93.71-1.49,1.9-1.49s2,.54,2,1.32H9.44c0-.21-.11-.32-.27-.32a.18.18,0,0,0-.2.19c0,.13.08.23.3.3l.85.24c.72.21,1.13.57,1.13,1.25C11.25,25.05,10.44,25.63,9.26,25.63Zm6.64-.15H14v-.63a1.14,1.14,0,0,1-1.16.75c-.88,0-1.34-.6-1.34-1.77V21.31h1.93v2.35c0,.24.1.36.29.36s.28-.14.28-.43V21.31H15.9ZM19.42,23a2,2,0,0,0-.35,0c-.5,0-.76.33-.76,1.11v1.38H16.42V21.31H18v1.14c.1-.84.56-1.23,1.13-1.23a1.32,1.32,0,0,1,.28,0Zm3.34,2.58a1.08,1.08,0,0,1-1.11-.76V27H19.76V21.31h1.89V22a1.09,1.09,0,0,1,1.11-.78c1,0,1.57.9,1.57,2.22S23.75,25.6,22.76,25.6ZM27.64,23a2,2,0,0,0-.36,0c-.5,0-.76.33-.76,1.11v1.38H24.63V21.31h1.59v1.14c.11-.84.56-1.23,1.13-1.23a1.42,1.42,0,0,1,.29,0Zm2.23,2.46H28V21.31h1.89Zm-.95-4.31a1,1,0,1,1,1-1A1,1,0,0,1,28.92,21.17Zm3.34,4.46c-1.33,0-2.08-.55-2.08-1.37H32c0,.2.08.33.25.33a.21.21,0,0,0,.22-.22c0-.14-.08-.21-.23-.25l-.82-.21a1.41,1.41,0,0,1-1.18-1.27c0-.93.71-1.49,1.91-1.49s2,.54,2,1.32H32.43c0-.21-.11-.32-.28-.32a.18.18,0,0,0-.19.19c0,.13.08.23.3.3l.84.24c.73.21,1.13.57,1.13,1.25C34.23,25.05,33.43,25.63,32.26,25.63Zm6.47-1.87H36.2c0,.39.12.65.41.65s.35-.09.37-.26h1.7c-.12.92-.84,1.48-2,1.48a2,2,0,0,1-2.32-2.23,2.06,2.06,0,0,1,2.3-2.25,1.91,1.91,0,0,1,2.13,2A4.09,4.09,0,0,1,38.73,23.76ZM36.6,22.2c-.29,0-.4.18-.4.63H37C37,22.4,36.88,22.2,36.6,22.2ZM22,22.68c-.25,0-.41.23-.41.72s.16.71.41.71.41-.23.41-.71S22.23,22.68,22,22.68Zm0,0c-.25,0-.41.23-.41.72s.16.71.41.71.41-.23.41-.71S22.23,22.68,22,22.68Zm0,0c-.25,0-.41.23-.41.72s.16.71.41.71.41-.23.41-.71S22.23,22.68,22,22.68Zm0,0c-.25,0-.41.23-.41.72s.16.71.41.71.41-.23.41-.71S22.23,22.68,22,22.68Zm0,0c-.25,0-.41.23-.41.72s.16.71.41.71.41-.23.41-.71S22.23,22.68,22,22.68Z"/></g></g></svg>